<mxfile host="app.diagrams.net" agent="Mozilla/5.0 (Windows NT 10.0; Win64; x64; rv:133.0) Gecko/20100101 Firefox/133.0" version="26.0.3">
  <diagram name="Strona-1" id="t9meBzP3OxlCZiA9m54O">
    <mxGraphModel dx="989" dy="539" grid="1" gridSize="10" guides="1" tooltips="1" connect="1" arrows="1" fold="1" page="1" pageScale="1" pageWidth="827" pageHeight="1169" math="0" shadow="0">
      <root>
        <mxCell id="0" />
        <mxCell id="1" parent="0" />
        <mxCell id="IfQArLoxXnqm0S6wMqAk-1" value="" style="shape=image;verticalLabelPosition=bottom;labelBackgroundColor=default;verticalAlign=top;aspect=fixed;imageAspect=0;image=data:image/png,iVBORw0KGgoAAAANSUhEUgAABKoAAAJBCAYAAABms11oAAAAAXNSR0IArs4c6QAAAARnQU1BAACxjwv8YQUAAAAJcEhZcwAAEnQAABJ0Ad5mH3gAAP+lSURBVHhe7P0JkBzVveeLd9yY63nz/jMv3ov4x8x94RthIuY/b2Yi7jOD/Tx3LgI3XN/29fNgRr6IsWVsNoEQi7HV9sVgswgkIbQhkEBq0AIIqaVWS90CISGpJYEEEkIIrQgJ1EL7AmhD+4L8++c5mVl1MvNkVWZ1V1d19ucb8TGqXE4uVf3LOh+fzKoRQgghhBBCCCGEEEKqIIgqQgghhBBCCCGEEFIVQVQRQgghhBBCCCGEkKoIoooQQgghhBBCCCGEVEUQVYQQQgghhBBCCCGkKoKoIoQQQgghhBBCCCFVEUQVIYQQQgghhBBCCKmKIKoIIYQQQgghhBBCSFUEUUUIIYQQQgghhBBCqiKIKkIIIYQQQgghhBBSFUFUEUIIIYQQQgghhJCqCKKKEEIIIYQQQgghhFRFEFWEEEJIFefsxT/L6j1n5PWtJ2Xq+uOa5Z+dlvbD570lCCGEEEIIyU4QVYQQQkiVRsmoCauPysJPTsiHe09J+5dnNG+1n5TpG45L48av5OT5S97ShBBCCCGEdP8gqgghhJAqzOLtp7SMOnrqnFy4cMHKtkOntcg6dPKitxYhhBBCCCHdO4gqQgghpMry0aFzMuejr6xyKszBr87Ji2uOycVLf/bWJoQQQgghpPsGUUUIIYRUUdStfC+8f7TgSKowy3eckGU7TnstEEIIIYQQ0n2DqCKEEEKqKO/uOi1Ltp+0CqlCDHv7MKOqCCGEEEJItw+iihBCCKmizNp8QrYcPG2VUYWY/MEx2ffVBa8VQgghhBBCumcQVYQQQkgVZdyqo/LlyeS3/fmoXwZcveeM1wohhBBCCCHdM4gqQgghpIqiHoy+79hZq4wqxNwtX8mGA2e9VgghhBBCCOmeQVQRQgghVZTXt56UD/eessqoQqgHsB86edFrhRBCCCGEkO4ZRBUhhBBSRVm774y8sfWEVUbFceLMeRm54rDXAiGEEEIIId03iCpCCCGkiqJ+ue+Vdcdk15EzVillg9v+CCGEEEJIVoKoIoQQQqosX57+Wt/Kd/RU8Yeqb9x/Wv9SICGEEEIIIVkIoooQQgipwuw6dkEmrD4a+7wqdbufGkmlJJUahUUIIYQQQkgWgqgihBBCqjRnL/5ZP1x9zLtHZPqG4/JW+0lZ+MkJfWugeiYVt/sRQgghhJCsBVFFCCGEVHlOnr8k7YfPy7hVR2Xx9lN6tBUhhBBCCCFZDKKKEEII6SaZuv44kooQQgghhGQ6iCpCCCGkmwRRRQghhBBCsh5EFSGEENJNgqgihBBCCCFZD6KKEEII6SZBVBFCCCGEkKwHUUUIIYR0kyCqCCGEEEJI1oOoIoQQQsqU3bt3y4YNGzqNie/ulRUfbrHOAwDIItu3b/cqKiGEkJ4SRBUhhBDSSTl48KC8/PLL0r9/f/n7v/97ufXWW2XgwIEAAFAid955Z66ePv/88/r/ACCEEJLtIKoIIYSQDubkyZMyceJE3ZGaMmWKbNv6kZw4uluO7t/gciCOjQXY5HLQ5ViAzUX4yOVQHFtyHI/j848TsNXOF1vlqy+2FeGTKF/6fFqQE19uj3LYp70IO6IccTl55LMi7Ixy1GdXLKecz4KVYz57CrDXznGX08f3FWC/na98DhThYIQzJ8IcSsDnLidtfFGQsye/dDll43ARjsjZ03bOnT5ahGNy7kwcx2M5f+Yrl7NxnCjASZdzdi6cO1WE03LhfCHOWLnoc0Fxtgjn7Fz0OZ/j6wgX7HztczGWixcvyq5du6SpqUnX2eHDh8uRI0e8CkwIISRrQVQRQgghHYj6f/fvu+8+efXVV+WrY4fk8x1vye4N0zymu2z0aQywZ+MM2bPJZ2aIJpfNLns3zzJodvnIZ3aAfR/Ncdni0xKiVfZ97LJfMzfK1tdCvC4HfLb5zAvxhssnb8jBT+aHWODyqc+bAQ59ulAObfdZFGKxS7vL5+1tBktcdvgsDfDFjmUun/m8ZfC2y06XL3cuD7HCZZfPOzkO73rXZbfPyhCrXPaskiN73gux2mWvz/sBju5d47JP8UGItS77XY7t/zDEOjl2wGd9gOMHNrgc9NkYYpMcP2SyOcJXn38UYkueL3w+DqHEpcOXW+XEl9tCfOJy2OfTACcPb3c5omgPoeSiw1GXU0c/C7FTTh3z2RXg9LHdLsd99oTYK6e/cjnz1b4Q+11O+BzIcfbEQZeTPodCfO5yyuXcqS8MvnQ57XM4wPnTR1zOKI5aOCbnz7pc0BwPcu4rCyfkos95xUkLp+TiBZevL5wOccblos/ZHJcunnP52ud8iAsul1z+fOmiwdcuf/a5pLl06ZJcvHhB5s+fr4XVli1bvEpMCCEkS0FUEUIIISVGPT/l3nvvlR07dsiRAxtECae8pEJUIaoQVYgqRFVniipTWB07dkzfGrhmzRqvIhNCCMlKEFWEEEJICVHPo1IjqQ7u3y0HPl0guza8GpJUiCpEFaIKUYWoKoeocv7HmX9Jzpw5o//PAh64Tggh2QqiihBCCCkhSlJt3LhRvtj5rpZUiCpEFaIKUYWo6jpRpVD/3rdvn1x33XXyyCOPeNWZEEJIdw+iihBCCEmZ2bNny7hx4+TEkd2ya70rqRBViCpEFaIKUdW1osr5H/2wdfWQ9csvv1z+6q/+yi3ShBBCunUQVYQQQkiKnD9/Xn7xi1/IwQN7tSRCVCGqEFWIKkRVx0SV+tU/dRvfuXNnU4sqhVpX1eVvfOMbUlNTIw8++KCu14QQQrpnEFWEEEJIiqgH9z7wwANyZP8G2bV+KqIKUeWBqEJUIapKEVW+pDp58qScOnXKk1VfpxJV6uHqo0ePlm9+85taVCkee+wxXbMJIYR0vyCqCCGEkBQZM2aMtLa2yoFPFiCqEFWCqEJUIapKF1VfX7wgp0+flp07d8rgwYPlhRdekBMnTuRlVUJRpfLeqpVSW1ubE1UKQggh3TNUcEIIISRF6uvrZd26dZ6kQlQhqhBViCpEVSmi6uKF8zlJpW7V+8d//Ee54YYb5MUXX5Tjx4/LubNOG+o2wISias9nm+WHP/xhQFTxzCpCCOmeQVQRQgghKaKfT3XwYApR9awMvzLfcaq58k5ZGRZVk68zOleXy4iFSUTVILnLW+euKclE1azbvG30uldWG6Kq+XZ/21fIqCV5UfX+kO+406+6T97fOlTu9rZ399SOiKqn8u1MQ1QhqhBVPVFUfX0xKKn69Okjzz77rB5VdeONN8rEiRPl6NGj7siqhKLqxJGd8vd///deLctDCCGk+4XqTQghhKTIj370I/08lZJFVc23ZfjCoKhqutWcXz5RtfqJK7xt9JZZOVH1oozqld/+gJfzosoXWNcMmeS8RlQhqhBViKqOiyqbpHrllVfk0KFDsnXrVi2rfv7zn2tZdfiwc+zn1MiqoKyyiarjX3xiFVWXXXaZnk8IIaT7BFFFCCGEpIjqCF28eLEEUfVtqfWEVe2gsYaoesQVTldeLrW6Y5VUVPm3/SmSiap9bfd427hCRi7xRNWSe+UaPc3j9iGeqBoqA7xpA17pzFv/EFWIKkRVTxVVSlIp0R+WVFu2bJGHH35Yj6ravHmzDBkyRI9enTRpknz5pXMuQrIqjahSEEII6V6hchNCCCEpUrqoqpH+t3i3+Hm3/2lR5d32V3vrdRFRFRxp5c4buShuRNXjudcDpkyQkeYoqZc8UbXliZx8qh38ohZV7w92R1ld08sbbdXrXnlfiaql93kC66fSrJ9RFR5RZb6eLKOvcv/tvjZF1UuBedcM/Y1VVK0d+t3cMpqrBspaT1S13OGt++Q0T1SNknu85e6Z5oqqD4d9z13vzqcRVYgqRFWViir/1/3UqClTUv3ud7+T66+/Xn72s5/J2LFjZf369TJ06FC55ZZbpLm5Wa93/vw5RBUhhPSQULkJIYSQFOmQqJr8sPTXHSf39j8lqnwZddeg/iFR9ZyMCNwy6PMTmVVEVEXpLbO8UVW551TdPkSLKv/2vgEvD/Ek1k+lWYmqV37qLqefT1VYVEX5J5njiao5/WzzXXxRFb9MH2nZvigvsb4/UNYqUTXtxvwyd4zWoqr1Tvf1PdMZUYWoQlRVq6hSD0g/deqUTJ48WaZOnSofffSRllS//OUv9bTRo0dL3759taxau3atntbW1iZnnfXOnz+PqCKEkB4SKjchhBCSIh0TVY3SdIv7b3X7356N3m1/NddJ08KwqArf+meKqSKi6rYn3Fv/Xrrefa1u9WtzRVXuOVX6geqmnJqYe1aVek6V/yB19/lURUTV7UOd1/PkwNR/cl/XfEdGL5svB5fdn7ut8O6p3q1/027wlvFE1du/yS8zzbv17+2BuWnXDH3VeH2jtLQvlg+f9EZPKb5fLx+2T5Mx31evvydjViCqEFWIqmp+RpUaHaWeUWVKqjlz5ujp+/btk6efflpuuukmGTdunH6tpl+4kJdUiCpCCMl+qNyEEEJIinRUVO32f+Hvyjtllf/vWx+RPRZRtWrQ5e78EMVE1YAp/jOq8rf65W7/yz2nqrfM8p9P5d3ul7sNcPDE/Egr/XyqYrf++c+oGmZMmy8Hp/pS6gaZk3tG1cu5WwG1qPLF1VW/lbXGM6r82/1q7hjpvB7ptftdeXq5J6W+f6Pco+XUjdLaPtq9FVBJK0NSIaoQVYiq6hJV/oPUlaSqr68PSCo12ko9i2rv3r1aVv3qV7+S5557Tr/mGVWEENKzQuUmhBBCUqTDompj/vY//+Hqd02eERVVk3+i5ylqH3c6aylGVBUUVblpV8iA2/NiSj9A/WXvdr9eV3gjmPznU5Umqj4Y6o7Kqrnqfvkg5mHqH/i39RUUVYtzr++eNlJLqWufnCat3rR7nqyXa9Wyd44OSCpEFaIKUVVdokoJKf8ZVWrUVEtLiyupzp2VP1+66Kx3Qf979+7dMmbMGLnjjjt4RhUhhPTAULkJIYSQFOm4qMrf/udynTRtioqq3GiqWx91b/1bNMCb31FRZTynyp/38lxXVPm3AvqiKvd8qo6OqFKvPVGV8ta/u6e5v/rnP6fqmu+7/71nWlvuWVXXft+9FfCe6fzqH6IKUVXNours2TP6GVUzZ84MSKpLly5oUWXKql27dunlVqxYoZ9RdeGCswyiihBCekSo3IQQQkiKdIaoyt3+p1C3/RUSVRY6Kqpyz6nS9HYfnq7JP6dKkX8+VYmi6pP8axtFH6ae++W/xQF55d7u1yafL/dGUvnTdiCqEFWIqmoWVQoloZSgUvLJl1SmqHJl1cXAcqakQlQRQkj2Q+UmhBBCUqRTRFXu9r8a97Y/i6gK/urf5TJyUWfd+ufQdm9udJb/fCpXVM3NPZtKr5N7PlWpoioqq+6eFrz1T4kqRUtYVulb/pSk8kTV9mnytH4mlYN+gHqbfJ57iLo3DVGFqEJUVb2oUqjb+BSXvnYlVVhU/fnS1868r/VD1MMPUkdUEUJI9kPlJoQQQlIkvahy2OjjiyqXPRs9SaVRcsok/Kt/swyUqHL4yEeJqjxaUmlR5WNIKk2r7PvYZb8mL6py5ASVz+tywGebjy+ofN5w+eQNT1KZ+M+o8slLKsWhT/3nU7nPqAqiRJVDu8vnWlL5LHHRkgpRhahCVHUHUeVywSVGVGn+7IOoIoSQnhQqNyGEEJIiiCpEFaIKUYWoQlQRQggpX6jchBBCSIogqhBViCpEFaIKUUUIIaR8oXITQgghKYKoQlQhqhBViCpEFSGEkPKFyk0IIYSkCKIKUYWoQlQhqhBVhBBCyhcqNyGEEJIiiCpEFaIKUYWoQlQRQggpX6jchBBCSIogqhBViCpEFaIKUUUIIaR8oXITQgghKYKoQlQhqhBViCpEFSGEkPKFyk0IIYSkCKIKUYWoQlQhqhBVhBBCyhcqNyGEEJIinS+qHpG7aq6TJkSVIKoQVYgqRBWiihBCCJWbEEIISZH0oupZGX7lt2X4wryoWjno207n6dsyYiGiClGFqEJUIaoQVYQQQsxQuQkhhJAU6bComnyd1Fx5p6xkRFUARBWiClGFqEJUEUIIUaFyE0IIISnSIVGlJJWSUt7IKpuoWjXocqOD9RNpMkTVrFuNztetgzxJ1Syrn7jCWOd6mYWoyoGoQlQhqhBVhBBCuleo3IQQQkiKlCyqJt8ptYaksouqcTLi1v6yyhtR1XRrjdQ+/pwrqqb8RGp6DZDVkRFVE2TkbXfLam801azbnHWemICoQlQFJBWiClGFqCKEENJdQuUmhBBCUqQ0UeV2lmoHjc1JqrgRVYFb/yb/RGpufdQVVYsGSG3NT2RWsVv/plwvNbc9gahCVAUkFaIKUYWoIoQQ0l1C5SaEEEJSpOQRVQsflv5Oh6n/5CKiSt8eaHSyfFGlBJUaVaWnXy+zTFGl5JS5DqIqB6IKUYWoQlQRQgjpXqFyE0IIISlSuqhy/r1Q3f6Xl1URUaUftJ6/9S8wokqPpPJQYkrdBuhLql75W/8YUYWoQlQhqhBViCpCCOnOoXITQgghKdIhUaVGUmlZpV5HRZV+kLoSU56oUs+osooqdRugJ6pWP+Gsc9vjuVv/1DOqEFWIKkQVogpRlYcQQkj3CpWbEEIISZEOiyqFd3vfXZMtD1P3nmel599qjKjK3fanuFxGLvJv/ZsgI3sZ69zGiCpEFaIKUYWoMiGEENK9QuUmhBBCUiS9qFKCyscTVR7uiCofJapMmlw2uwRGVBV6mLqDllSIKg2iClGFqEJUEUII6V6hchNCCCEpgqhCVCGqEFWIKkQVIYSQ8oXKTQghhKQIogpRhahCVCGqEFWEEELKFyo3IYQQkiKIKkQVogpRhahCVBFCCClfqNyEEEJIiiCqEFWIKkQVogpRRQghpHyhchNCCCEpgqhCVCGqEFWIKkQVIYSQ8oXKTQghhKQIogpRhahCVCGqEFWEEELKFyo3IYQQkiKIKkQVogpRhahCVBFCCClfqNyEEEJIiiCqEFWIKkQVogpRRQghpHyhchNCCCEpgqhCVCGqEFWIKkQVIYSQ8oXKTQghhKRIR0XVjg9flYWzhsnAu2+Q16YNls/WTZPOE1WPy11Op2zAlBJE1cs/lZrbhyCqEFUGiCpEFaKKEEJI14fKTQghhKRIR0VV+9qpMmPin+T/+S//l/S5vlbmvDLIWbcxJKlcUdV0a43UPv5cQFStfvxyqek1QFabomrK9c60u2V1R0ZUIapCkgpRhahCVCGqCCGEVCJUbkIIISRFOkNUNb74J/ned/9Gfv6zG+TxP90rLVMfl8/WTY+Iqj2TfyI1ve6SVYaomnWr6nhdLiMX5UXV6ieukNonJmhJhahCVCGqEFWIKkQVIYR051C5CSGEkBRJK6qaJj8sUyf8weNBeem5f5Y/1t8k13z/7+TVV1+VCePHyp/++U5Z0PRUVFRtelTuqvmJNOVE1SD9+q5ba+SuKb6omiAje6nX/q1/18ssLaqekAHq3213S63fYbvtCUNUDXHm+x25n0pzRFQNNeY73D40J6pm314jd0/1RdVkGX1VjVwzZLInqqY4r78jo5chqhBViCpEFaKKEEJI+lC5CSGEkBRJK6pu+MnVcu3V/yXHNb0ul+9e/n/J//PdK+TNN9+UtR98IEMHPywP//5mi6h6TkZoCeWJqik/kZpbB7m3+qn/KlG1eIDUajllE1VOJ03dEqjllPt6wEvq3y9quTXgZX9ElSetcqJqooy6ypn/ij+aapJ+fc2QSa6smqqk1lBPVA2Vu6/6jlyjX78hB5beL9dcdb98EJBUiCpEFaIKUYWoIoQQkixUbkIIISRF0oqqN5uelNemP+ExWD+Tauif+sm11/SSKVMmy+hRT8mf/rmfLHvtaYuoapJV6plUtz6au+3vrimzZO8iX041u9Lqtscl/zB1U1RdISPb8rf+zbqtRmqfaJB9L/WWml73yuq4W//Uv6+6T943b/1bep9c40xbo0SV+nfNT2W2ElVT/0muGfJrubvmn5zXb7ivh04JSSpEFaIKUYWoQlQRQghJFio3IYQQkiJpRdVn616Vz5xlXKbJJ2telmkvPCRXXP6f5L//vz+UoY/eK4vnjJAdH6pf/4uKqj2L7pLaXnfJ6s3jZWQv9WwqdQugut3P+ffiZk8++c+nstz6Zzyjyn2WlSeqbh8S/4wq/e+heUmlGSp3Kzmln1E1yb29b+k8mX27+d83vNsCeUYVogpRhahCVBFCCCktVG5CCCEkRdKKKo3lV//+9rv/We745Y9l/swntcAKSipDVG1Wt/9dLiOnDJBa/Wt/SlQ161//q31ikCes3Ieod0RUvT/4iuQjqra9LmuGfEeuGTJURt/+a1mzbZ73epiMvuqfZDYPU3dAVCGqEFWIKkIIIaWEyk0IIYSkSEdF1Y51r8qS1pHy8O9/KW82DfMk1QxDUIVFVZM06V/6q5Hax8e7z6ra3Ozd/udMV/JKS6oUomqL+0yq+GdUefPjnlGlfvFPPacq92yqeXJg6a/lGv16GL/6h6gKgahCVCGqCCGEJA+VmxBCCEmRjoqqXc5rNarqo5WTZMfaV8WVVIVF1R71EPUa/7Y/T1TpXwA0b/tLI6paZd+Se/O/BpjgV/9yksoXVeoh6s70u6eqB6qbv/43BVGFqAqBqEJUIaoIIYQkD5WbEEIISZGOiiofJaz2bPQlVRFR5eAKKlNUOaiHqWt8UeWyT4sqJah8XFGVp1Xf9hd4RlUY87Y/jSepcqJK4UsqnzdcEFUOiCpEFaIKUUUIIaSUULkJIYSQFOksUaVAVCGqEFWIKkQVoooQQkgwVG5CCCEkRRBViCpEFaIKUYWoIoQQUr5QuQkhhJAUQVQhqhBViCpEFaKKEEJI+ULlJoQQQlIEUYWoQlQhqhBViCpCCCHlC5WbEEIISRFEFaIKUYWoQlQhqgghhJQvVG5CCCEkRRBViCpEFaIKUYWoIoQQUr5QuQkhhJAUQVQhqhBViCpEFaKKEEJI+ULlJoQQQlIEUYWoQlQhqhBViCpCCCHlC5WbEEIISRFEFaIKUYWoQlQhqgghhJQvVG5CCCEkRRBViCpEFaIKUYWoIoQQUr5QuQkhhJAUQVQhqhBViCpEFaKKEEJI+ULlJoQQQlIEUYWoQlQhqhBViCpCCCHlC5WbEEIISRFEFaIKUYWoQlQhqgghhJQvVG5CCCEkRRBViCpEFaIKUYWoIoQQUr5QuQkhhJAUQVQhqhBViCpEFaKKEEJI+ULlJoQQQlIEUYWoQlQhqhBViCpCCCHlC5WbEEIISRFEFaIKUYWoQlQhqgghhJQvVG5CCCEkRRBViCpEFaIKUYWoIoQQUr5QuQkhhJAUQVQhqhBViCpEFaKKEEJI+ULlJoQQQlIEUYWoQlQhqhBViCpCCCHlC5WbEEIISRHVEfrqq6/k448/BgCAKuHw4cOIKkIIyUio3IQQQkiKqI7QuXPn5MAnCwEAoEo4e/YsoooQQjISKjchhBCSIqojdOHCBePWPwAAqDSqLiOqCCEkG6FyE0IIISmCqAIAqD4QVYQQkp1QuQkhhJAUQVQBAFQfiCpCCMlOqNyEEEJIiiCqAACqD0QVIYRkJ1RuQgghJEUQVQAA1QeiihBCshMqNyGEEJIiiCoAgOoDUUXM7N69WzZs2AAAZWT79u3eX1znh8pNCCGEpAiiCgCg+kBU9ewcPHhQXn75Zenfv7/+HNx6660ycOBAACgjd955Z+7v7fnnn9eCuLNC5SaEEEJSBFEFAFB9IKp6Zk6ePCkTJ07UHeUpU6bItq0fyYmje+TogQ0eGy1skqMHN8mxAJstfCTHDoXZojke5vOPY9ga5Iut8tUX2yx8EuRLxacRTny5PchhRbuFHXmOuJw88pmFnXmO+uyKcOro7jzHfPaE2Bvk+F45fXyfhf1BvlIciOFgjjMnTA7F8LmcORnmiwhnT34pZ0+FORziiMvpPOdOH7VwzOWMyfEI58985XLW5ISFk3L+XJAL505ZOC0Xzts4E+Ci4oLirIVzQS4qzuf4OseFIF8rLmouOq937dolTU1N+u9w+PDhcuTIEe8vtPRQuQkhhJAUqQZRNfPmaEes/0T7snbGyPAra6T20TGWeQAA3Q9EVc+LGr1x3333yauvvipfHTskn+94S3ZvnO7QmGPPxhmyZ5NipkGT7NncJHs3zzJolr0fKWbn2PfRHNm3RdFi0Cr7Pm6V/Zq5eba+ZvC6HFBsU8wzeEMOfPKGHPxkvsECOfip4k3NoU8XumxXLPJY7NK+WD5vb/NY4rJDsVTzxY5lLp8p3vJ4W77Y6fLlzuUeK+TLXT7vaA7velcO7/ZZ6bFKDu9xObLnPY/VcmSvz/uao3vXyNF9ig8M1srR/Wvl2P4PDdbJsQOK9TmOH9ggxw8qNhpskuOHfDbn+Orzjwy2uHyh+Nhgq3z15VY58eU2g0/kxGHFpzlOHt4uJ48o2g12yMmjO+TU0c88drocU+zSnD622+W4Yo+HEnIOX+2VM1/t89jvckJxQHP2xEGXk4pDHp/L2VMu50594fGlnDvtc1hz/vQROX/G56jHMTl/1uXC2eN5zn1lcEIuKs4rThqckosXTsnXF04bnJGvLyrO5rh08Zxc+lpx3uCCXLp0Qf586aLB1860r7W0mj9/vhZWW7Zs8f5SSwuVmxBCCEmRqhFVNz+Unza/n9Q6nbHksgpRBQDZAlHVs6Kej3PvvffKjh075MiBjVpG7d6gJBWiClGFqKqEqPrznxWXtLA6duyYvjVwzZo13l9s+lC5CSGEkBTpLFH16Zop1ulJiIgqh5WPfltqruwnK41p8SCqACBbIKp6TtTzqNRIqoMHdmu5s3vDNA9EFaIKUVVpUeXLqjNnzmiZXOoD16nchBBCSIp0hqha99Z4uervviO33XSddX4xkogq/droqAWllEVUeaOycuuE2gcAqGYQVT0nSlJt3LhRvtj1riGpEFWIKkRVtYgqzaVLsm/fPrnuuuvkkUce8f56k4fKTQghhKRIR0WVL6m+9a1vyfU/rrUuUwybqDKn6X/X/Fhm5uY/JP2dzlpeTEVF1cpHfyzD5weXT/fcKwCAyoGo6hmZPXu2jBs3Tk4c2S27NryKqEJUIaqqVFQ5/6Mftq4esn755ZfLX/3VX3l/xclC5SaEEEJSpCOiypRUnSqqJv7Y6Yx92xVNemSU929jHXcZX14Vv/VPbaPQfACAagJRlf2cP39efvGLX8jBA3u1SEJUIaoQVeUXVV87qNv4zp11XqcUVc7/6HXV3+03vvENXY8ffPBB9w+6SKjchBBCSIqUKqrCkqrDoirQETPEVEBIGQQEll1UhdtFVAFAdwFRlf2oBzM/8MADcmT/Buc9fxVRhahCVJVZVPmS6uTJk3Lq1ClPVqUTVZcuXZLRo0fLN7/5zVxNfuyxx9w/6gKhchNCCCEpUoqoskmqDouquGdIlSSq3Fv9zDYZUQUA3QlEVfYzZswYaW1tlQOfLHDec0QVogpRVU5RddHh9OnTsnPnThk8eLC88MILcuLECVdWpRBVKu+tWim1tbWp6jKVmxBCCEmRUkTVDdf/fURSlU1UFbr1L/ew9ZCossgtRBUAdCcQVdlPfX29rFu3znvPEVWIKkRVuUTVBeffvqRSt+r94z/+o9xwww3y4osvyvHjx+WsN7Iqqaja89lm+eEPfxioy8WeWUXlJoQQQlKkFFE1a8ojMugPt0VY0DTUunwxCooqBz3f+AXA6MPRQ6IqLLe0uEJUAUD3AVGV/ejnUx086L3n6UTVqkGXhz4Xl8vIRV0hqobK3d42757aeaKq9Q7zWFyuHTajjKLqebnP2859sxBVWRZV5kgqJan69Okjzz77rB5VdeONN8rEiRPl6NGjemRVUlF14shOa30uFCo3IYQQkiKliKrOppioUuhljC8DwV/wiz6jauWj384v77TNiCoA6E4gqrKfH/3oR/p5Oe57nlRUPSJ3WT4TPrWPj+9momqajPl+9DgUiCpEVUdF1cWLwZFUSlK98sorcujQIdm6dauWVT//+c+1rDp82Nmvc+oXAdXIqsKi6vgXn1jr82WXXabn20LlJoQQQlKkGkQVAAAEQVRlP+r9vXjxoveeJxNVTbf4n4PLZcTC/K1/Tbfmp7sjq7qJqJp2o7ffNXLPNOPWvxW/k3vKKqq49S/rourihTNaBIcl1ZYtW+Thhx/Wo6o2b94sQ4YM0aMbJ02aJF9+6eyjvg3wYkmiShEXKjchhBCSIogqAIDqA1GV/aQWVQvvlFrvM1A7aJwnqfxnVD2aH2l16wAZ2cv7922P50TV6ieu8D5DvWWWJ6pm3eYt5zHgZV9UDZUB/rRXPDl11X2yxiKq5vTLr+/yXRn9thJVL8vTV3nT7hieF1U5OXWjtMaJqtAzqlrv9Nrxl53hi6pn5F5v2r0zn3X/XdtX7q31lu0/Nieq1g//W2/9m+S1mBFVG0b+nbeMx4AJOVE1b4Ax3eHXzYiqahZV/q/7qVFTpqT63e9+J9dff7387Gc/k7Fjx8r69etl6NChcsstt0hzc7NeT42sQlQRQgghFQyiCgCg+kBUZT+pRdXk67zPgDmayhdVTTLLH1XVa4DMetx/htX1MssTVTkpddsTVknlo2WVIapyWEXVFBnty6gAN8icT9+UtUO/673uIy2eqGrxnkd1zZPT5PP2UXJPYL0bpTUkqsKSyufeGUFRlaP2D/La8P/qvf6FvOaJqtf6e/Pves56699rd3nzTTxRFZZUPr+ejaiqVlF19uwZOXXqlEyePFmmTp0qH330kZZUv/zlL/W00aNHS9++fbWsWrt2rZ7W1tamH6x+/jyiihBCCKloEFUAANUHoir7SSuqVg7yn714nTTlJJVdVK1eNCA3+uquKUpUPZ4fIfVSi+xru8ebf4WMXOLe+vf+YG/E1e1DgqJKCarEt/49lZ8/Td36N9x4rUTVSO/1d+Xp5d7D1JfXy7XeMjm+/zv5UImqFb/35n1Pxrzj3vr34VOehLrzmaCoqn1A1vm3/q38Q67Ne5uUqHouP/KqyfKMqtV/zC3/g5GviXvr3+vy7MgJcnT1w/IDPe/vZOz77m1/m0Z5I6/ufhFRVcXPqFKjo9QzqkxJNWfOHD1937598vTTT8tNN90k48aN06/V9Avnz5f8jCpFXKjchBBCSIogqgAAqg9EVfaTVlSlGVG1evOE3O1/tU9MkL1Trvfm3S2r1W1/L/X22rLQ6155P3DrX+FnVH0w9DvB9f35WlQtlBb/1sA7RsqhaX3cf181UNYav/r3efuSqLC6c4x8Mf1/5l+H+f4Dsi5w65/5jKrZ8ox3+9+1w+fI4aZfuOvUPiTrbQ9Tn3WTO7/mlzIv/IyqWb/y5lm45lHZhKiqSlF18XxeUtXX1wcklRptpZ5FtXfvXi2rfvWrX8lzzz2nX/OMKkIIIaQKgqgCAKg+EFXZT2pRlfAZVe4v/zXL6ie82/963S2zvOdTKWmlbvsLPK/K+jD1hKJq6j957dTINUNfsoyoWiiH3v6tXKOn9ZG7vdv+7p7m/+qfIaoUO5YYt/r9Txkz7Hvev38mrdaHqceJqndlvX/7X+2D8pr3fKprR7RYf/Vvw0jv+VW1f5KNIVG1Mffcql/JPB6m3m1ElRJS/jOq1KiplpYWPe3cuTNy6evzzvLntJTavXu3jBkzRu644w6eUUUIIYRUSxBVAADVB6Iq+0ktqjaOlRFX+p8Dc1TVczLCf3i6+at/i/3b/66QWj3/ChnZ5v3qnzGiqnbwizlR9f7gn8qoJclF1Rp/NFW/Ye6tf8t+40kpQ1SpUVWeoHK5UVqMX/27Vj+ryiKqvv97+dAYUXXtsJk5UfXhUz+TMe8WFlX52//+Vq7Vo6v+Vp5Z5f/qX4pb/4wRVT8Y9UZOVG0adbOMXYOoqtpnVJ05rZ9RNXPmzJykOn9OjZY6p0WVKat27dqll1uxYoV+RtWFC+cRVYQQQkglg6gCAKg+EFXZT3pR1Sh7Nj6S/3U/C3dNUZLKE1Uf5W//0+jb/jxRtaUhOC/HFaWJKgumqMrd8qdQtwAaospcx+TaYTPkix0zZMz3bfP/a3FRtTt/+5/Gu+3PKqoKPkz9dXnWbCfHlYiqKhZV6hlVavSUe6vfWTl39oxcuqgkVV5UaVl18byz3NncclpS8YwqQgghpLJBVAEAVB+IquynNFE1Q/ZsmiFN/vOocvxEZmlBZYoqdfuff4uff9ufL6pcIr/8px6knubWv8Cv/n1HRi+z3PqnyN3+p6YvzouqyK/+udwzPf+rf198ZvnlvzvHFL317/Bu4/Y/h2uHu7f9xYmqI3vfj8iqH4x83bsFcG30l/8GqAepI6qqWVR9ffGMnD9/Vo+k+vriWauouvT1BS2r1EPUXUl1EVFFCCGEVDqIKgCA6gNRlf10RFTln0/lP6OqyZBUeVG19yP1i38u+z5SkiooqvZtaZV91mdUvWZgiqp5BrZf/VsgBz9VvKnxRdXaod91P7/qIepKUuVEVfQZVZ/vWKoxRdUX+vlUtmdUKZSg8gmKKhf1q38KV1K5ouo9D19SuaJKcTT8MHVPVB3dv9Z4PhXPqOouokoJKp84UXXp0gVPUPkgqgghhJCKxhdVAABQXSCqsp2eIKpyv/jncfe0Ra6kQlQhqhBVhBBCCIkLogoAoDpBVGU7PU1UuZIKUYWoQlQRQgghpEiqVVSpnxQe9MIceWTCbOt8AICsg6jKdnqCqMo9o2q7AlGFqEJUEUIIISRBqlFUTZr5mvzb3y+Tf3n/cvnLge/IzSNbrMsBAGQZRFW2g6hCVCGqEFWEEEIIsaSaRNXCJW/J//2nN+Vf/OZt6fPUXHln5XtaWiGrAKAngqjKdhBViCpEFaKKEEIIIZZUg6j6cN16+X+HzJOa37wrVz46X15bsFg+2rIlB7IKAHoiiKpsB1GFqEJUIao6Jbt375YNGzYAAHQa27dv9yoMIZVJJUXVnj17pP+YFj2C6v/3h0UyeeZrAUFl0nFZ1S4Ndc6XiLoGabfOD9JWH/ryUd9mXa47o46xrqHdOq8w7rksbd20dOW2AKoLRFW2g6hCVCGqEFUl5eDBg/Lyyy9L//799Y7ceuutMnDgQACATuPOO+/M1Zfnn39eC3FCujLq82frIJUT/0Hp/5/fvi3/39+9LUMmzrbKqTBKVv3Fb5fLwLFzrO12Dp7QComptoZkgqs7gagCqG7SdoRI94p6fxFViCpEFaIqcdQX6IkTJ+qO45QpU2Tb1o/kxNHdctT54EXZGMMmOep8KBXHAmyO4SOXQza25Dge5vOPi7A1ivrAf7Ethk+iOH8MLp9aOfHl9iDOH4pLeww7oqg/pCOfFWBnEOePzGWXlVPO+xXB+SM8dWxPDHujOH+gitPH98WwP4jzx+tyoAAHA5xx/riDHCrA53LG+eOP8oWVsye/dHGKQ5DDMRxxcQpHmHOnj8ZwTM45RSXKcSvnz3zlctbGiRhOyvlzUS6cOxXDaZfzcZwJcNHHKWYXL5wtwLkgTqFzOZ/j6wAXojiF8OuvL0bQX1J27ZKmpiZdd4YPHy5HjhzxKhIh5U1Xi6olby3PPSj9njFzZP2GDVYpFabljUVSO2ie/Jv6FXLPM2UUVe0NUldTJw3tlnkZA1EFUN0gqrKdzhdVg+Sump/ILEQVogpRlT1RpUYz3HffffLqq6/KV8cOOX8kb7lFIlco4oqFvWC4RSNkt+MKh7V45AtI8SISLiSWYhJXUEJFJVpYzOLiFRinuAQLjFdkdIHJF5n4QuMVG6/g5IuNV3AsRSe+8MQVH68A5YqQW4ByRchaiPLFKL4gxRUlS2GKKU7RAlWoSOULVXyxshSsuKIVKVzh4pUvYLkipguYWcS8QuYUsWAhsxez+IJWqLDZi1t8gfOKnFfoLoQLXaTYfeUWO2vByxe9+MJnKX5xBdBaBM1C+LUz/5LzheWCzJ8/XwurLU7nnJByp6tF1a9Gtsq/uH+5NL/+plVIhVny1gq5yVlHia2Hnp+tbw8c8VIpt/9ZhEdbfeDLRX2bmt4m9bl/R4nIHS22gssHlvHm57YTGKmV3ye1Tm6ZwO2JSZZxCcyvqZe2QvOd/QjsZxjLceVJvk/tDXX5+Q627RVeBlEFPRdEVbaTXlSNlRFXXi4jFub7nasGXe58JpxpixBViCpElb2/lgFRpZ4Xc++998qOHTvkyIGNzh//jHyRQFR5hQVR5RYkRBWiqvNFlV8ILznTjh07pm8NXLNmjVehCClPulpUDZ88R/77k6/Jv39wiZZQNjmlWPneaqkf1yx/+dsVcsvoVnnv/TX6lvwZrfM7R1SFR045rxs8KeOLE6scUXLLFDKe7Mov627HFzztDfXG6KywBHOXVetHpuWEVpJlPAllvNbHYOynnl9wv8MUEnYp9ikgzNw2zW0WX8ZtN34/AbILoirb6bComnyd1FzZX1YxoirSZ0RUeX0+RFW0r9bdRJX68qtGUh3cv1sOOH9ckSKBqPIKC6LKLUiIKkRV+USV5tIlOXPmjJbnPHCdlDNdLaqUZGpseUPf9meTVepWwGGTZsu/e2CZ/MPg12XhkmX6Gu0zo1NFVXTUUQ5jJFRAkoQElxIt9fWGvCrSrlo+LGFMuaPREslvI8Ey1m0q4ePtZ2iffYL7koak+2S5hTLtMogq6MEgqrKdDokqJalqrpMmo98ZFlWrn1CjrfzPzfUyy+hrzrrN+EzdPiTXx3x/8BXGOj+VZkRVoG9o7xciqgr356J9OURViihJtXHjRudD/669SCCqvMKCqEJUIaq6QlQ5/6P/u2/fPrnuuuvkkUce8aoVIZ2bSoiqGa3z9Wc7LKsmzpgr//HhhfIf/rhYyyy1jCmpOlVU+bLF+VJRUIJoaeIsl5My7nruSCIlg5RQ8f/rLR8SOO6ooTzhfYhsPyBwEizj76MFvZ8B8ZOno6Kq+D5Ft5l6mbhtAfQAEFXZTsmianJ/qc1JqjhRNUFG3jZAVnt9TSWmap+Y4PQrnb7mS72lptc9stroZ7p9zIky6vZ75X2vj9l8e41cM2RSqH8Z6lsiqmL6hKH+IKIq0JdDVCXM7NmzZdy4cXLiyO74IoGo8goLogpRhajqKlGliqF62Lp6yPrll18uf/VXf+UWLUI6MZUSVUo6mbJKPShd/QLgmJdbZM+ePRFBpVjzwVp5dMJsGTO11dp2YeKEh3urmfpyYb/NzSEgTrzb6pSMykkpt221flD+eG0b4so2osoufHyBk2CZOOHj06Wiqsg+mecSUQVQEERVtlOaqHI/A7WDxkX6nQVv/ZtyvdTc9oTTr3T6mm33SG1Nb5kVEVWhPuYrP5Wa24eG+pehviWiKqZPGOoPIqoCfTlEVYKcP39efvGLX8jBA3v1HzGiClFlFiNEFaKqM0SV+sU/dRvfuXNnQ0XQLIRxxfDPel1Vp77xjW/oAvjggw/q+kVIZ6SrRdXoKS0yccZrOfmkZNU/DZsrN49skY8/3hoQUz5qtNXz0+fqB7E3NM7V69jaLkxh4ZGTT5Z5vnDKiSwlWOoapM1Zx5+m1q9raHO2kRdaNhGTSFR57bvPk0qwTEDsWLDO74gA6sA+pV2mQ/sJ0L1BVGU7pYkqdevfI3KX8zm4a3IRUaXklPnZ8UWV6l+qUVV6em+ZZfYxX/5pcB1EVaBvaO8XIqoK9+eifTlEVYKoBxU/8MADcmT/BrdAIKpiCotZXBBViCpEVVJR9fXF81o0nTx5Uk6dOmWRVX4hjCuGf3aK5yUZPXq0fPOb38wVwccee0zXMEI6mq4WVWpU1C2jWqR1/qKciHpy4pzcKCuTXbt2ydTZ86Tf0y16mc0fbbG2mYyQ8GirF3MElRJIWlQpeRISVu7D1U3h5I/CMiSLli7OtJxg8acZyygB4yyTly7uPgXa8dpOt4y3/+a21Xr1QdljznePqZAACsm5AKXuU7TN4su424rfT4DsgqjKdkoXVU6/c6G6/c+XVRZRpSRVr/ytf4ERVWY/U98GqG73c/qYSlLpf3t9TEZURfqG9n4hoqpwfy7al0NUJciYMWOktbXV+SNbgKhCVBkgqhBV+aJXqqhSkur06dOyc+dOGTx4sLzwwgty4sSJkKzyC2FcMXQL4nurVkptbW2iQkhImnS1qFKseu/9gKwKi6r9+/freQOebZEHnm+Wd1a+Z20nHSHh4Ysln5wscUWJ+bcWFCkucYIlLFR8IaSpb9Pr5Zfx90mNxPKWibSRZJn8cv58RVAyBeer9YP7EiYqlfIk3SfvPHnzFbb2Ci/jbytuPwGyC6Iq2+mQqFL9TS2r1OuoqFr9+OVSc9ugXF9TPzzdJqra7pVaT1TpB6nrB6u7fUz1jCpEVbBvaO8XIqoK9+eifTlEVYKoX+pZt25dvkAgqmIKi1lcEFXxRQlRhahyC+DFC+dykkrdqveP//iPcsMNN8iLL74ox48fl3NnneWdwphUVO35bLP88Ic/DBRCnllFOiOVEFUKU1aZomrJW8vln5+fLfc80yLzFy3VIxFt62eDJBIGUQPQU0FUZTsdFlUK/et/NXLXlNCIKvUw9V75z8xdtxkjqnK3/SmukJFL/D7mRBllrDPgdkZUhfuG9n4hoqpwfy7al0NUJYh+PpW6vSCxqHpWhnsPsdNc2V9WhUWVVzBcLpeRi5KIqidkgLfOgJdKEFVqaGZumx5X3SdrwsWkG4qq1v6h43K4dvjsUOHpTFE1Qe7ztnNfM6IKUZVeVH3tYEqqPn36yLPPPqtHVd14440yceJEOXr0qJZVSUXViSM7rQWRkI6mUqJK4cuq/mNa5JlXWmXIxNn6dWPrfP03YlsnWyCqACAeRFW2k15UmYMkvH6nJmZwhG1gRGRQRJLBEIgqRFW0b4eoSlefU1fuH/3oR/r5MSWLKj3cMlgwmm4Nzi+vqJoko64yt2fQ2aLq7YFyjW53oKztbFH17j/Ltart7z8g63KiapaMqTWOxwBRZStWiKpqEFU2SfXKK6/IoUOHZOvWrVpW/fznP9ey6vBh51jUyCpVEIuIqriCeNlll+n5hJSaSooqhS+r/Aelq1/8sy2XTRBVABAPoirbQVQhqor3ARFVwb5bXL8tg6IqUiASi6pvS23g50H9gvGo/hWGmisv1w+4Sy6qnKJRwq1/+t5h76RcM2SSUUgmyejbO1dUrR36XXdbZRBVHz71X922TVE1o2/u2O6dadz6t/IPcm9ZRVW+GHHrH6IqjahSkkqJ77Ck2rJlizz88MN6VNXmzZtlyJAhejTnpEmT5MsvneM658uq9KJKQUhHoj5Xtg5SV7J9+3b9i3+2eQAAPRWu+9lOpB+KqAr0IRFV+f6fve+HqAr32ez9tR4nqmqk/y3eLX652/+cQuHd9ld7608iompWYKSV4goZudgvHOERVebrFwP3GA942S8iQ3LLuJIqXEjyxWTNkO/k1tdcdb98kCsoT8nd3vS7p70so40RWndPcwtLyx35aT7XPDktV2BaQ/Pvme4Xmaflnty0GTLm+8YyjW6xab0zP83n2qdmxYuqUOF5LXRr4L1NfvF5Pj8yqmm8++/aX8p9/iituybkCtHGkX/nrf8rmRczomrTKH8Zj7sn5orSG3cb0x1+PQdR1RNFlf/rfmrUlCmpfve738n1118vP/vZz2Ts2LGyfv16GTp0qNxyyy3S3Nys1zt//lxMMURUkfJGfa5sHSQAAKgsXPeznUg/FFGFqEJUIar8RApEGlE1+WF39FTu9r/8bX93DborJKrGB2RTnutlVhFRFeWn0qwKiPoJUf36OzJqqa2QuMVktjHqKsgNMickqqL0kZYioiosqXzumR4UVVF+Jq2FRNXOZ+XewPS+0hoqPGFJ5XNfU1BU5aj9k7yWk1K/lHleIZo3wJs/YILzOiqqcvNNPFE1LySpfFxZ5RQkRFWRglaosNmLW7WKKnUbn3rw8+TJk2Xq1Kny0UcfaUn1y1/+Uk8bPXq09O3bV8uqtWvX6mltbW1y1lkPUUUqFfW5snWQAACgsnDdz3Yi/VBEFaIKUYWo8hMpEKlEVaM03eL+2739z7vtr+Y6aVoYFlVG0dCFQ/0qg7vuXVOKiKrbhri3/r3s/0LDFTJqyVz3J0T1659Ks7WQOCz9tftcKYe7p3q3/i27PzftmqEvBUVVv+FuYZl2g9f2d+Xpt93iYr31b/lA99lSNd+TMcvdIvPhsO+5y935dFBU3TnGLTSNP3Nfq3XecQqNU3Cst/4pVj7gtW9Q+wdZr4rOyj948/5WnlnpFp/1I/7WXeau54OiqvaPssEvQKv/lGvzvlmqCBliapYqRCFR9f4j8gPv9Q9GzfcK0nwZO3qiHFvzqDfvShn7gVuYNo++Ui9bc/dktzAhqooUtEKFzV7cqlVUqeKnRkepZ1SZkmrOnDl6+r59++Tpp5+Wm266ScaNG6dfq+kXLpwvUAwRVaS8UZ8rWwcJAAAqC9f9bCfSD0VUIaoQVYgqP5ECkVJU5X7hT93+5//71kdlj0VUrX78cnd+iGKiasBLbgHZZ9zqp2//SzKiauo/uctc9WtZo4qJV1Dm9HPbqek3LCCq7p7mFpWDnw43phUQVdNudKfZ+P7v5ENDVN0z3S80Y/LTGouIKr/o5KSUR/+xcrjpF/nXYWofkg2BW//MAvSaPOPd/veDka/J0Vm/9NZ5WDbqQhQSVc03u/NrbpZ54WdUzfbnWbhmkGxGVOWKWU8QVV9fcB+kriRVfX19QFKpUVPqWVR79+7VsupXv/qVPPfcc/o1z6gilYz6XNk6SAAAUFm47mc7kX4oogpRhahCVPmJFIi0omrjI7nb//yHq9812SkYYVE15Sd6nqL28QlOsUg+oipWVC25Nz8yKuYZVblnU5VJVK190ptWc6O0+kVGFxi/yHSSqPKKTmvuVr9fyDPDvXWcf79mLT5xoup92eDf/lf7J5nn/fsHI1/3ClFQVOWeTXXNI7IpJKo2+aOnam6RN3RRshQmRFWRglaosNmLW7WKKiWk/GdUqVFTLS0tepoWUU4RvHjxvP737t27ZcyYMXLHHXfwjCpS8ajPla2DVGnebFsmY6e2WucBAPQEuO5nO5F+KKLK6EMiqsz+n73vh6gK99ns/bUeK6pm5J5L5XKdNKmCERJVudFUtw5yC8fiAd78DoiqjyfKKOPB58Ff/Rsqd191n6wpcuvf3VNVQemcEVXXPjktV2A+HHajjFnRQVE1o69cO3xWoOjkRJW6/c8YUXXt8Dm54rN+xE3yzKrCokrd/ufesvd38gM9uurv5NnVfiFKceufMaLqB6PfzBWmzaNvkbEfIKp6mqg6e/aMfkbVzJkzI5LKL4JfX7ygp+3atUsvt2LFCj3ayr39D1FFuj7qc2XrIFWK9Rs2SN0Tr0nNb96Vv/jtcrl5ZIt1OQCArMN1P9uJ9EMRVYgqRBWiyk+kQJQgqnK3/ynUbX+FRJWF0kWVw9L7ctIpghJVThGJfZh67pf/komqQ9P6BNZ3H6Y+LfBLfnm+l0pUfTHDf26VS/hX/8JcO3y2U2xm527hC/K3xUXV3tfkWXPd3G1/FlHlFKL4h6nPl7HXWObpZ1YhqnqaqFLFT0ko81a/XAE0iqAvq/zleEYVqWTU58rWQepq9u8/IP2enqPl1F8/tEReaJwrk2a+Jn858B1kFQD0SLjuZzuRfiiiClGFqEJU+YkUiFJE1Sb/9j/vtj+LqAr+6p8zbXEn3PpnFJFmi4xSI6z8QhKRVfqWP7+gJBRVTmExf/3P/9U/VVwiv/x352ivyCQUVU6xMX/9z/6rfy73zgwWnsgv/931nFd4Comq92Vj7tf/zNv+7KLKJqt+MFqNrnKL0hvhX/7TD1JHVPVEUaU4f979Fb9AAQwVwUtfX5QL5887X0R9SYWoIpWJ+lzZOkhdxbFjx+SxF2bLv6p/S/5N/Qp5pGG2fLRlSw5kFQD0VLjuZzuRfiiiClGFqEJU+YkUiKKiKq5Y2AuGtWjEFQ5r8cgXkOJFJFxILMUkrqCEikq0sJjFxSsw6ta/QIHxiowuMPkiE19ovGLjFZx8sfEKjqXoxBeeuOLjFaBcEcqLKl2ErIUoX4ziC1JcUbIUJkRVkYJWqLDZi1u1iyprAbQWQbMQxhVDRBUpb9TnytZB6gomzpgr//b3y7SIumVUi6z9cF1AUlW/rGqXhjrn77CuQdqt84vQVh/5e65vsyzXjWirDx5PTX2bdbmO08Fz3wHcY6yThnb7fEWSZYLwWQrTEz5LxeC6n+1E+qGIqkAfElGV7//Z+36IqnCfzd5fQ1QZxSJfMKxFA1EVLDaIKoO4IpUvVIgqRFXSgkhIkqjPla2DVE7mL1oq//mPi/Vtfj8cMk+WvLXCKqh8Nm3aLAPGtOjnVk2b84a1ze6G2wmvlzZzenuD1De0B5brMEpglKMDHmnX6+yHZEJbQ/V1/jtKTqDEiRPnfazT9TmNqCodPkvZhet+thPphyKqAn1IRFW+/2fv+yGqwn02e38NUWUUi3zBsBYNRFWw2CCqDOKKVL5QIaoQVUkLIiFJoj5Xtg5SuRg/zRVOf/OnN6WxZb5VTJk0zV0gVz72hvy7B5bKT5+aK3PmLbS2251ob6jrutEbXSUXtJzpGjFTaZQYqquvd443JIc83Pe3rkvOB5+lbMN1P9uJ9EMRVYE+JKIq3/+z9/0QVeE+m72/hqgyikW+YFiLBqIqWGwQVQZxRSpfqBBViKqkBZGQJFGfK1sHqVw8PGGOvt1PPThdjZSyySnFm23LpM9Tc+Vf3r9cHpkwW7Zu3SrjXm2V1vmLrO0Wxx2lUdfQ5o7W0H8/Xmc4NwJGER2Zkp/nEBjl4bfpj1zJvzZvW8rPV7RJvTMtyW1ZWkL42420U3xb5nSNse/BeeYxl9pusuMqvl3//amTOvXf8KglJTX0euFz7xI+Z+b+xG87hPeexx2Lasffz/D23fPgfK7aLLKFz5KmeLsZ+ix1EK772U6kH4qoCvQhEVX5/p+974eoCvfZ7P01RJVRLPIFw1o0EFXBYoOoMogrUvlChahCVCUtiIQkifpc2TpI5WLESy0yYdpc+Q9/XGyVVSvfWy2/fnaO/OVvVzjz3edWnThxwtpWOtzOqHk7ljsaRXVi/dEc0Q5re0O9IRvCHejw8v42jGV0Z9gQFlpWFO/Yuh1hczl326m25U8LjYLRbRuddvc8BM9BKe36Hftwh98n2XaN7ejtBs+VasNtP3zu/e0byzvnusE7hsLbDlNYlOT2wXIOctP0+xw8Z3yWHBK2m53PUsfgup/tRPqhiKpAHxJRle//2ft+iKpwn83eX0NUGcUiXzCsRQNRFSw2iCqDuCKVL1SIKkRV0oJISJKoz5Wtg1QulKia0Tpf1nywNiCrlJAaMnG2/uW/fxj8uixcskwOHjwop06dku3bt8vIkSOlb9++MnPmTDlz5oy17cJEO6P+CBdTSBTrdOY7t+p1uE2vg2x0Yv1pwY56EblgkRyawLoJtuWvYx6PVW4oceFvr8R2fbxzqmpT9Fyn3W5Y5kSXz2/DnBei6LbTkf8MhPfPOE9x76EBnyWPHvxZKgbX/Wwn0g9FVAX6kIiqfP/P3vdDVIX7bPb+GqLKKBb5gmEtGoiqYLFBVBnEFal8oUJUIaqSFkRCkkR9rmwdpHLhiyoloXxZ1fvJufLvH1yi/93Y8obs27dPzz98+LBe5/7779dMnz5devXqJQsWLIi0W5xwZ1Rh6WBaOs16BIXxN1dMLgS3EZqWRC7ELROQDgm2pQgfj247eDw+bie+xHbD+NvxZUFJ2w2NXglsM7S8bj/mvBbddjpMwaTFpr9/psQIvFfBdc3t5483fPwJ3odCx+wTtwyfpar4LBWD6362E+mHIqoCfUhEVb7/Z+/7IarCfTZ7fw1RZRSLfMGwFg1EVbDYIKoM4opUvlAhqhBVSQsiIUmiPle2DlK5UKJKySglohRL314hf/3gUhk2eY7s2bMnN11x/Phx2bZtm1x22WVaXqn1x48fLwMHDoy0Wxxb57WYqFLznb8zv3PrYEqKaJu2bYSmaUFQpFMb11HuNLlQSG6U2K4Nc39L2q6DsZ2C575Q+0W3nY7gfuQ/Q4HpEVHFZyl2WrhdGxn9LBWD6362E+mHIqoCfUhEVb7/Z+/7IarCfTZ7fw1RZRSLfMGwFg1EVbDYIKoM4opUvlAhqhBVSQsiIUmiPle2DlK5mLdwifQf0yKr3/9Ayyj1kPRfjWzV/zUl1dGjR/Xy6lY/JapWrVqlGTx4sL4FcPfu3ZG2C2PrvBYRVZZOaYflgoNqo2DHPCI5PMx9S7it4DoOcW3nKLFdK66c0SKlpO0q/PdI/dd8L0LLF2q/6LbTEfwM+K8bgp+l8Db5LMVP68GfpWJw3c92Iv1QRFWgD4moyvf/7H0/RFW4z2bvryGqvELxqNxVc500IapyRQZRZS9O0QJVqEjlCxWiClGVtCASkiTqc2XrIJWTxtb5OVllE1Vq+s6dO6W5uVlLKhtXX321te14bJ1Xv+NqLGd2msOdUi0bzDbCbdq2Ebdd5+833Dl3tlfvLRcVEEZHXb9OuC29z1FBEmzbWa/ef11iu+pcGaOFFOEHUqffrotqp67OaSvQfnR53X5onwIPwI7ddpjwuQ6i2grsp/6cOO2b+xf+7IRf81nKT8v0Z6ljcN3PdiL9UERVoA+JqMr3/+x9P0RVuM9m76/1GFH1rAy/8tsyfGG+WKwadLmzU5fLiIWIKkQVogpRhagi3Svqc2XrIJUbX1YtWvpWTlSpX/0b9+pc/XrLxx/LpEmTpF+/frJ3794AixYt0rLK1m48ts6r6rAXEFUObgfZ+3tzOreqk5pvI9ymbRu2aS5uZ9jEIgGM+UFxknRb7jTdRq5zbkyLtF1qu54wMQl05kPreBTeroeWPEmOP3zOzPe20LbDpBRVXtuB5cNiyoHPUuFp+Xaz9FnqGFz3s51IPxRRFehDIqry/T973w9RFe6z2ftrPVVUTb5Oaq7sL6sYUZUvMogqA6cgIaqKFLRChc1e3BBVyQoiIUmiPle2DlJXoGTVLaNatJiaMH2u9Hu6RYZPniMff7xVz+9cUQUA0L3gup/tRPqhiKpAHxJRle//2ft+iKpwn83eX+uJokpJKi2lzIIRFFWrHlejrfwd/4nMMkTVrNuMg7rtiVzxWP3EFcY6vWUWoipXdBBViCpElVE3PAjpSNTnytZB6iqUrFKi6oHnm+Wdle8F5iGqAKAnw3U/24n0QxFVgT4koirf/7P3/RBV4T6bvb/W00TV5DulVgmpXLGwiarnZMStd8lqr2DMurVGah+f4BaOKddLTa+7ZbVZOHTxmCAjb7tHVnvFQ8ms2ideRFQhqhwQVYiqdAWRkCRRnytbB6kr2b59u5w6dSoyXYmqPn36aDFlMnHiREQVAGQervvZTqQfiqgK9CERVfn+n73vh6gK99ns/bUeJarcnagdNNYoFjZRFSoaU34iNbcOcgvH4gFSW3O9zIqIqlDxeKm31Nw2BFGFqHJAVCGq0hVEQpJEfa5sHaRqYMGCBVpI2ejdu7d1HQCArMB1P9tR7+/Zs2dlX/tKh1Wa/QHek/07wqy28L7s/+x9ORBgjYUP5MDOMGs1B8Ps+jCGdUF2r5NDu9db2BBkj2JjhM/3bAqyV7HZwkd59rl8sW+LhY/z7PfZGuHL/dvyHPD5JMSnQQ5+KocPbrfQHuSQYkcMn+U48rnJzhh2yZEvwuyOcPSLPXL0yzB7Q+xzOZzn2OH9Fg64HDE5GOH4kUMuR00+t/CFHD8W5KtjX1o4LF8dt3EkwAnFV4qjFo4FOaE4nuNkjq+CnFScsHAyxynFKcUp5/zsTV2fu0hUqVv/Hpb+zo7cNbmIqFJyytx5X1Qpw61GVenpSlgZokrJKXMdRBWiClGFqEJUkTJFfa5sHSQAAKgsXPezHfX+qk7v/t0fA0A34vjx46nrcxeKqkbZvVDd/mfKqpCoUpKqV/7Wv8CIKnMoZu42QCWp1L/zt/4xogpRhahCVKkgqki5oj5Xtg4SAABUFq772Y5//XX7oQDQXSilPnetqFL3CS/sL7U1l8uIhVFRpR+kfuujrqRyUM+osoqqxXdLrSeq9IPU1YPVPVGlH7iOqEJUIaoQVYgqUqb4X5QBAKC64Lqf7fjX33AnGACqm1Lqc9eLKvWMKv3rf2pkVfjWv+dkRK/8Tt91qzGiKnfbn+IKGbnYv/Vvgow01hlwGyOqEFWIKkQVooqUL/4XZQAAqC647mc7/vU33AkGgOqmlPrcBaJKYfvlBX9ElY/3jCrbLzCER1Q5xD5MXeNKKkQVogpRhahKUxAJSRL/i3K18WbbMhk7tdU6DwCgJ8B1P9vxr7/hTjAAVDel1GdEFaIKUYWockFUEZIo/hflamH9hg1S98RrUvObd+Uvfrtcbh7ZYl0OACDrcN3Pdvzrb7gTDADVTSn1GVGFqEJUIapcEFWEJIr/RbnS7N9/QPo9PUfLqb9+aIm80DhXJs18Tf5y4DvIKgDokXDdz3b862+4EwwA1U0p9RlRhahCVCGqXBBVhCSK/0W5Uhw7dkwee2G2/Kv6t+Tf1K+QRxpmy0dbtuRAVgFAT4XrfrbjX3/DnWAAqG5Kqc+IKkQVogpR5YKoIiRR/C/KlWDijLnyb3+/TIuoW0a1yNoP1wUkVfeXVe3SUFcjdQ3tlnml0VYfqgH1bdblOo677zV1DdJunV9+IsdaUy9tluU6D94vqC647mc7/vU33AkGgOqmlPqMqEJUIaoQVS6IKkISxf+i3JXMX7RU/vMfF+vb/H44ZJ4seWuFVVD5bNq0WQaMadHPrZo25w1rm9VJZ4oPT0SEREdbQxbFRJvUq/oWli5t9brm1bcZ0zoV3i+oLrjuZzv+9TfcCe5KZt6sPlPfluHz7fMVSZYpJ2r7tY+Osc4DqASl1GdEFaIKUYWockFUEZIo/hflrmL8NFc4/c2f3pTGlvlWMWXSNHeBXPnYG/LvHlgqP31qrsyZt9DabnXSieKjvUHqauqkod0yL2PoUUhxI4O0rCrXyCreL6guuO5nO/71N9wJ7kpcCeVw80PW+bvm95Na/blLKaom/lhqruwnK23zUoKogmqjlPqMqEJUIaoQVS6IKkISxf+i3FU8PGGOvt1PPThdjZSyySnFm23LpM9Tc+Vf3r9cHpkwW7Zu3SrjXm2V1vmLrO0mpb2hLvD3Y0oJLUjCt2aFxEjwVi5TmPiSo80dSaMlhUV8aIFhtGFsz7p9vbzajjvKqNhoojT7V6f+G3u8dmkTPn/m/sRvO4R3DuzHUuw48/N5vxy64v2CisF1P9vxr7/hTnBaPl0zxTo9CVoC3fxjqa35scy0zF/56Lel5spvO/MRVQA+pdRnRBWiClGFqHJBVBGSKP4X5a5ixEstMmHaXPkPf1xslVUr31stv352jvzlb1c4893nVp04ccLaVlrcjrnZIXdlQq5zbxmto9bx54fFhJYAuZE/rihwhYe/flQetDfUG/NDMsOyfb0Nb5u+dAjLCJ/U+1fweG37rrZvLN/eIA3evhfedpgCEicneizzPHL7yPtlHG853y+oFFz3sx3/+hvuBKdh3Vvj5aq/+47cdtN11vnFcCXQQzL8SpsMekj6K0E1UY2qioqq3GgsTV50Bac7GKO1tPgy5tkEVGB9Z11TVOl54dFfetSXXbQBlINS6jOiClGFqEJUuSCqCEkU/4tyV6FE1YzW+bLmg7UBWaWE1JCJs/Uv//3D4Ndl4ZJlcvDgQTl16pRs375dRo4cKX379pWZM2fKmTNnrG0XRAsQU0p4BDr/YYGiXnvrWAWKMd8XC0bn3yYPwphiJbp9d/2A0NH74f7tB9otaf8KHG9k3815IYpuOwUWGRMmL1kK7D/vlzEvRGe+X1BWuO5nO/71N9wJToovqb71rW/J9T+utS5TjJwEso2A8qdpERQUVWFh5I68Mta3tOcKKFMoKREWlFV6mXA75jL6dVBK6W3H3boIUAZKqc+IKkQVogpR5YKoIiRR/C/KXYUvqpSE8mVV7yfnyr9/cIn+d2PLG7Jv3z49//Dhw3qd+++/XzN9+nTp1auXLFiwINJuUeIEiO605zvogZEmah1/lIleP/r3p3DFgU1y2MWH3oaxvjk/dvth/P0xlzXaNInfv0LbCy2v248RSEW3nYJC2/EwZRHvV4XfLygrXPezHf/6G+4EJ8GUVJ0iqjxp1H+iP2+MHmWlX4dFlXUEkzf6yl8mLKossiu3nN9WzDL5fVSvC+ynsQ5AOSmlPiOqEFWIKkSVC6KKkETxvyh3FUpUKRmlRJRi6dsr5K8fXCrDJs+RPXv25KYrjh8/Ltu2bZPLLrtMyyu1/vjx42XgwIGRdosS13EPiSqz828KkYIdf00S8eGOiMmJBofANhRqf2zbt2Hue0n75xB3vKnFR6FtpyE8aihMaH7c/pd0Pni/oLrgup/t+NffcCe4GGFJ1TmiKjQyyZRRYYHkjXKykRNGYVFlGQmlMduOWSYoqrxRV/5+hrcD0AWUUp8RVYgqRBWiygVRRUii+F+Uu4p5C5dI/zEtsvr9D7SMUg9J/9XIVv1fU1IdPXpUL69u9VOiatWqVZrBgwfrWwB3794dabsgYSHlY3T83Wn+LVDqv0ZnPm79HAnEh0UQROWGWsfffqHtKQxpU9L+KWKON7x8ofaLbjsd6pwE35M8kecu8X550yv3fkH54Lqf7fjX33AnuBA2SdVZosocFRWYbhVVFulkUkZRpdfx2o7MA+gCSqnPiCpEFaIKUeWCqCIkUfwvyl1JY+v8nKyyiSo1fefOndLc3KwllY2rr77a2nYhogLEEAfGckqG1NXVBUbSKKLrt0tDvf/aJhaKyAMtQqIyIrd9c1tq3dD+hKVN+v1zsR9vdHndfkgGBR7OHbvtMPbzHp4fbM8/3qhg4f2yL9957xdUCq772Y5//Q13ggtxw/V/H5FUnSeq/Nf9grfxhUVV+LWNsKiKW8dczrqMe2tfUEapaWq50O2GAF1EKfUZUYWoQlQhqlwQVYQkiv9FuavxZdWipW/lRJX61b9xr87Vr7d8/LFMmjRJ+vXrJ3v37g2waNEiLats7RbD7bznscoSLShs81wZYF/fJhai01xZ4a1f36b3JyIjrNv35I1JSOSk3z8P6/bsywfPnymNCm07TDFR5RJ+r8Kjm3LwfjnYl++c9wsqBdf9bMe//oY7wYWYNeURGfSH2yIsaBpqXb4Y1tFK6nNmPpzcIpDUesFb7sbI8JsLj6CKrmN/3pS5jP8rgeFRU2p67ZWhB7gDdBGl1GdEFaIKUYWockFUEZIo/hflSqBk1S2jWrSYmjB9rvR7ukWGT54jH3+8Vc8vh6jqFmgRESNloPrg/YIywXU/2/Gvv+FOcFcSEVWeLAo8nLzASCfzcxl8oLkx35BeWlbFrhNaz0HtW3QfHTyhFl0foPyUUp8RVYgqRBWiygVRRUii+F+UK4WSVUpUPfB8s7yz8r3AvJ4pqryRLqHbxqBa4f2C8sF1P9vxr7/hTjAkQIuqIs/JAigTpdRnRBWiClGFqHJBVBGSKP4X5Uqyfft2OXXqVGS6ElV9+vTRYspk4sSJmRRVudu0kB7dAt4vKDdc97Md//ob7gRDMbxRV+btiQBdSCn1GVGFqEJUIapcEFWEJIr/RbkaWbBggRZSNnr37m1dBwAgK3Ddz3b862+4Ewzx5G4dRFJBBSmlPiOqEFWIKkSVC6KKkETxvygDAEB1wXU/2/Gvv+FOMABUN6XUZ0QVogpRhahyQVQRkij+F2UAAKguuO5nO/71N9wJBoDqppT6jKhCVCGqEFUuiCpCEsX/ogwAANUF1/1sx7/+hjvBAFDdlFKfEVWIKkQVosoFUUVIovhflAEAoLrgup/t+NffcCcYAKqbUuozogpRhahCVLkgqghJFP+LcrXxZtsyGTu11ToPAKAnwHU/2/Gvv+FOMABUN6XUZ0QVogpRhahyQVQRkij+F+VqYf2GDVL3xGtS85t35S9+u1xuHtliXQ4AIOtw3c92/OtvuBMMANVNKfW5JFF19uxZ2de+0mFVjv0B3nPZYWN1DO/L/s9cDgRYE8MHLjttrM1xMMyuD4uwLsrudXJo9/oYNkTZ47PRyud7NgXZ67M5ho+i7PtIvti3pQAfB9nvs9XKl/u3RTmg+CSGT6McdDl8cHsM7UEO+ewowGcBjnweZmcBdsmRL2zstnL0iz0uX4bZG8M+l8NRjh3eH8MBOXbExkErx48ccjlq4/MYvpDjx6J8dezLGA67HI/jSIATPl8pjhbgWJATPsdznAzwVZSTihMFOJnjlOKUzynnXO/lCyspS/wvypVm//4D0u/pOVpO/fVDS+SFxrkyaeZr8pcD30FWAUCPhOt+tuNff20dYQCoXkqpzyWJKtUJ3L/7YwCAquX48eN8YSVlif9FuVIcO3ZMHnthtvyr+rfk39SvkEcaZstHW7bkQFYBQE+F6362419/Tx7bBwDdiFLqc0miSm3IZsoAAKoFvrCScsW/DlaCiTPmyr/9/TItom4Z1SJrP1wXkFTdUVa11Uf/Ruvb7Mt2hMh26tusy3Wcdmmoc9qva5B26/zyYDuPPnUN7dZ1OgrvHVQbXPeznUpefwGgY6Stz4gqAMgkpRREQpKkEl+U5y9aKv/5j4v1bX4/HDJPlry1wiqofDZt2iwDxrTo51ZNm/OGtc1EtNV3bqfd0p6WEKZ4UMvU1ElDe36ZjuHJh5DcaGvIroxQ57TT5RTvHXQDuO5nO5W4/gJA55C2PiOqACCTlFIQCUmSrv6iPH6aK5z+5k9vSmPLfKuYMmmau0CufOwN+XcPLJWfPjVX5sxbaG03EZUQVRfapN75O+20kTntDVLXqfKk+qmYqOK9gwrDdT/b6errbyHeW7VaRv9hhoz47UxZtvRt6zIAkCdtfUZUAUAmKaUgEpIkXf1F+eEJc/TtfurB6WqklE1OKd5sWyZ9npor//L+5fLIhNmydetWGfdqq7TOX2RttxhaQph/O4aQCM6rlzZventDXeC1Ly6UNIlrzy47onLCbTu/viliCm03qTyJOyZ/VE9dQ5s7usfZtzrLKB93NJFaz18+KIrC+2/uT/y2Q2hxk+xY4kRV3LZ479R6ZXzvoEvgup/tdPX118amTZvk+aEz5LFfNsuEEY0ycexMeeLm2fLso42y5v011nUAAFEFAKAppSASkiRd/UV5xEstMmHaXPkPf1xslVUr31stv352jvzlb1c4893nVp04ccLaVmoSjKLRnfjcMsGOvp5nSoEE7UXlhy8D4mSGel14u75oCAsInyTHFLilLSc2vNcOqg23/ajscLdvLN/eIA2e7Ci87TDJxY3tWJMcZ9w55L3zli/5vYOugOt+ttPV11+T3bv3yKSxM7WgevbxRj2KaotzDVYsf3uFjH+qUQb1bZXnn5ou27dvt7YB0JNJW58RVQCQSUopiIQkSVd/UVaiakbrfFnzwdqArFJCasjE2fqX//5h8OuycMkyOXjwoP5lXvUleeTIkdK3b1+ZOXOmnDlzxtp2UcJyQo/oCXbyXfFgiIDcMqHpijjZEfgbDa2j2wtNU4SFQ6Ht5ua72whIj6LH5MmOgIBxZUteGEWXz28jZn8URbddGnnxYkxPsq1C55D3LkjRbUMl4Lqf7XT19Vehfml3+kvN8sTNzTL6n6fL/HkLc4IqzJLFS+WZh93RVi9NaJJDhw5Z20xCWIR3KbpGB/+G3JoZrpFejU0k6MPrdhzrtc6o8RU9h5pk58d+HNkjbX1GVAFAJimlIBKSJF39RdkXVUpC+bKq95Nz5d8/uET/u7HlDdm3b5+ef/jwYb3O/fffr5k+fbr06tVLFixYEGk3EWE5Yfny6mOO8vEFRuSLV5zssIiE3LphqeFjkSCx2zXxj8HfZtFjsn+5Dux34LhCy8ftf25edLsK83ymxfqlN+G2eO8S7H9uXnS7io68d9AxuO5nO119/VUsWbxMj5QaNqCpoKTyWbxwiTz165l6HbW8rc0kROtr1+DW4lDdc2p2va6L9pqajI6sa0ftq62+52uwu81qr8m248giaeszogoAMkkpBZGQJOnqL8pKVCkZpUSUYunbK+SvH1wqwybPkT179uSmK44fPy7btm2Tyy67TMsrtf748eNl4MCBkXYTEejEe6/jOu4GsbdrhdtzsH0ZD9xCFbdNi+yI3W4Yc92ixxTz5do4luCXzLSyo/j5TIv1S2/CbfHeGa8LtV9021AJuO5nO119/VUsmLdQpjw/Uz+PSo2UGjFwhjTPmCubN20OCKqW5tf1aColqJ4bOl0mjZ2h17W1mQRbfS03gfptJaamJqIj69qJXOvU9SG8/7ZpVYb1mp1B0tbnbimqZt6sDurbMny+fb4iyTLlRG2/9tEx1nkAUH5KKYiEJElXf1Get3CJ9B/TIqvf/0DLKPWQ9F+NbNX/NSXV0aNH9fLqVj8lqlatWqUZPHiwvgVw9+7dkbaLYnTo9WuLYIigl3E68P5/zXnh9hyKyo64bVr3LWa7EfK3BhQ/prgv1/5tXuq/5vZCyxdqv+i2S8P6pTfJtvxz5//XnMd7F6TotqEScN3Pdrr6+qtQsunlCU36Ortx40aZMn6mDL55tjx5zwyZNrlZZkydI0/d36gfqD7xmRmy9oO1elm1TmeLKl/o+5gjhcLzgnUvX9t0u9ZljNqamxYmXFPtNda+n/Z1TeFv7pvt/wgIzHfOjXptblttN7wv7nYK1Gpdy+3HbXsP9PXL2Lek5z0/rfhxZJW09bkbiyqHmx+yzt81v5/U6gNPKaom/lhqruwnK23zUoKoAqgspRREQpKkEl+UG1vn52SVTVSp6Tt37pTm5mYtqWxcffXV1rYLEvpCptBfsALCwvkiVu+/Dn4pi3zJi2vPXMb70mh+aYtuM/yFusB2VXuhL5ruF8vQl+OEx2SivxQ7X4AD+29ZXrdvHrezT4EHcsduO0ySjoTbpm1/0xynXpb3zm2/U9476Aq47mc7lbj+mqLKp729XRpfmSNP3tUsg29vlqmTZsnHHwf/z6POFlXh2hepRYH67NbZfC1za5v6W8jVXl3TDYGj63ewxkcJ18hozYzfz+Cy4fppPd7wfLPe6v2P7kuccIq/bha4rsZc9wLHkOC8m+en+HFkl7T1uWKi6tM1U6zTk6Al0M0/ltqaH8tMy/yVj35baq78tjMfUQXQUymlIBKSJJX4oqzwZdWipW/lRJX61b9xr87Vr7d8/LFMmjRJ+vXrJ3v37g2waNEiLats7RbG/ZKl/3ZyXyCNaR7+F7zIF7ACX5b99twvekHivmjGLVN4u+6/zXWDyyrij8n2RTOH/mIf3l/78sH9N//f3ULbDlPgC7WB2pb9S2/8tgqfw9C6vHeB5e3bhkrAdT/bqcT11yaqfNRoKoVtXueKKlULY0YF6VpmmReQLF6tMkSQPy1XsyxSJkq4RoZfF9hPY1mbzIpKMqOtmGNU5yi4L/Zt6/9jIlTXk+Feg/J1vfg+2c57btuJjiO7pK3PFRFV694aL1f93Xfktpuus84vhiuBHpLhV9pk0EPSXwmqiWpUVVRU5UZjafKiKzjdwRitpcWXMc8moALrO+uaokrPC4/+0qO+7KINADpOKQWRkCSpxBdlHyWrbhnVosXUhOlzpd/TLTJ88hz9/+Sq+Z0vqgAAug9c97OdSlx/q0JUFZJIcfMCUiQslCzTOkNUFWzDW1aNZA0vo9eL/t0qtCSKaTcoeJREsm+7dFFleR/8/7Mk7lgLnfdEx5Fd0tbnLhdVvqT61re+Jdf/uNa6TDFyEsg2AsqfpkVQUFSFhZE78spY39KeK6BMoaREWFBW6WXC7ZjL6NdBKaW3HXfrIgB0mFIKIiFJUokvyiZKVilR9cDzzfLOyvcC8xBVANCT4bqf7VTi+ttjRJVevtio0HA7yUSMuWxNXV10OwXXc0gkeFT7lhFODh0RVXrbnpwKbK+U857oOLJL2vrcpaLKlFSdIqo8adR/oj9vjB5lpV+HRZV1BJM3+spfJiyqLLIrt5zfVswy+X1Urwvsp7EOAHQepRREQpKkEl+Uw2zfvl1OnToVma5EVZ8+fbSYMpk4cSKiCgAyD9f9bKcS19+qEFUB+REibp4hWKKCyT5NbzNye7VJeJ3Q60L7aS6rhY2xXMH1HKzzbftib0MdV2EBVwj/dr/QiK1Sznui48guaetzl4mqsKTqHFEVGplkyqiwQPJGOdnICaOwqLKMhNKYbccsExRV3qgrfz/D2wGATqeUgkhIklTii3JSFixYoIWUjd69e1vXAQDIClz3s51KXH+VbJo0dobs2rUrIqPiRJUayazW6TRR5b8OiZL4H3YIP1vJJkNs09z1IrLK2Va9Xi68TrSN+P0MLus+pyovbaLH4Cwf+mEMc767fnDb9pFTal27wHIJn6soul11y6LxfijSn/dkx5FV0tbnLhFVNknVWaLKHBUVmG4VVRbpZFJGUaXX8dqOzAOATqeUgkhIklTiizIAABSH6362U4nrr3oG5IQRjTJ+WKPMmfWaHtHsC6mwqFIy6/XW+fL8U9P08hvWb7C2mQQtQWxiJPe5DsqX4LyweAkLk7hpLuG28uLJLl7Cbdj3M7qsv5y7r+78/Hr2Y/DnqXbU+oFtqxFLFskWmRaguKjSbcQsU+p5L3gcGSVtfe4SUXXD9X8fkVSdJ6r81/2Ct/GFRVX4tY2wqIpbx1zOuox7a19QRqlparnQ7YYAUBZKKYiEJEklvigDAEBxuO5nO5W6/qpb7d9atlxeeLpRxg5plJmvzpH169fnRNWWLVtk9sy58tzgRmkY1ShLFi+Vo0ePWtuC8qKkjymLwq+hcqStz10iqmZNeUQG/eG2CAuahlqXL4Z1tJI6UPPh5BaBpNYL3nI3RobfXHgEVXQd+/OmzGX8XwkMj5pS02uvDD3AHQDKQikFkZAkqdQXZQAAKAzX/WynGq6/a95fIy+/0CTjHm+U54c1yvinpml5Nfm5mfLuOyvl7Nmz1vWgq8iPkNKjnUKj0qBypK3PXSKqOpuIqLI9nLzASCfzxAQfaG7MN6SXllWx64TWc1D7Ft1HB0+oRdcHgM6mlIJISJJUwxdlAACIwnU/26mm66+6JVCNrGp8ZXaHbvED6Cmkrc/dUlR1W7SoKvKcLADoFEopiIQkSTV9UTZ5s22ZjJ3aap0HANAT4Lqf7VTr9RcAipO2PiOqugxv1JV5eyIAlI1SCiIhSVJtX5TXb9ggdU+8JjW/eVf+4rfL5eaRLdblAACyDtf9bKfarr8AkJy09RlR1QXkbh1EUgF0GaUUREKSpFq+KO/ff0D6PT1Hy6m/fmiJvNA4VybNfE3+cuA7yCoA6JFw3c92quX6CwDpSVufEVUAkElKKYiEJEmlvygfO3ZMHnthtvyr+rfk39SvkEcaZstHW7bkQFYBQE+F6362U+nrLwCUTtr6jKgCgExSSkEkJEkq+UV54oy58m9/v0yLqFtGtcjaD9cFJFV3lFX6V3nCf6f6V3rapaHO+Xddg7Rb1oviLl/X0G6Zl0dtr9gyabDuv0dnbsfEts3O/vnt9oY6r+06aWg3t1kvbZblAaoBrvvZTiWvvwDQMdLWZ0QVAGSSUgoiIUlSiS/K8xctlf/8x8X6Nr8fDpknS95aYRVUPps2bZYBY1r0c6umzXnD2mYi2upTiKIEWNrTAqRTfj66MqLKpCxtJzlnahlPKOWmdRAlqqLHon72G1EF1QvX/WynEtdfAOgc0tZnRBUAZJJSCiIhSdLVX5THT3OF09/86U1pbJlvFVMmTXMXyJWPvSH/7oGl8tOn5sqceQut7SYCUZWKiokqLZA6d1QVogq6I1z3s52uvv4CQOeRtj4jqgAgk5RSEAlJkq7+ovzwhDn6dj/14HQ1UsompxRvti2TPk/NlX95/3J5ZMJs2bp1q4x7tVVa5y+ytlsMLUPMvx1DjATn5cWFe7uYKTJcgaKER1x7UeniYxdPcdtOtLyzHfU6sIwejZRfxip72hukLm6eQaTt0Lz8djr7nKl1oiOq8rfvuZj7Vmi7/vzosSCqoLrhup/tdPX1txDvrVoto/8wQ0b8dqYsW/q2dRkAyJO2PiOqACCTlFIQCUmSrv6iPOKlFpkwba78hz8utsqqle+tll8/O0f+8rcrnPnuc6tOnDhhbSs1CUbzaOGRWyYoi/Q8U6ikGlEVFU9ptp1b3tyeJ6Vyy2gBZQge53WDVUa5EqdUUVXucxZ+nZtWQEQV2656HT0WRBVUN1z3s52uvv7a2LRpkzw/dIY89stmmTCiUSaOnSlP3Dxbnn20Uda8v8a6DgAgqgAANKUUREKSpKu/KCtRNaN1vqz5YG1AVikhNWTibP3Lf/8w+HVZuGSZHDx4UE6dOiXbt2+XkSNHSt++fWXmzJly5swZa9tFCUsSLXbCokLJi6DscZcJTVfESZfQ36grhELiqei2bctHRxmp7RVus3QCbft0yTkLrRNz7K6oM/alwHYRVdAd4bqf7XT19ddk9+49MmnsTC2onn28UY+i2rJli2b52ytk/FONMqhvqzz/1HR9Dba1UQrRel/uGhz9P306BX39CR6L9VrvvQ5f9+x0/r5ar+P62ufur34/Qv/HUNeS7PzYj6OypK3PJYuqk8f2AQBULaUUREKSpKu/KPuiSkkoX1b1fnKu/PsHl+h/N7a8Ifv27dPzDx8+rNe5//77NdOnT5devXrJggULIu0mIixJLF80fczRRv4X68iXpDjpYv3SF/oCWnTbtuWjX+iDX968L3xOG53xhc76xbBLzpn7JbrYsdsEVtx2EVXQHeG6n+109fVXcezYMZn+UrM8cXOzjP7n6TJ/3sKcoAqzZPFSeeZhd7TVSxOa5NChQ9Y2k+HW9YiQ8K4p5vWjcymP/Ilck5zrUb3eRke2V559DbenpuXPt7vN8p3/zsF2HJUmbX0uWVQBAFQ7fGEl5UhXXweVqFIySokoxdK3V8hfP7hUhk2eI3v27MlNVxw/fly2bdsml112mZZXav3x48fLwIEDI+0mIixJ4gRICH0bmfO3FvmSlEi6+IS+gBbddrLl7V/evA6BQ0e+fFrb7qJzptf3l4vbpkVUxW0XUQXdEa772U4l+qFLFi/TI6WGDWgqKKl8Fi9cIk/9eqZeRy1vazMJus6HJZVPwutKaXSu/Alcm6x0ZHudu6+KyHVcXTfD+2+bVmXYv+tUlrT1GVEFAJmFL6ykHOnq6+A850tv/zEtsvr9D7SMUg9J/9XIVv1fU1IdPXpUL69u9VOiatWqVZrBgwfrWwB3794dabsoYUliER0R9DLOF2j/v+a8hNLFJfQFtOi2kyxf+Eut/kJt3ZdkWL8YdtE5C3QG4rZpfT/t20VUQXeE6362U4l+6IJ5C2XK8zP186jUSKkRA2dI84y5snnT5oCgaml+XY+mUoLquaHTZdLYGXpdW5vFcf/Pk/j/4yQ/33oNDYksvUzu78Gs4f41sU3/172N3HKd1NcIow1je9bt564pxY5DEd6e/Tqtr3HGPrht2tdNduyW+c5xqNfmtu3XQrWdAtd173zZjtt6vkLvV/hYg9u3n59ix1ENpK3P3VpU8WsLAFAIvrCScqQS18HG1vk5WWUTVWr6zp07pbm5WUsqG1dffbW17YKEvjwp9JehgDhxvjTV+6+DX6AiX8ji2gt/adNEv4yl2bb/2lze//KXW8bZH/OLZPy+JPmy7a5v+2KYZr8j+5DknHlfigufq/AxFN4uogq6I1z3s51KXH+VbHp5QpO+1m7cuFGmjJ8pg2+eLU/eM0OmTW6WGVPnyFP3N+oHqk98Zoas/WCtXlatU7KosvyfB2FUzdY1OuYaUai2568N3nUy8H9sBK8N7jr1xvzQtcSyfb0Ntc0ExxHdnm37TntmO0677g+fWK5jxnWv8LFHl3ePJbovccIp/jtBge8MSd6vwHy3rULnp/hxVAdp63O3FFX82gIAJIEvrKQcqdR10JdVi5a+lRNV6lf/xr06V7/e8vHHMmnSJOnXr5/s3bs3wKJFi7SssrVbGPcLkf7byX3ZM6Z5+F/GIl+WYr5gme3pdYwvknmiX8YKbTvJ8mqe+YXQFzy59gL7blLgS6dBoO0A8ftd8jkz2jLbMwkvZy5TbLuIKuiOcN3Pdipx/TVFlU97e7s0vjJHnryrWQbf3ixTJ82Sjz8OjnLukKiyyIwwuobra0L4+qRee+LJKoqM+f71JXANtl1Lg6ht5+eHt++ur18nOI7o9sKvzf0Nk1/WJrMKHrueH203eGyqffu27dfIJITPV/F9Cp7H0PlJdBzVQdr63K1EVaV+bQEAuid8YSXlSCWvg0pW3TKqRYupCdPnSr+nW2T45Dn6C7Ka3/miCnoqiCrojnDdz3Yqcf21iSofNZpKYZvXFaLKr9F5aeXMU+v6/yeEbif696BwRUlYCsVN87ZhrG/OL7z9YteM8PZCrwu24S1bF5JUimLHHtNuUPDEX/NKF1UlnK+AjEp2foLHUR2krc/dQlRV7tcWon+UuQ9Vh7AXgEK4+2E3uj5Jlgni7kfw/1FNgaUA5O1w9yJQMMLTLecnv3wHz6GBarP8BSVv8eOOuetIdu46cl74wkrKkUpcB02UrFKi6oHnm+Wdle8F5iGqoLNw/99pVTPd7xX6mqFf27+0A1QDXPeznUpcfysiqiKjbsKE5huyI/C9OU585LD1ScPT3G2ZfYbId3MlUmzb14KlWP8wvL3Q64LH4Pcl6qLbKXbsMfODx6bat/etOyKqUr9fiKpkqUSBqMyvLXgf/FBHvq2h40Ii8gFLgPqw6TczTix4hSCdqCodd39CfxTOPrg/M2pM6yjGH7J1fqmE27X+kXufgcg5dacXLrrp6YqCoraR3+/yHEdn05HzwhdWUo5U4joYRo0aPnXqVGS6ElV9+vTRYspk4sSJiCoAyDxc97OdSlx/KyOqvL5WTB/I/T8SzH6Lkkmqv6L+a0wPCA4btj5paJqljxT9bq7W8bcf3F6h43AJ70PodcFjMJbV+2ksV+zYrfNt+2JvI9inSkvK9yvQb01yfsLHUR2krc/dQlSpP/Iu/7WFYh/uDpH+w6MLQn29s09hmeKiC5a2yeXa5zzutsogj2yEhVJnEW7X9n570+qc9ypQiMr02YgW/U5G7Xf4XNqmVRkdOS98YSXlSCWug0lZsGCBFlI2evfubV0HACArcN3PdirVD62EqMqNZAp9T3clVbQfokf4OH3BmvAgi4gocvqhsT9CYpkW7vdoIRT9bp7bfqRfYT8O1a47wCG8D9F90scQEjq2h6mHz02SYzfnu+sHt62Py3jtotYt1Bd0j7mQyEr+foXbCp+fZMdRDaStz91GVPkFost+bSHBB0zhfxB8csvrP2rjTQh8CMMfMBf3j9DHZq7dnw6NfujUvjp/LG0WgZJqP/KvzX0Jbi/ZeVGEz02wneLbCp4PB2Pf489Vqe1G3xO9/848vbx53gpZ7UTn0CWwH952wssVOoeR5b332nxvzGVUW9H9UPtboNBa2vTR+2+eF4W+eOXfj6Sfgfy0ZOclKXxhJeVIJa6DAABQHK772U6l+qFq8MOuXbsCIkoRJ6rULfcdGjBhEPherLEPWoj/zu5+3zbbyC9j+y4enRb4Ph/33bxAn0ERfxzh7SXoH+T6u9Fl/eXc/XDn59cL719wvmoncmzquALiKGZagAT95WJ9LG+f4vY5eH4SHEcVkLY+dztR5VP2X1tw8P8o495kd75RLJwPnGt31bwCP+MZ90dldPp128YfQO7DZhth5E/TH/igdEi3H/kPeW4ZLR6MNvU2YgqkgfsHZi7nbjvVtvxpoeMtfK5Kb1e3Y7Qbd86D2y/hHPptmNvXy5jtJDiH4WOItOHui7sf5r+DqO3YprsUKLR6e8HPQu6cef9O8hmIHHOR85IGvrCScqQS10EAACgO1/1spxLXX9W/VHf1jB/WKHNmvaZvvff7mmFRpWTW663z5fmnpunlN6zfYG0zkyTsI3ZHwn2lwn0niCNtfe62osonzmQrOiqqNJ7tVCcx2FlWne6Q/CiA2YGPdNCtf9jB9vPrh8WBISAsoipMwf3wXpuyJtC+em2RExHi9iOwboJt+euY4qLouSqxXX9arm2zzWj74fOf6hzGnJ/Ae5PkHIaW0UWz3jiuwLlS+2Bpz0EJuvz+pyH8WTTOU5L9D5+7JOclJXxhJeVIJa6DAABQHK772U6lrr/qmZBvLVsuLzzdKGOHNMrMV+fI+vXrc/1Q9Qia2TPnynODG6VhVKP+ca+jR49a28omtv5Plsj3eVS/JLvHWV7S1mdEVVJ0B9v4YAY63Hb0B9l4E8IyI/fab9uCLwHMznpg5I8pIwp09M02Y/cj8toyLcFxxy4T2L8E21KotiwjbGy456rEdjWGeAnMd9fX083zbczLt51g+zHnJyBkYpaxnUP3uNW+q+X9/zrTVBu5QmpMD1G6qAoVa/Ocpdj/VOclJXxhJeVIpb4oAwBAYbjuZzvVcP1d8/4aefmFJhn3eKM8P6xRxj81Tcuryc/NlHffWSlnz561rpdVcv1M5A0UIW19RlSlwexkx3XENa7wMP9gg53tZB10k+D6qn13PwLTAxLAXy7FfkReW6bpbeQFmpVSJIXGMk21FRFVhc5Vie16+OcnfBtg7nVkvXDbCbYfcwyB9ybuOEPvcWC/9P6621LvT/S9Nj8beToiqszzkX7/SzgvKeELKylHquGLso0325bJ2Kmt1nkAAD0BrvvZTjVdf9UtgWpkVeMrs3vWLX4AJZK2PiOqUuGKn/zIGnvH39bhjkoD43WhtjzCnXX3dUNOWOnp4XbS7kfktX2aasMmeXLEHY8hNZJuK7iOQ9FzVWK7Hlr81NVLvbN8QMZ557I+9D5E206wfesxJFnGIbzf3us2Z7/9/XXFk3rwvrm+at9+3tT7WVA8FsSXpuq/xmetlM9AkvOSEr6wknKkmr4oK9Zv2CB1T7wmNb95V/7it8vl5pEt1uUAALIO1/1sp9quvwCQnLT1uduIqi7/tQXVaTZG1Ci0xDA641rYhDrn+mHq4Q63lhxmZzva+Y7KH2eZ3M9nhgWTg96Gs465j+Htpt4PmxSwTfNGaoVFj7M992dGbcdjSD79OuG29D5HZVv8uSq9XY1/XiPCxDvmoiIlyfbd1+YxuJ+t4HrFz2F+WmC//GMIvT/2kVNqX8LHZGLbZhDdrtNG4LPokP4zkOy8pIEvrKQcqZYvyvv3H5B+T8/RcuqvH1oiLzTOlUkzX5O/HPgOsgoAeiRc97Odarn+AkB60tbnbiGqKvNrC74AMAh1/BW6M55bJt/h9zvYGqcDr5YLd8iDnW+vk55rKygHguvnlw8IhLCYcki3H/H7FZzmEjx2hUUoGfODsiPpttxpuo2cCDGmRdruSLvG9Nj3Oiy3wm2XsH0HNS/6Hhc7h8YyFiEUbkt/PsLHZZsWoLio8sVY7L55+x7d/9LPS1L4wkrKkUp/UT527Jg89sJs+Vf1b8m/qV8hjzTMlo+2bMmBrAKAngrX/WznRz/6kZw+fVouXrwIAN2I8+fPZ1NUKfi1BYCOo6SPKYvCr7MGX1hJOVJJUTVxxlz5t79fpkXULaNaZO2H6wKSqjpllSegC0rxriUs0YP/h0VnUqljt/0fAR6W/1OrMLx/1XTsUBiu+9nOL37xC33XjO29B4DqJrOiyoRfWwAolfwIKf1Fv2xf7qsDvrCScqQS18H5i5bKf/7jYn2b3w+HzJMlb62wCiqfTZs2y4AxLfq5VdPmvGFts6IEnlfXlXjiIVT72hqyJiI6U1RZ4P2DKoXrfrZTX18va9eutb73AFC9KMH8wx/+MFV97paiyodfWwCAQvCFlZQjXX0dHD/NFU5/86c3pbFlvlVMmTTNXSBXPvaG/LsHlspPn5orczr1R0U6iUqJjs6QNN2CjIqqHvP+Qalw3c92xowZI62t/LotQHdj1apVUltbm6o+d2tRBQBQCL6wknKkq6+DD0+Yo2/3Uw9OVyOlbHJK8WbbMunz1Fz5l/cvl0cmzJatW7fKuFdbpXX+Imu7xbE9o84VIPlpeSFi3o4VFCRBaVLotq3gPPOZgH4b6hdN1TwlK8LT/OnO8lpo2NpJ8Nw9hzT7Uaf+Gx6dmvvBjuCx+wSeHxnan/hth/CO0X4s9u1qArInvxzvn9FGV7x/UBa47mc7a9askQceeMD63gNA9TJ69Gj55je/mao+I6oAILPwhZWUI119HRzxUotMmDZX/sMfF1tl1cr3Vsuvn50jf/nbFc5897lVJ06csLaVjuSiSv1d5abpTr4vQvLLBDr7lhE5uoNvCAMtA3LL+NuJtmtOc9dR8iG4nrltXzKE5YNP6v3ISQ3vtYNqw20/bvvG8u3eLwZ768VvO0whaRPdbg6LqOL9q8T7B+WA6362ox7IrJ5TdejQIev7DwDVh3rW+HXXXSff+MY3UtVnRBUAZBa+sJJypBKiakbrfFnzwdqArFJCasjE2fqX//5h8OuycMky/eu36guB+nXckSNHSt++fWXmzJly5swZa9uFSSGqjM553DIFRYeWJ+HRJ2r7IaFi2U6gXW8kjrnPVlngLafqQXT9tPsRPk/R5fPbMOeFKLrtNFjOjY/eTvHzyvuXX77r3z8oFa772c/s2bNl3Lhx1vcfAKqPpqYmufzyy621WRGX1JWbnwUFgO5AKT+DSkiSVEpUKQnly6reT86Vf//gEv3vxpY3ZN++fXr+4cOH9Tr333+/Zvr06dKrVy9ZsGBBpN3ihDvwCrfjXlBiRKZZlgmLDj2qJfq3qnC3lWQ7CosYCG/LxN+uLy5K2o/QSJrA9kLL6/bDMsOj6LbTYN9PjRYqcSLGNs2yTOAYvdeW/Vbw/pXy/kGpcN3vGbnvvvtk48aN1s8AAFQP6iHqyh/9xV/8hbU2K+KSunLzs6AA0F3gCyspRyohqpSMUiJKsfTtFfLXDy6VYZPnyJ49e3LTFcePH5dt27bJZZddpuWVWn/8+PEycODASLvF6WpRFSMANEm2o0gpOhSmuClpPxyMbeRvG7MsX6j9ottOR3A/DAIjf5KcV8sy4XNa0nmzTeP9g47Bdb9nRF3vlKziFkCA6kWN8P/5z38u//pf/2trXVb87//7/+79VUeTunLzs6AA0B0o5WdQCUmSrhZV8xYukf5jWmT1+x/oL+fqIem/Gtmq/2tKqqNHj+rl1a1+SlSpX1hRDB48WN8CuHv37kjbhXE76UFRFZZXSQSEZZmwfAiM8rGRZDuKEkSHeUwl7YfC3676rykrQssXar/ottMR+3ykwPlIcl4ty/D+efMNOvn9g9JAVPWcbNiwQe69917ZsWOH9bMAAJVDfSdV/yfp//l//p/WmuyjRFZcUldufhYUALoDy5cvl6uuuspaFAnpSLpaVCkaW+fnZJVNVKnpO3fulObmZi2pbFx99dXWtguhb4kyJIF+7fwNdYqoCo0+CW9Lr1efRqgoiogOJRMCzyeKPhw7/X64qHbq6py2Au1Hl3fPoXHszj4FHsYdu+0whqApMD+wr1qm8P4Ft+nS9e8flANEVc+K+j9g1MiqV199VY/esH0mAKBrmT9/vvzkJz+R/+1/+9+s9djnf/lf/hfvL9me1JVb2evSbiEAAOg6hg0bFmvxCelIKiGqFL6sWrT0rZyoUr/6N+7Vufr1lo8/lkmTJkm/fv30iEKTRYsWaVlla7cwruzw/3bq29yOe4dFhzdNt5sTA8a03PaCyxfejqKI6AgdjyYgFhRp98MjIoEU9uVd2eFj7m+hbYdxjyV+viJ6vMX3LzwtfhndJu9fie8flANEVc/LyZMnZeLEiXLrrbfKlClT9LXR9tkAgPKhRjaqh6arv8Pvfe97sb/wZ1IsqSs3PwsKANVOqT+DSkiSVEpUKZSsumVUixZTE6bPlX5Pt8jwyXPk44/dL+adL6oAALoPiKqeGzW6+OWXX5b/8T/+h/4cqA6zGlwBAOXjzjvv1H9vakTy3/zN38j/+r/+r9YaHOa//bf/5v3lxqekyr1w4UI9WsF2gQAAqDQvvPCC/Mf/+B+thVFBSEdSSVGlULJKiaoHnm+Wd1a+F5iHqAKAngyiiqioTrDqMP8f/8f/AQBlpNCD0uP4T//pP3l/qYVTcuXmoeoAUI2ooael/gwqIUlSaVGl2L59u/V5HEpU9enTR4spE3VbBKIKALIOoor4GTBggPWzAACVo3fv3t5faPGUXLmPHDmif2lB/T+1tgsFAEBXo35h4sYbbyw47LTQz6ASkiTVIKriWLBggRZSNtSXA9s6AABZAVFFwlGjq2yfCQDoOpKOojLTocqt/h/d/v3789A6AKg4Spqrnzgt9jOo6pkFhHQk1SyqAAB6MogqUijXXHONxvYZAYDOQwli9bfWkXS4cqsH16mfBVXPhFGjGWwXDQCAcqFuf1K/MvHf//t/L3qfdLGfQSUkSRBVAADVCaKKEEKykU6p3OqXABsbG/VIhXHjxvHsKgAoO2okpxLk6tddLr/8cvkX/+JfWL+cmhDSGUFUAQBUJ4gqQgjJRjq1cqvnVs2ePVs/yFVdKBS2nzEEACiVf/iHf9C1Rf0M6re+9S09Ssr2pTRMR4efEuIHUQUAUH2o/+McUUUIIdlI2Sq3+tUtdWGw/YwhAECp/EWBX/OL47/8l//iVSZCOh5fVO1aPxUAAKoEVZcRVYQQko2UvXLbLhYAAF0FIZ0dRBUAQPWBqCKEkOykSyq3P7oKAKCrYBQVKVcQVQAA1QeiihBCspMur9xKWvk/DQoA0NkQUu4gqgAAqg9EFSGEZCdUbkIIISRFEFUAANUHoooQQrITKjchhBCSIogqAIDqA1FFCCHZCZWbEEIISRFEFQBA9YGoIoSQ7ITKTQghhKQIogoAoPpAVBFCSHZC5SaEEEJSpBpE1cybVefr2zJ8vn2+Isky5URtv/bRMdZ5AACdDaKKEEKyEyo3IYQQkiLVI6ocbn7IOn/X/H5SqztoKUXVxB9LzZX9ZKVtXkoQVQDQlSCqCCEkO6FyE0IIISnSWaLq0zVTrNOToCXQzT+W2pofy0zL/JWPfltqrvy2Mx9RBQA9A0QVIYRkJ1RuQgghJEU6Q1Ste2u8XPV335HbbrrOOr8YrgR6SIZfaZNBD0l/JagmqlFVUVGVG42lyYuu4HQHY7SWFl/GPJuACqzvrGuKKj0vPPpLj/qyizYAgLQgqgghJDuhchNCCCEp0lFR5Uuqb33rW3L9j2utyxQjJ4FsI6D8aVoEBUVVWBi5I6+M9S3tuQLKFEpKhAVllV4m3I65jH4dlFJ623G3LgIApARRRQgh2QmVmxBCCEmRjogqU1J1iqjypFH/if68MXqUlX4dFlXWEUze6Ct/mbCossiu3HJ+WzHL5PdRvS6wn8Y6AAClgqgihJDshMpNCCGEpEipoiosqTpHVIVGJpkyKiyQvFFONnLCKCyqLCOhNGbbMcsERZU36srfz/B2AAA6CKKKEEKyEyo3IYQQkiKliCqbpOosUWWOigpMt4oqi3QyKaOo0ut4bUfmAQB0EEQVIYRkJ1RuQgghJEVKEVU3XP/3EUnVeaLKf90veBtfWFSFX9sIi6q4dczlrMu4t/YFZZSappYL3W4IANAJIKoIISQ7oXITQgghKVKKqJo15REZ9IfbIixoGmpdvhjW0UqqQ2Y+nNwikNR6wVvuxsjwmwuPoIquY3/elLmM/yuB4VFTanrtlaEHuAMAdAKIKkIIyU6o3IQQQkiKlCKqOpuIqLI9nLzASCezAxd8oLkx35BeWlbFrhNaz0HtW3QfHTyhFl0fAKBjIKoIISQ7oXITQgghKVINoqrbokVVkedkAQCUAKKKEEKyEyo3IYQQkiKIqlLxRl2ZtycCAHQSiCpCCMlOqNyEEEJIiiCq0pO7dRBJBQBlAlFFCCHZCZWbEEIISRFEFQBA9YGoIoSQ7ITKTQghhKQIogoAoPpAVBFCSHZC5SaEEEJSBFEFAFB9IKoIISQ7oXITQgghKYKoAgCoPhBVhBCSnVC5CSGEkBRBVAEAVB+IKkIIyU6o3IQQQkiKIKoAAKoPRBUhhGQnVG5CCCEkRRBVAADVB6KKEEKyEyo3IYQQkiK+qDq8Zw0AAFQJiCpCCMlOqNyEEEJIiviiCgAAqgtEFSGEZCNUbkIIISRFEFUAANUJoooQQrIRKjchhBCSIogqAIDqBFFFCCHZCJWbEEIISZFqEFXbtm2ThhHTZc2aD6zzAQB6IogqQgjJRqjchBBCSIpUWlS9NGGmPH5Tqwzq2yKP/WyuFlYnT560LgsA0JNAVBFCSDZC5SaEEEJSpFKi6u23lsuwu5u0oBr/1DTZsGGjvDh2hgy6uVWG3NYs815bYF2vU2irj3T86tvUvHZpqKuRuob26DqdSFt9cNua+jZnnrv9mroGabesFyXZ/qrtJTkm236556Wbk/j9TnP+O/+zYn+f2qTe21/9/ujPiTm/K0l2fpJ+3qA4iCpCCMlGqNyEEEJIinS1qDpw4IA8N3i6DPrFbBn+mxmyZPFS2bJlS45VK1fJmIdm6Plj/jhDdrTvsLZTKq6MqZc2c3p7g9TrjnXnywcbnSccku1vUnEQ2S8teOqkoT24XFHUemGZYZvWBZTv/e4aUaWm5WWhu81ql4dJP29QHEQVIYRkI1RuQgghJEW6WlQ1jGqUQX1b5ZmHGwOCKsz4EdPd5R6bbm2nFNob6orIEkRVcL/yo3nM5YpSJaKqvO93F4iq9gapC++/bVqVgajqPBBVhBCSjVC5CSGEkBTpalH10oQmGf5bd8TUsN/MkjfnLwoIqreWLZcRv3Nl1rB7mmXS2BnWdtKTRLrY5YMWOLlOYnR0Tl1unkNA9Pjtten/+qOTokIovHzS7SdY3tlORBzokVL5ZfxzEt0vdc7MEVW2c+juQ6ANo21/++Fp/vpaJhnzgseSPz6zjfDx2inl/bafz/A+um3a1zXfn+Bxhz434fmW90ltN3qsajsFRrl5n0fbcevtBd5fB/1ZyO9b0vcjP634cUDpIKoIISQboXITQgghKdLVomrqi7NkbssbsmTxMnnyHldYPftoo35m1bihahRViwy9vVlmz5yrl1PL29pJje7AR2VBkGhHPNy5D4/SaW+oLyByfHkRFAtWYaBJu/2Y5c0RN56Uyi2jz4OxP87rBlMyGduK7mdxUaVJOKJKtx94T9z288fjnz+jfX08BUSNT0nvd/R8uuLGaCd3voLLhs97+NyFPzfh5SPvk+28eqh1bdNdCgg6vY3gOVFtBY4hwfthnp/ixwEdAVFFCCHZCJWbEEIISZFKiaqDBw9qZrwyRwbfPFuPoFK//jfxmRmyZ88ePa9TRZWlkx4l1BG3yg7VeY8XJWbH328vKHt8IRDEFQtpt29bPrpvgX0qIHCi+xVuyyZB3H0ITFPnOiSlItNi9jX4PtnOn2V7Nkp5vyOvC73X+WVtMqvg+5bkfdLt27ettpdfLg3h96/4Ptnej9y2Ex0HdAREFSGEZCNUbkIIISRFKi2qFJs3bZZRv58uq99bHZiullu79kPZvn27jBw5Uvr27SszZ86UM2fOWNsuSCniQq8T7SQqTFESFjxB2RDttOvlQ/LKJe32bctHjzEqQNw2iu+XKzbyy4VFh8JtLzBN7UcxURWzr0H5YTt/tmkW4toPEG4r9LpgG96ydSFJpdDrBd8vH32eYtoNvk/qXNu3XbqoCr3Haj/89yTuWAu9H4mOAzoCoooQQrIRKjchhBCSItUgqrZu3SrjHm/U/zWnv/vOSr3O/fffr5k+fbr06tVLFixYEGm3KLrDHZYsYdKICoUrbky5Y5NC4U57VAj5pN1+R8SBt+/GObHtV/CWtW4kqkp5vxOeT3PZmrq66HYKrucQMz/62bGMcHLoiKgy34fA9kp5PxIdB3QERBUhhGQjVG5CCCEkRSohqpqmtQSEVJyo2rt3r2zbtk0uu+wy2bdvn15//PjxMnDgwEi7SdAiJixQAoQ64oFOugVLRz0qG6Kddr0fSURVse0nWt6+Dz5aRHn7YtuvoKhy2wrKH4u8MmRI7LS4YwssZ9v3wsdjkvr9Dr8ueP6NZfXnwFiu2PuW6H1Sr+1tqOMqLOAKod4v1a76r/HZLeX9SHQc0BEQVYQQko1QuQkhhJAU6WpRtWL5OzJ2SKP+9b/169dbRZX674oV78rZs2f1rX5KVK1atUozePBgfQvg7t27re0XxhtFFJYXToe7Xneso53sqOxwlqn3Xoc76lpYhGVDtNOeWFQ5FNx+ZHn3tbm8Fk3mPjn7aEoOc18i+6WPr/D+6NfOMkVHFFmmRY8tLL1s5882LY6073e0bff4gkLH9jB19zznPwvRY3OWD71vBd8nb1r0ONW6FqGUI3wOo+h21S2Loc9g+vcj2XFA6SCqCCEkG6FyE0IIISnS1aJKoR6WPm1ysxZWs6a3yodrP9SiSj2rau6cefL80OmyceNGaW5u1pLKxtVXX21tOwm+XMnji4hwRzw/zVzelAB+x1zjdPxV2+GOfLjTrrefUFQV3n7x5dW8wD558inXniEZoufFJjw8+ZOb724vuJyxD7njtE2LbtPWju34gtMKEz2uuPfb3nZwfV8SRZf1l3OPwZ2fX6/AOXJQ7aj1A9tW71VAHMVMC1BcVPmfAdsypb4fBY8DSgZRRQgh2QiVmxBCCEmRSogqn3UfrtO/8vfc4EYtqsYPa5SGUY2yauUqPX/SpEnSr18/fQugyaJFi7SsCrcHkDWU9DFlUfg1ZBtEFSGEZCNUbkIIISRFKimqFOr2vsWLlsgLTzfK/NfflFOnTuXmIaqgMMHRXSbZkTn5EVJ6tJN1JB5kFUQVIYRkI1RuQgghJEUqLaoKgagCgJ4MoooQQrIRKjchhBCSItUuqvr06aPFlMnEiRMRVQCQeRBVhBCSjVC5CSGEkBSpZlG1YMECLaRs9O7d27oOAEBWQFQRQkg2QuUmhBBCUqSaRRUAQE8GUUUIIdkIlZsQQghJEUQVAEB1gqgihJBshMpNCCGEpAiiCgCgOkFUEUJINkLlJoQQQlIEUQUAUJ0gqgghJBuhchNCCCEpgqgCAKhOEFWEEJKNULkJIYSQFKkGUbVt2zZpGDFd1qz5wDofAKAngqgihJBshMpNCCGEpEilRdVLE2bK4ze1yqC+LfLYz+ZqYXXy5EnrsgAAPQlEFSGEZCNUbkIIISRFKiWq3n5ruQy7u0kLqvFPTZMNGzbKi2NnyKCbW2XIbc0y77UF1vU6Qlu908mrb7PMa5N6p/NX3+a/bpeGuhqpa2g3lvFob5C6mjppaPfaC3UgfazrdgK2beb3uysocG4sRPY3d/7ddmrqGqQ9tE6HaKsPbs/BPT/p9rsaUecyuv/5z27857urSPae2o8DbCCqCCEkG6FyE0IIISnS1aLqwIED8tzg6TLoF7Nl+G9myJLFS2XLli05Vq1cJWMemqHnj/njDNnRvsPaTinEd+RLE1Xm9LJ0vpV0CXX6I8eg96crZVVS4eNJi9D5bmvoZDFloM9NTb20mdOd81Ov9zWbokpNC39uu+6zUBpl+VvJKIgqQgjJRqjchBBCSIp0tahqGNUog/q2yjMPNwYEVZjxI6a7yz023dpOKUQkT45uLKoc2hvqOn9kUiwJhU/MeSoXxc9BBkWVOsfhY7ZNqzIQVclBVBFCSDZC5SaEEEJSpKtF1UsTmmT4b90RU8N+M0venL8oIKjeWrZcRvzOlVnD7mmWSWNnWNsphUqJKr3dXCczP+JHy5XACCB3P1Q7wXUcvP22HUNA0uj9i67nkj8us33bfsftc3LhEz6nYULtWG7ZU5jrx+9TsW0pEh57Oc6f04Z6HV4u/niStaHe9+i21T4WEITe8dnOld5e6LPlvi/hz2x+v4Lbt382ih0HxIOoIoSQbITKTQghhKRIV4uqqS/Okrktb8iSxcvkyXtcYfXso436mVXjhqpRVC0y9PZmmT1zrl5OLW9rpxSsHXFN+URVeJvBkT/B7eh55v4lHFFlTmtvqDf2zX5cqqObm6ZFRPB40uxzIXypYV+2cDvhfSi4T/o9iYqeIMmOvdPOn/m+6WWCx1r4HCdpw92X/L7lUevaprsUkHp6G8HzqNryt6n3ySIIw/sUOc4i5wLiQVQRQkg2QuUmhBBCUqRSourgwYOaGa/MkcE3z9YjqNSv/018Zobs2bNHzyuLqLJ0+nzCQsLamU4jqqwCRXXujfVzy4SmK1Sn3uzkO+hjMASH2/GP7o9PcL880WKuHxYeRfe5wLmxodtzz29wnQLthIVJsX2yCJYo8cde6FhKO3/R9yPQTrHjSdKG3m50GYWSXoWOKR61D+bfQfF9Cp770PlMdBxQCEQVIYRkI1RuQgghJEUqLaoUmzdtllG/ny6r31sdmK6WW7v2Q9m+fbuMHDlS+vbtKzNnzpQzZ85Y2y6G6iAHJYNPuINeQGCk6XzrTny0k6nIb8vbL2eadX2bqAq0Zd8Xc5l8u7bjCk0rus8Fzk0h/HZz5z+unfB74VBsn/T8ZKKq4LF7dPz8Rfcl8Pko8XgCbejzZD/m0kWVd+z+e6T2w//8xZ3jwN9DCecCCoKoIoSQbITKTQghhKRINYiqrVu3yrjHG/V/zenvvrNSr3P//fdrpk+fLr169ZIFCxZE2k1CoBMeICpHYjvTumOesPMd17kPEXuLnCkKPOKPQeEehzk/uF+li5Y8tjYSUkhqeFiPr9g+6XZDcitCgmMv4/kLtFPseJK0obcblZSKjogqvW3vM5donxFVZQVRRQgh2QiVmxBCCEmRSoiqpmktASEVJ6r27t0r27Ztk8suu0z27dun1x8/frwMHDgw0m4SVAfZLnmioir8zKAcRkfenG7tfAc68TH44sv/rznPsq34Y3CwiIHgfiUQLUX32dZGUszzbGknkQyxo8+L7f3KkeDYy3b+kixjkKQN/drehtrnwtKuEOo9Uu2q/xrnIm6fA5/REs4FFARRRQgh2QiVmxBCCEmRrhZVK5a/I2OHNOpf/1u/fr1VVKn/rljxrpw9e1bf6qdE1apVqzSDBw/WtwDu3r3b2n4h4iVPVFT50wIdat3xtkuAoNAITg8KFKejXm/v2Ef2L0acxIqqsBjQ65v7ZZME0Wlp9jkWtS+h/XRHjvnHE27H9h7kKbxPCnf9iKxy9qNeb8O236FpnXL+3NfmfthGzCU5x8XasI+cUutahFKOwudZodt12gh/zqL7HG6rtHMB8SCqCCEkG6FyE0IIISnS1aJKoR6WPm1ysxZWs6a3yodrP9SiSj2rau6cefL80OmyceNGaW5u1pLKxtVXX21tuxDxkieu8+7JD4NCIsXe+fY665Y24jr+kY6+Ws/b7/hjcPFFgL9OcL/CIqHwtFw7DvEyIo7ouYuIGaMdfVzh5R3C+27Os70X0XbixJh9WjnOn5oXbCe6jCJ4PAnaUGItcE5jpgWI+6wbaGGX7Pza9jn9uYA4EFWEEJKNULkJIYSQFKmEqPJZ9+E6/St/zw1u1KJq/LBGaRjVKKtWrtLzJ02aJP369dO3AJosWrRIy6pwewDViStrCsqhElHSx2w3/Bq6N4gqQgjJRqjchBBCSIpUUlQp1O19ixctkReebpT5r78pp06dys1DVFU7llFTHsiSPO4oreAtnJ1HfoSUHu1UYLQddD8QVYQQko1QuQkhhJAUqbSoKgSiCrof0Vv6grc8AiQHUUUIIdkIlZsQQghJkWoXVX369NFiymTixImIKgDIPIgqQgjJRqjchBBCSIpUs6hasGCBFlI2evfubV0HACArIKoIISQboXITQgghKVLNogoAoCeDqCKEkGyEyk0IIYSkCKIKAKA6QVQRQkg2QuXuxOzevVs2bNgAAGVk+/bt3l8cIZUJogoAoDpBVBE/9MsAyk85+2VU7g7k4MGD8vLLL0v//v31hfHWW2+VgQMHAkAZufPOO3N/b88//7z+IkJIVwZRBQBQnSCqem7olwF0PeXsl1G5S8jJkyf1LyipN2TKlCmybetHcuLoHjl6YIPHRgub5OjBTXIswGYLH8mxQ2G2aI6H+fzjGLYG+WKrfPXFNgufBPlS8WmEE19uD3JY0W5hR54jLiePfGZhZ56jPrsinDq6O88xnz0h9gY5vldOH99nYX+QrxQHYjiY48wJk0MxfC5nTob5IsDZk1+6nDI5bOGIy+k8504ftXDM5YzJ8Qjnz3wl58+GOWHhpJw/F+TCuVMWTsuF8zbOBLiouKA4a+FckIuK8zm+znEhyNeKi5qLzutdu3ZJU1OT/jscPny4HDlyxPsLJaS8QVQBAFQniKqeF/pl9MuCFO+X5fpmgX6ZrW9Whn5ZpG9GvywuVO6UUZbwvvvuk1dffVW+OnZIPt/xluzeON2hMceejTNkzybFTIMm2bO5SfZunmXQLHs/UszOse+jObJvi6LFoFX2fdwq+zVz82x9zeB1OaDYpphn8IYc+OQNOfjJfI8FLp8q3tQc+nShy3bFIo/FLu2L5fP2No8lLjsUSzVf7Fjm8pniLY+35YudLl/uXO6xQr7c5fOO5vCud+Xwbp+VHqvk8B6XI3ve81gtR/b6vK85uneNHN2n+MBgrRzdv1aO7f/QYJ0cO6BYn+O4c9E6flCx0WCTc5Hx2Zzjq88/Mtji8oXiYwPngvPlVudisc3gE+fCoHAuKA4nnYuI5oii3UNdMByO7nCK/mceO12OKZyLgsNp50KgOa7Y46EKv8NXe+XMV/s89jvF2eeA5qxTyM+e9Dnk8blTdF3OnfrC40unwPoc1px3ivH5Mz5HPY45xfOYXNAcz3PuK4MTclFxXnHS4JRTAE/J1xdOG5xxip3ibI5LToG89LXivMEFuXTpgvz50kWDr51pX+viOH/+fF0Yt2zZ4v2lElK+VIOo2rZtmzSMmC5r1nxgnQ8A0BNBVPWsdP9+mdc3o1/Wpf2yXN8s0C/z+mad2S/L9c2Mflmub9Z5/TK3b5a9fhmVO0XUfZj33nuv7NixQ44c2KiL3u4NqhgiqiiIiKpKFMQ//1lxSRfGY8eO6SGoa9as8f5iCSlPKi2qXpowUx6/qVUG9W2Rx342Vwsr9f8o25YFAOhJIKp6TrLRL0NUIaqyI6o6u19G5U4Ydd+zMvYHD+zWRWT3hmkeiCoKIqKq0gXRL4pnzpzRX1p44DopZyolqt5+a7kMu7tJC6rxT01zvqRvlBfHzpBBN7fKkNuaZd5rC6zrdYS2eqeTV99mndfV6H2pqZOGdvt8RZJluhp3n8JU1z5euNAm9c5+1bdVw3veLg11zj7UNUi7db6L2s+6hnbrPOi5IKp6RrLTL0NUIaqyJ6o6q19G5U4YVQw3btwoXzh/xPliiKiiICYriIiq8hdEzaVLsm/fPrnuuuvkkUce8f56CencdLWoOnDggDw3eLoM+sVsGf6bGbJk8VI9nNpn1cpVMuahGXr+mD/OkB3tO6ztlELlpUWenPCJ25/2BqnTndIqFFXhfW6rL3wsXYzaRyWp3NeuKMq/rk4QVWADUdUzkp1+GaIKUZVNUdUZ/TIqd4LMnj1bxo0bJyeO7JZdG17t5gXRKYQUxC4viIiqrimIzv/oh/qph/ldfvnl8ld/9VfeXzEhnZeuFlUNoxplUN9WeebhxoCgCjN+xHR3ucemW9sphWoTVXX19VJXUy9tlvntDXVSU1fnzO8GokrhibWKCyG1H+HRS7ZpVQaiCmwgqrKfbPXLEFWIquyKqo72y6jcRXL+/Hn5xS9+IQcP7NUFC1FFQURUlV9Ufe2ghoueO+u8TlkQnf/R66q/22984xv6C+qDDz7o/kET0gnpalH10oQmGf5bd8TUsN/MkjfnLwoIqreWLZcRv3Nl1rB7mmXS2BnWdkrBJlm0EDI6gKZoCc8LigR3pI6aptu1LhOPKybacm0E56tb1+qkoU3Jn6ioKrxf+dve8tMso4r8UVAe5jzzeGpCIs12DgvNK7Sv7jkw9t0iu/LLJDvfanvhae66BYRfAclmPV597vLnJennJD/Na9dfx2k/ci4AHBBV2U72+mWIKkRV9YuqSvXLqNxFoh4A9sADD8iR/Rtk1/pXEVUUxJIKIqIqeUH0i6F6OPSpU6e8opiuIF66dElGjx4t3/zmN3NfUh977DH3j5qQDqarRdXUF2fJ3JY3ZMniZfLkPa6wevbRRv3MqnFD1SiqFhl6e7PMnjlXL6eWt7VTCmHp4AoGQ8S0N0iDJytckWBKGlcA5WWCKyDU32NOcGiBkWwEVE5MqHXCo338aVqgBNsrvl8JRFW43fBxh8+RsX/h+SbWZQvta/jY9fmLnmN3v5Oc79BxGqh9sU13sZ0zD70N8xjctvx9LHqM3j7lX3vrFDxuABdEVbaTvX4ZogpRVd2iqpL9Mip3kYwZM0ZaW1udorIAUUVBLLkgIqqSFcSLDqdPn5adO3fK4MGD5YUXXpATJ064RTFFQVR5b9VKqa2t5Ysq6fRUSlSph8cqZrwyRwbfPFuPoFK//jfxGed6s2ePnldeUaWEQoxUsggiTUBaeOIkIG3iRUmYvOwISxKjDYtQKr5fNukS2i/dTlC+xE8PnqfgOQwSEFVJ9jW0jGq7vt6ZH2gjzflWry3bdFD7VpoICp9P43wkOUZvH3Pbjlkn/3kIToeeDaIq28levwxRhaiqXlFV6X4ZlbtI1BfAdevWOcVwKqKKglhyQURUFS+IF5x/q2K4a9cuPST0H//xH+WGG26QF198UY4fPy5nPYOftCDu+Wyz/PCHPwwURJ5ZRTojlRZVis2bNsuo30+X1e+tDkxXy61d+6H+hZWRI0dK3759ZebMmfr/DbO1XYyAZAnIhBBx8wKSISQgNLZpdkwxoQWPv1+mnAlLjUT7lUBUea9VHQnsq24/X2NM/HUTi6oU59BtW+23Wt7/rzNNtZHbVpLzbawbonRRZfnclHCMuW3HrIOoAhuIqmwne/0yRBWiqjpFVTX0y6jcRaLvg3a+/CctiE23BC+MYWofH1/GgjhJRl9l3+41Q1/KF8NOLIitd0a3de2wpjIWxAlyn7ed+2YhqrIiqkxjr4phnz595Nlnn9X2/sYbb5SJEyfK0aNHtcFPWhBPHNlp/cJKSEdTDaJq69atMu7xRv1fc/q776zU69x///2a6dOnS69evWTBggWRdpNQraLKHKUTmF42UeXjLqtqiZ5X6Jx4BM5hgGRCJnxMOUmnltft5vc1eI6SnG/12jhfBh0RVXrfPDkV2KdEx5jsvASPFcAFUZXtpO2X7d74sNzlfQbumhwUVasev9z9fPQaIKsT98uekAFeewNerj5RRb8sWb8MUdU9+mVU7iL50Y9+pP+f6KoTVUvulWtUm1fdJ+8nEFUKV1Y5hbBTCmKjjPm+fTsUxGhBRFTFF8SLTkEMF8NXXnlFDh06pDvhqij+/Oc/10Xx8GFn33IGv3BBPP7FJ9aCeNlll+n5hJSaSoiqpmktASEVJ6r27t0r27Zt059z9ZPAav3x48fLwIEDI+0mISBZwhLIJG6eISySiZN4wmLCfd2QE1Z6eng/UuxXUErZ5FWenCwqdE48AufQJCxgEu1r/nWbsw/+/rlSST1o3lw/yflWr+37r/Y77viL44tE9d+0xxjaR+s6tmMDQFRlPWn7ZV0iqiJ9skqIKvplafpliKrO65edP6d+EbA8/TIqd5GoE3rx4sUUBdEfYjpORlzpvgG1g8bpgrinE4eYvj/4CvcNjhFV1wyZ7BXEYXK390Go6TfMLYadURCn/0+3TYd7phtDTN/5vdxT1oLIrX9ZElUXnYKovnCEi6H6JbOHH35Y2/vNmzfLkCFD9P+LNmnSJPnyS2cftay6WFJBVBDSkXS1qFqx/B0ZO6RR//rf+vXrraJK/XfFinf1UGx1q5+68K9atUqjvlSoWwB3795tbb8QYcmiX4fEQ+Ch4qZQicieJOIkHtV+YDktMIL7Z5Maxfcruox7nMYybfXR5b3tRtt3jqk+1FZIVGnRZRE20bZswsydFljfPxfh/Uhwvu0jp9RyFqGUw7ZfQXS7ThvhYy9+jOF9dF+b67jnL9nnBnoWXPeznfT9ss4WVdF+WbRPVgFRRb8sVb8MUdU9+mVU7iJJXxCTi6pZtwbfpLumuAVx1m3+tCtkZJtbEFf7RdCZdk2v/Do+1wyZVFRU3T3VK4ZeQfxg6HcDbdRc9VtZ6xXEljv86d+VMcvdgvjhk9/zpn1PxgyLKYihe6HDQ1DvnekXxLFyrz+tyft37S/k3lpv2bueyxXEDSP+1lv/JnktxtxvHPl33jIeA17IFcR5dxvTHX49G1FVLaJKFUP1KxKqI20Ww9/97ndy/fXXy89+9jMZO3as7pwPHTpUbrnlFmlubtbrKYOPqCKViPpc2TpI5UQ9LH3a5GYtrGZNb5UP136oRZV6VtXcOfPk+aHTZePGjfrvQ0kqG1dffbW17ULYJIuelvt7skgh428tKDKSiZM4VNu2dQPbsI6+KbZfCl/++PNDbfsiyMcihHLzHMz2w9vWBNYPUnxfvWUssqf4ubVMU8cW3h/btADFRZV/zmL33zu+6DHG77e/vJqn2gguA4CoynrS98vSiKpB+WWnTJCRRn9rwEu+pAqOqGq+Pb+Mj+qT+aJqdmj+3VN9UWX2z55y/33Vb+SDT4fnp097RZ7O3SnzXXn67cVyaNqN3muH79fLh8VEFf0ya78MUdU9+mVU7iJJXxCTiaqwpPIZMEVZe6M43vaE83qIURTnxhbF+Fv/viOjlxnW3mFOP9tyij7SomXVtHxxvGOUfN4+Su7xlrlnuiqKT+deu/xPaQ0VRNt90op7ZwYLYo7aB+W14Ubx8wria3d58+8aL7YhpvMGePNNvIJonefw6zmIqmoQVWfPntE/dTp58mSZOnWqfPTRR7oY/vKXv9TT1E+ZqpEgqiiuXbtWT2tra9OjRs6fR1SRykR9rmwdpK5g3Yfr9K/8PTe4UYuq8cMapWFUo6xauUrPV//vVr9+/fQtgCaLFi3SsircHoBCSZ+wXCsooQCqFK772U76fllpoipKb5mVUlSFJZWPklWmqMoRElVJuPbJaa6ool+Wql+GqOoe/TIqd5GkL4gJRNWiAVKr35jLZeRid4jp6ie8EVNaTM2RfS/19t68K2TAbd6824ckvvXPRm5E1bLfuPdSq2nTvCGmb/82N+2aoa+6w0tz1v57cs8d3miqO0Z7BXGpfL7id3Ktt06O7/9ePlQF8d1/9ub9VxnzrjvEdN3w/+ou039ssCDW/kHW+0NMVz6Ua/O+JlUQnzcKoBpiGiqIqx+WH3ivfzDyDW+I6RsydpRTEN9/xJt3pYxd4w4v3TT6Sr1szd2TurQgIqrsBVHdC60svLoX2iyGc+bM0dPVM3aefvppuemmm2TcuHH6tZp+4fz5ku+FVhDSkajPla2D1FWoLwSLFy2RF55ulPmvv6m/VPjzureoCo5qMkGalJv8CCk92ik0ig6gu8B1P9tJ3y8rUVTd9rh769+U673PkH+XS/QZVdZb/5be5/WrviOjl7q3/a0Z8h13Of0oFkNUaUHl9M/0rX+GqLpjuL7LZa1xB8zd09Stf9Pyz6OiX1ZSvwxR1T36ZVTuIklfEBOIqik/ibxBOXrdLau9e6HztwAqektzSc+oekNm50ZP3SBzlKiaeoO3riqM+Xuhc7f73THSFVUO+VsAFTdKqz/E1Pt1Cf0TqCt+HyyMd46RL2b8zFgvhFMA1wWGmJr3QrfIM94w02tHtMqRppu8df4oG2wP7Zv1K3d+za9kXvhe6OabvXkWrnlMNndhQURU2QvixfP5Yqh+ctgshsrqq3ueVSdbFcVf/epX8txzz+nXPKOKVDLqc2XrIFUDjKgCgJ4M1/1sJ32/LIGounWQ2z8L3PrnP6PKEFP69r+EouqVn7rTbFx1v3wQuPVPSaqoqLp7mveMqml9vHVvlBbvGVWtuT6bIarolyXulyGquke/jMpdJOkLYnFRtdovjDXXy6wCD+0LiqorZNSS0kTVgan/5LWhbgE0nk2VWlR9T8Yst4gqxWfLjCGlP5MxT3mWvqavtFof2hdXEFfJev/e59qH5DXv39eOdIqjpSDm7oGufVg2hgriplH+/dE3y7wKP7QPUWUviKrw+fdCKzvf0tKip507d8YpeOed5c/p4qceAj1mzBi54447eEYVqXjU58rWQaoGlKhSzxVQYspE/ToLogoAsg7X/Wwnfb9sbKg/lhdVTf5jWMogqt73R0/V/FRm6/6Yj+0ZVZ0squiXIaoy0i+jchdJ+oKYbkRV7RMTcpJq9RPXy8jFnqjK3frXWwb4wqrXvfJ+alE1xbgd0BtRVeTWv7uneb8ukbv170a5xy+I6sF9qiBO/59y7bBGe0H8/j/Lh4a5v/apWbmCuG54XxmzsnBBPLzKH2b6t3Kttvh/K8+sVsXQYu4LDTE1zP0PRs/PFcTNo2+RsR8gqqpBVJ09c1rftqR+pcwvhufPKSuvfur0fKAo7tq1Sy+3YsUKfevThQvnO70gEpIk6nNl6yBVAwsWLNBCykbv3r2t6wAAZAWu+9lOKf2yplv8z8F10uSLqoV3eY9hUVJKSaryjajK98nU7X//JKOXlUFU0S9L1S9DVHWPfhmVu0hKKYhFRdXm8YFfkshzhSeq8kWw9okG2dd2b66Yqoep61FVLweHlBZ+mLrLNUNfcp9RVehh6lcN9H75b2SuUOoH9S2vzw0j1Q9TN35dIsy1+mdQm/L3Twf4r8UL4p78MFNNbnippSAWfGifUxivscxT90YjqqpCVKl7oZWlV4VQFblzZ8/IpYuqGOYLoi6KF887y53NLaeLIc+oIhWK+lzZOkgAAFBZuO5nOyX1yxb2z/WjIuSeT1W6qLL1yfbH9snU3S3lEVXuMlHol0X7ZYiq7tEvo3IXSUkFsaiocon88t9tjzsF0fw5VP8XJlplVu6XI9QtgK6sMn9popiociVV/lf/VEGMyCrvoX2Htr9q/Byqei5VW7AoqlsAV4R/XcLlnsbCP4Na0/9ZpxgWK4jGMFMHfU90gYJoK4o/GPWGHmZq+xlU94F9iKpqEVVfXzwj58+f1cb+64tnrQXx0tcX5GsH9bA+txheRFSRikV9rmwdJAAAqCxc97Od0vtlj+QkVI5bHw30y0oWVZY+mXuni+WX/24fVqZb/+iXpemXIao63i9Tsqrc/TIqd5GUXhAV/n3Q7r3QYVG1d7N6PlX8M6rytMo+/SD1fEHU+MNLc7f+OWxT2O6FVpIqKKrcgph/RtWh7V5B1LjPqDrkFUQXpxDaHqbuDTF1fwI1WBC/1PdB2+6FfkcO71KF0CdYEBXqJ1Bd/GKoeF9zdK8qhvmC6BJ6aJ9XEI8dUFT2XmhEVeGCqAqhT1xBvHTpglcIfRBVpDJRnytbBwkAACoL1/1sJ3v9Mq9vRr+sS/tliKru0S+jchdJ9goiogpRhagipCNRnytbBwkAACoL1/1sJ3v9MkQVogpRFRcqd5FkryAiqhBViCpCOhL1ubJ1kAAAoLJw3c92stcvQ1QhqhBVcaFyF0n2CiKiClGFqCKkI1GfK1sHqRK8t2q1jP7DDBnx25mybOnb1mUAAHoKXPeznez1yxBViCpEVVyo3EWSvYKIqEJUIaoI6UjU58rWQepKNm3aJM8PnSGP/bJZJoxolIljZ8oTN8+WZx9tlDXvr7GuAwCQdbjuZzvZ65chqhBViKq4ULmLJHsFEVGFqEJUEdKRqM+VrYPUFezevUcmjZ2pBdWzjzfqUVRbtmzRLH97hYx/qlEG9W2V55+aLtu3b7e2AQCQVbjuZzvZ65chqhBViKq4ULmLJHsFEVGFqEJUEdKRqM+VrYNUTo4dOybTX2qWJ25ultH/PF3mz1uYE1RhlixeKs887I62emlCkxw6dMjaZhLa6tXfTJ00tNvnK5IsE6RdGuqcdeoapN06P4reRn2bfbqlnfzy6bcVh2qzrqHdOq/zaJN6p0bVt8UfMwDEw3U/28levwxRhahCVMWFyl0k2SuITiGkIHZ5QURUdY+CSEiSqM+VrYNUTpYsXqZHSg0b0FRQUvksXrhEnvr1TL2OWt7WZhK0LFF/N3HCpL1B6vTfVRpRVQJt9c426qUtMN2TUJFtu9OV7MlP6zhdIarUNvL7XZ7jAMgyXPeznez1yxBViCpEVVyo3EWSvYLoFEIKYpcXRERV9yiIhCSJ+lzZOkjlZMG8hTLl+Zn6eVRqpNSIgTOkecZc2bxpc0BQtTS/rkdTKUH13NDpMmnsDL2urc0kaDlTXy91EUnk0t5QJzV1dc78MosqLcRC2/Cm1YVljm3ZTqDsokrtd3jkl20aAMTCdT/byV6/DFGFqEJUxYXKXSSdXxAHyV01P5FZiCpEFaKq6goiIUmiPle2DlI5UbLp5QlNcvDgQdm4caNMGT9TBt88W568Z4ZMm9wsM6bOkafub9QPVJ/4zAxZ+8Favaxap8OiqqFNj+yJShp1m1qdNLTFSSTj7y4wIssdKZRvL/9abc9fJ7i98DqeJHPa1euY7avRVzm5U8q2XMz5/nbCy+l98JcJtRNZ3jsnplQzl1FtRfdD7W+ZJSBAhuC6n+1kr1+GqEJUIariQuUukvQFcayMuPJyGbEwXxBXDbrceROcaYsQVYgqRFU1F0RCkkR9rmwdpHJiiiqf9vZ2aXxljjx5V7MMvr1Zpk6aJR9/vDWwTOeIqvaQ/PHwp1lGMLU31Buv889dcl/b5ZH628wto2/1C7fpiin/ddy+qen55Urblm7DPF69jNmOt0xgpJl7nLllQvsVbcPdF3c/zH8HUduxTQeAKFz3s53s9csQVYgqRFVcqNxF0uGCOPk6qbmyv6xiRFWPLoiIqu5REAlJEvW5snWQyolNVPmo0VQK27xOE1Uxskm/toiqMPl21OsYeWSOirKJGy16fDHkjebS2zT/HV6vhG3FHE/gGOKO2dzH0DJaONUb8krP949H7YOlPQf7SCsAsMF1P9vJXr8MUYWoQlTFhcpdJB0qiKoY1lwnTdrg2wvi6ieU1fffqOtlllEQZ91mvIm3D8kVxPcHX2Gs81NpRlRVfUFEVHWPgkhIkqjPla2DVE4qL6pCI5pMyVJA7Jh/d2FZFP86bpohywKjlQzRFJA/+XmpthUQYnkCoipmmeC5MPZL77ta3v+vM021kRNmxvQQiCqA5HDdz3ay1y9DVCGqEFVxoXIXSckFcXJ/qc0Vw7iCOEFG3jZAVnvWXhXA2icmuAXxpd5S0+seWR0x9xNl1O33yvueuW++vUauGTIJUVXlBRFR1T0KIiFJoj5Xtg5SOakGUWWOXApMj4gqVyiZo5aC7ZQgjzz8dsK3AeZeBwSWrZ0E2+o0URXaL72/7raUvIqek6js89sI7i8AxMF1P9vJXr8MUYWoQlTFhcpdJKUVRPek1w4a5xXDuIIYGmI65Xqpue0JtyC23eMU1N4yq9gQ01d+KjW3D0VUVXlBRFR1j4JISJKoz5Wtg1ROqkNU+a8bcsJKTw+LKovEiUqZQq/jpnnip65e6j3Zk5vnbbM+tL8lbSsi3pIu46D2I/xcKud1m7Pf/v664kk9oN5cX7Vvac9BnbvAsQJALFz3s53s9csQVYgqRFVcqNxFUlpBVENMH3EKX43cNblIQVRF0Hyz/IKoCqGy93q6UxjNgviyUwTNdRBVVV8QEVXdoyASkiTqc2XrIJUTJZsmjZ0hu3btisioOFG1d+9evU5niipX0Dh/R8Zopoi0sYqrQrIogTzy8bcfkUTeKK5iginRttzXpnDSgixwDO65CY7ecvchKJUs++UfQ2DduJFTal/CxwQAcXDdz3ay1y9DVCGqEFVxoXIXSekFcYbsWaiGmfpF0VIQVTHslR9iGjD32th76OGmalipUxBVMdT/LtXcO4WQgtjlBRFR1T0KIiFJoj5Xtg5SOVG/5jdhRKOMH9Yoc2a9Jtu3b88JqbCoUjLr9db58vxT0/TyG9ZvsLaZhIio8iROQMaExZSDL3Y09W2dNqLKnx6WPAotjiK345W6LW873jGoedFz4W8zj23kk17GIrTCbenzGD4u2zQAiIXrfraTvX4ZogpRhaiKC5W7SDpUEJWx10VRvY4WxNWPX+4UwEG5Iab6IX22gth2r9R6BVE/sE8/wM8tiOpeaERV9RdERFX3KIiEJIn6XNk6SOXm1KlT8tay5fLC040ydkijzHx1jqxfvz4nqrZs2SKzZ86V5wY3SsOoRlmyeKkcPXrU2hZUJ0pqmbIr/BoACsN1P9vJXr8MUYWoQlTFhcpdJB0uiAr9KxM1cteU8BDTCTKyV/5Nuus2w9znhpcqrpCRS/whphNllLHOgNsZUdUdCiKiqnsUREKSRH2ubB2krmTN+2vk5ReaZNzjjfL8sEYZ/9Q0La8mPzdT3n1npZw9e9a6HlQ7+dsH9Ugs8xZLACgK1/1sJ3v9MkQVogpRFRcqd5GkL4iNsmejKoZGQdT45l4VQp/QQ/sc9hk/g5qnwEP7ciQtiE4hpCB2eUFEVHWPgkhIkqjPla2DVAnULYFqZFXjK7M7dIsfAEAW4Lqf7WSvX4aoQlQhquJC5S6S7BVERBWiClFFSEeiPle2DhIAAFQWrvvZTvb6ZYgqRBWiKi5U7iLJXkFEVCGqEFWEdCTqc2XrIAEAQGXhup/tZK9fhqhCVCGq4kLlLpLsFUREFaIKUUVIR6I+V7YOEgAAVBau+9lO9vpliCpEFaIqLlTuIsleQURUIaoQVYR0JOpzZesgAQBAZeG6n+1kr1+GqEJUIariQuUukuwVREQVogpRRUhHoj5Xtg4SAABUFq772U72+mWIKkQVoiouVO4iyV5BRFQhqhBVhHQk6nNl6yABAEBl4bqf7WSvX4aoQlQhquJC5S6S7BVERBWiClFFSEeiPle2DlJXsm3bNmkYMV3WrPnAOh8AoCfCdT/byV6/DFGFqEJUxYXKXSTZK4iIKkQVooqQjkR9rmwdpK7ipQkz5fGbWmVQ3xZ57GdztbA6efKkdVkAgJ4E1/1sJ3v9MkQVogpRFRcqd5FkryAiqhBViCpCOhL1ubJ1kMrN228tl2F3N2lBNf6pabJhw0Z5cewMGXRzqwy5rVnmvbbAuh4AQE+B6362k71+GaIKUYWoiguVu0iyVxARVYgqRBUhHYn6XNk6SOXiwIED8tzg6TLoF7Nl+G9myJLFS2XLli05Vq1cJWMemqHnj/njDNnRvsPaTkdoqw//HdVLm2W5zqNdGupqpK6h3TKv83CPq04a2u3zFUmW6Wqi70f17eOFC21S7+xXfZu3v/VtlmW6CvfzVFPXIO3W+S5qP8v9mYPywnU/28levwxRhahCVMWFyl0k2SuITiGkIHZ5QURUdY+CSEiSqM+VrYNULhpGNcqgvq3yzMONAUEVZvyI6e5yj023tlMarmyIdPDb6vXfkpIQweU7i64UVQ5xEqW9Qep03ahCURXeZ+89qawQyqP2Mf/5cN/P8n1eOgdEVfeH6362k71+GaIKUYWoiguVu0iyVxCdQkhB7PKCiKjqHgWRkCRRnytbB6lcvDShSYb/1h0xNew3s+TN+YsCguqtZctlxO9cmTXsnmaZNHaGtZ1S0EIkbhSKFiPlGlnVdaKqrr5e6mKOo72hzjn+Omd+NxBVCk+sVVwIqf0If25s06oMRFX3h+t+tpO9fhmiClGFqIoLlbtIslcQnUJIQezygoio6h4FkZAkUZ8rWwepXEx9cZbMbXlDlixeJk/e4wqrZx9t1M+sGjdUjaJqkaG3N8vsmXP1cmp5Wzvpyd+6VWy+VZyERJZeJvd3aIohX0q1ubdnaSlkEVW50U0exvas29fLFxZprphwtxsVFOr4nH1pU+1ERZWWWMb+BNe3nTvLqCJ/FJSHOS/+fMUcb4F5hfbVPQfR8xzeF3eZ/Pti7l/w2N3thae56xYQfpbt+liPN/T5Kvx+WD5PDuYxqPYj5wK6HVz3s53s9csQVYgqRFVcqNxFkr2C6BRCCmKXF0REVfcoiIQkifpc2TpI5cIXVQcPHtTMeGWODL55th5BpX79b+IzzvVmzx49r1NFVWLR43TsLaOrzE5/WDS4I5X80TWuRAjeXhcVC+0N9cb8kAiybF9vI0bm+AT233Z7o5qmz0NQsOjjCWzP3Z/8/iYQVeF2ndcN3rzC5ys638S6bKF9DR+7PpfmsZj77b9X4XMffe+Cx+6i9sU23cV2zjz0Nop8vgq+H9HPk16n4HFDd4TrfraTvX4ZogpRhaiKC5W7SLJXEJ1CSEHs8oKIqOoeBZGQJFGfK1sHqVyERZVi86bNMur302X1e6sD09Vya9d+KNu3b5eRI0dK3759ZebMmXLmzBlr2wWxyIEwurOvhUlYMqjXnrywCi9jvi8/AuIlKhbCmKIiuv14WWKSb6PA+hahZL0VMHC+wu0pQvtkPS9x083zZZ53cxmXgKhKsq+hZVTb9fXO/EAb/v7Ev1fBc2fZpoPat9JEUPh8GucjyTF6+5jbdsw6wc8UdEe47mc72euXIaoQVYiquFC5iyR7BdEphBTELi+IiKruURAJSRL1ubJ1kMqFTVRt3bpVxj3eqP9rTn/3nZV6nfvvv18zffp06dWrlyxYsCDSblESiiq/Yx+QJ2pdX3TodqJ/hwpXPIQkgsY2zduGsb45P3b7BTD3PzACy5QzYakRd14CyyUQVd7r8HEUP1+hYw0REFWJ9tXcL7Xfann/v8401UZuW0neK2PdEKWLqmKfr2THmNt2zDrm5wG6J1z3s53s9csQVYgqRFVcqNxFkr2C6BRCCmKXF0REVfcoiIQkifpc2TpI5UKJqqZpLQEhFSeq9u7dK9u2bZPLLrtM9u3bp9cfP368DBw4MNJucWyyxSQ035AHgQ5/nEjIkVR+OH+/hpyJSAUlJmzbL0BwObUNV2wEppdNVPl4x+YvX/R8uftnF1XJhEz4mHKSTi2v283va/AcJXmv1GvjfBl0RFTpfUvz+UJU9Ui47mc72euXIaoQVYiquFC5iyR7BdEphBTELi+IiKruURAJSRL1ubJ1kMrFiuXvyNghjfrX/9avX28VVeq/K1a8K2fPntW3+ilRtWrVKs3gwYP1LYC7d++2tl8ILUT8kSshtNwIdPZ90aP+a0wPi54ICeSHRSxEpYIvSPLCKT/PTrgN93VDcP3w/scdjyFS/P0PSimbvMqTk0VFz5f3vthEVfg8JdrX/Os2Zx/8/XOlknrQvLl+gvcq9z748/Oo/Y47/uKk/HxZ3o/cPlrXsR0bdDe47mc72euXIaoQVYiquFC5iyR7BdEphBTELi+IiKruURAJSRL1ubJ1kMqJelj6tMnNWljNmt4qH679UIsq9ayquXPmyfNDp8vGjRulublZSyobV199tbXtwrhyJSyrXEkVlQNabtR5wsWYrsVKoI12aaiPkQi2aWGxoIVMVCrkth/a3zjCosrdjrOv5v5bpEb0eKISKryMfm0u4xxDZHlvu9H2zfMVXNYn7j2JtmUTZt77bK7vn4vwfhR7rxxcyRV8b9zlovuXx7ZfQZJ/vsJthffRfW2u456/6GcKuhdc97Od7PXLEFWIKkRVXKjcRZK9gugUQgpilxdERFX3KIiEJIn6XNk6SF3Bug/X6V/5e25woxZV44c1SsOoRlm1cpWeP2nSJOnXr5++BdBk0aJFWlaF20uKFgGBv6Pg6KYcntyIygZPDBhtxEsE+zRfJGjq2/Q+RaRC7PbtRNtwtxtY3yKqFOFzEt2mL3/8+aG2fRHkYxFCuXkOZvvR98MhsH6Q4vvqLWORPcXeF+s0dWzh/bFNC1BcVBV6fwsfY/x++8ureaqN4DLQ3eC6n+1kr1+GqEJUIariQuUukuwVRKcQUhC7vCAiqrpHQSQkSdTnytZB6irU7X2LFy2RF55ulPmvvymnTp3KzSuXqOo2aJERI9GgS1HSJyzXCkoogE6A6362k71+GaIKUYWoiguVu0iyVxCdQkhB7PKCiKjqHgWRkCRRnytbB6ka6NmiyhshE7gtLDiqyQRpUm7yI6T0aKfQ7XoA5YDrfraTvX4ZogpRhaiKC5W7SLJXEJ1CSEHs8oKIqOoeBZGQJFGfK1sHqRpQoqpPnz5aTJlMnDgx06Iqd9sXMgSgR8N1P9vJXr8MUYWoQlTFhcpdJNkriIgqRBWiipCORH2ubB2kamDBggVaSNno3bu3dR0AgKzAdT/byV6/DFGFqEJUxYXKXSTqhKrngexrX+mwSrM/wHuyf0eY1Rbel/2fvS8HAqyx8IEc2BlmreZgmF0fxrAuyO51cmj3egsbguxRbIzw+Z5NQfYqNlv4KM8+ly/2bbHwcZ79PlsjfLl/W54DPp+E+DTIwU/l8MHtFtqDHFLsiOGzHEc+N9kZwy458kWY3QGOfrHH5UuTvRb2uRzOc+zwfgsHXI6YHIxw/MghOX40zOcWvpDjx4J8dexLC4flq+M2jgQ4ofhKcdTCsSAnFMdznMzxVZCTihMWTuY4pTilOOWcn718YSVlifpc2TpIAABQWbjuZzv0y+iXdUa/LNc3C/TLbH2zMvTLIn0z+mVxoXIXiTqh6uTu3/0xAHQjjh8/zhdWUpaoz5WtgwQAAJWF6362Q78MoHtSSr+Myl0kfofEHWIKAN0FvrCScsW/LgAAQHXBdT/boV8G0D0ppT5TuYuEggjQPeELKylX/OsCAABUF1z3sx36ZQDdk1LqM5W7SCiIAN0TvrCScsW/LgAAQHXBdT/boV8G0D0ppT5TuYuEggjQPeELKylX/OtCJdm2bZs0jJgua9Z8YJ0PANAT4bqf7dAvA+ielFKfqdxFQkEE6J7whZWUK/51oVK8NGGmPH5Tqwzq2yKP/WyuFlbq11VsywIA9CS47mc79MsAuiel1Gcqd5FQEAG6J3xhJeWKf13oat5+a7kMu7tJC6rxT02TDRs2yotjZ8igm1tlyG3NMu+1Bdb1AAB6Clz3sx36ZQDdk1Lq8/+/vbOLtaPI7j2KoigPUZQ8RMpDpDjKSx6iRLpSpNxwyUQ342Q0ukGWLtLEzMiawZovkjH4zExGjJjBcDD+AAbwx/EBm8/x2efYx1/A+IA/MNjgAxgbYyNj6/ogYRuBXwIPWFhRHur2Wt29d1X1qq7q3rt37937v6Sf7N1dVV1V3f1ftdbpvRvK7TEIIgDDCRassKos9Qv94pNPPlGbxqfUqlt3qXV3TKvDB19R586dazN/fF49ctc073/k59Pqw4UPxXbKcGgse/8snlwQy/YDqT9jh+SyQ8WhMce4FtTkYn3O4883LJ5UC3YbGey6EofUWHIsntuxQ0KZfhE2NupnndcgGGzg95ttiMsAGE7K6DOU22MQRACGEyxYYVVZ6hf6xeRDLbVq6V716N0tI0FlM7F+Ki53z5TYThkyyYuFSbU4uof6kiig5I2VtMj0hxM8i9XkQqdMEELb4rY+ECffxtQhfXs0z2M8xyHJJhf+unTsTqIvLj/oiT8kqkAe8PvNNsRlAAwnZfQZyu2xQRDEmWV0Ev9Krdsv7ydCylQJHf8rv3xE3AdAHWDBCqvKUr/QL57eskOtuzN+YmrNHTvVS/sPGAmqV48cVet/HCez1tw+q7ZtmBbbKUMmMRSxMLm4P0/ehCSqtCeCOtsCGJBEFc9l7jErTFRR0tE+trRtwECiCuQBv99sQ1wWBuIyMGiU0Wcot8cGRxAjlt0l7v9o/3L1FT7RBQVx69fVDX+3XB2X9hUEgggGDSxYYVVZ6hf6xXNP7FT79vxGHT54RD1we5yweuyXLf7Nqo2r6SmqPWr1bbNq18w+LkflpXbKICWqnNva95j1dBAlgLT7T08queqZ2yOS42WPTYkq/YkqKXFlPikkte06HsHJJG2fmSTpJIP0NsISKSFJNjvZJCef7D7Gbcp103mmOtl+UpmcJ9SSJ+qkPmfPTQSf+855DZ3LzjbrfCXnKttvAGLg95ttiMvCQFwGBo0y+gzl9livBPH/nXhK3B4Ci82yr0ei93U1I+w//su/ioTtr6L9EEQAUrBghVVlqV/oF2mi6tNPP2Wmn92txpft4ieo6O1/Wx+dVpcvX+Z9lSeqOFFhJjLsMsZTQnb56POknjBy1SMCnqjK9C8gUcUEPlHF7RuJt7j9bPJHa5+TMwFfR+S5sZJ6GezkTTaZEyd/tHbac2yW5bG0xyfMSQKVk7bH5CTXrKQUQW0Zxw+YS31sZp8j+BhmGQB04PebbYjLwkBcBgaNMvoM5fZYLwTx3Vcn1P/6n/9Dfeeb/0fc7yMWm7vUur+TROcu9T0Swq2Uvc8KItXtXAgdQTW3R2h/FWCB1fZJQmfUj+rqgsj77L8y8F8XZEEHoAqwYIVVZalf6Bd2oop4/+z76qGfTKm33nzL2E7lTp48pS5evKgefPBBtXTpUjUzM6O+/PJLsW0fcXJBw07uiMkWSkAkiRpXMsZXjz47E0c6dkJISqQISRmh7cw27qOQcDISMnHbZrLMnQQyMNpxYSdv7M/WnBl0ymaSWbxPrkdlyyWC7Lm3r4OwuWwf21FHT34BYAO/32xDXIa4DAwnZfQZyu2xbgUxFcM//dM/VTd//StiGR9tsZEy7ek2FhxTEG1hijP8Wn2hvVjodOEiwTVFkcvY7ehl+LMpfnxsWyQBqBAsWGFVWeoX+oWUqDp//rzaeG+L/9W3v/H6ca6zYsUKZmpqSt14441qbm4u024InBhKkzCcOBASPtb9lRKXi5MP9NlILnjrJWWkRJXwBFWn7R4mqriPQiLJSKBYyRVG2ibgat/Absv6nNtGUnaxnaQiaJ7keuUTVdb50eezzFw66iBRBfKA32+2IS5DXAaGkzL6DOX2WDeCqIthTwQxEafvbU33PcLZfP5sC6KYKU+y/GkZWxAFUW2XS9tylOn0kT7n9FOrA0CVYMEKq8pSv9AvKFG1Y/seIyHlSlRduXJFXbhwQS1atEh9/PHHXH9iYkKtXLky024ImcSQnTzITZToxAkkuv84YRRSj8p4E1X2VwaHKFElJf4y2G2FJXP0sjcsXiwch/YJTzhFdJOo0ufQSCiVmUtHHSSqQB7w+802xGURiMvAEFJGn6HcHisriLYY9kYQrQy4Lnq2ULGIZS8Eoi1MtiDqwqejt+0oYwpi/LndT/s4APQBLFhhVVnqF/rFsaOvqw33t/jtf6dPnxYTVfTvsWNvqOvXr/NX/ShRNT8/z4yPj/NXAC9duiS2n0c2MWQlE4xEgx9OKlF7IfW0pEe6zZ+oivtnJmWE5JXQdmabq49GOWs+nNtkeDx2PwzstorMv1aWkz56Odon16M+5SfP8qC5pnatJ7bKzKVYx54PAEzg95ttiMsiEJeBIaSMPkO5PVZGECUx7JUg6tl3Y7soiIK46VQoiFwnaTuzD4A+gAUrrCpL/UI/oR9L3/7kLCesdk7tVadOnuJEFf1W1b7dL6rNq6fUmTNn1OzsLCepJG666Sax7TykxJCd9MgmWxbU5FjyOSqrJz309nLrEXwc84maTH84mWEmLux2+XNUJpOosp/WcR3P6KOd9JISJ0WSKXF75jEionGNcX27rWzb8fjMpJD0Y+qc0NPOm/zkFNUREkpthKSfBbdLXze0rpvicxl/1uvEYwidWzCKwO832xCXRSAuA0NIGX2GcnusjCD+35v/d0YMeyeI6efl5uOitiDanyVsQXTV0cuJZeJHSE3Ro21UznqsFYA+gQUrrCpL/UIdvHvqXX7L36bxFieqJta01ORDLTV/fJ73b9u2TS1fvpy/Aqhz4MABTlbZ7fng5IKdqMokEJLP2j3WTj4kiaT2PiNRkVPP3q8nt7Ty2TpEkvxp74/b8bUtb8seU2rHTJxI2/LJjitNPNltyW2b9dNEU7ZsWo7HQOdGSJBlthn4E1XpOZfKlJ3LtDztozbs8QOQAr/fbENcFoG4DAwhZfQZyu2xMoK486lfqFU/+06GuR2rxfI+MplvFqXoxOo/gicIFdUzBI9Eapn2WcjCZ+vI32vWy/Bjr1EZUxDj7V+JRNFsD4D+gAUrrCpL/UJd0Nf7Dh44rB7/VUvtf+Elde3atfa+XieqQLOhpI+eLLI/AzBswO832xCXIS4Dw0kZfYZye6yMIPaajCAmomT8CF5ORl2/EIw6+n5NXFkUnXWsehHUt2wfIxLhztYHoHqwYIVVZalfGESQqBo0zKe7dAYjIdR5Qoqfdso8PQfAcAG/32xDXIa4DAwnZfQZyu2xQRDEoYUF0fN9bAAqAgtWWFWW+oVBhBJVt9xyCyemdLZu3YpEFQCg8cDvN9sQl3UB4jJQI2X0GcrtMQhiWZLsvv4YLAB9BAtWWFWW+oVBZG5ujhNSEkuWLBHrAABAU4Dfb7YhLisL4jJQL2X0GcrtMQhicdqPqEIMQY1gwQqrylK/AAAAYLCA32+2IS4rDuIyMAiU0Wcot8cgiAAMJ1iwwqqy1C8AAAAYLOD3m22IywAYTsroM5TbYxBEAIYTLFhhVVnqFwAAAAwW8PvNNsRlAAwnZfQZyu0xCCIAwwkWrLCqLPULAAAABgv4/WYb4jIAhpMy+gzl9hgEEYDhBAtWWFWW+gUAAACDBfx+sw1xGQDDSRl9hnJ7DIIIwHCCBSusKkv9Qp1cuHBBTa6fUidOvCPuBwCAUQR+v9mGuAyA4aSMPkO5PQZBBGA4wYIVVpWlfqEunt4yo+795l61aukedc839nHC6osvvhDLAgDAKAG/32xDXAbAcFJGn6HcHoMgAjCcYMEKq8pSv9BvXnv1qFrzwx2coJpYu129994Z9cSGabVq2V51/3dm1YvPz4n1AABgVIDfb7YhLgNgOCmjz1Buj6WC+MXnHwMAhggsWGFVWeoX+sUnn3yiNo1PqVW37lLr7phWhw++os6dO9dm/vi8euSuad7/yM+n1YcLH4rtlOXQmHUPjR0SyxVjQU0uvkEtnlwQ9rlx98VuL/58w+JJtaDVt6H2ivYhBO6na54OjUV9H1OHpH0G5eYoGO6HNpcRY4doX8XH7QPyeT2kxpIx5p6fvlDv9dlk4PebbYjLABhOyugzlNtj/Q5IAAC9AwtWWBXWb78w+VBLrVq6Vz16d8tIUNlMrJ+Ky90zJbZTnCSYtgL6Q5P5wXUYRZMhvr6US65UlgjISUaFJ0nKjSkE7oPdv4VJNcbHqu64/UI6r7QtTsQR8Rg7nweTyq7PBgO/32xDXAbA8FJUn6HcHoMgAjC8YMEKq8L67Ree3rJDrbszfmJqzR071Uv7DxgJqlePHFXrfxwns9bcPqu2bZgW2ynMwqRafMNiNbkg7OuagskQb18GLFGlPb0Ttl2imoTRwuRiz5M8DUxU0fVjj1naNmAgUVUc+P1mG+IyAIaXovoM5fbYIAnim/NvqYd/Nq3W3zmjjrzymlgGANABC1ZYFdZvv/DcEzvVvj2/UYcPHlEP3B4nrB77ZYt/s2rjanqKao9afdus2jWzj8tReamd4oQlVTjxod1f7fKcXNLuPeMpIjkZQoF5py39iR9fX+z2AtqP+iMlAtx9SNs8xP/e4EnicTv2k1P2k1aF5kiag7iMPS/l55HoHFdvx56n0L7nthFh9LXwOQlrg67R7LGpjznnMBmfNFd8PM+5te8L8/j2uY3xjQP4gd9vtiEuA2B4KarPUG6PDYIgnj17Vm1ePa3u+das2rK+pbZumFH3LYsDlRNvnxDrAACwYIVVY/32C2mi6tNPP2Wmn92txiMfQE9Q0dv/tj46rS5fvsz7epuo6gTbrmA53m8mXiaTwH5hckxLAtgJkmygbgf/3Lb2xEt+X+z2HO3rT9Akv9EU3oe4TV+Cqo3w9b9s+0XmKCxRlTsGTr5kEz0m6Ti1dnks5rhD+u5ro/tzEtJGdo5SqK60PSYnqec4t+kxuU/G/rgtu0+ZcXrmAviB32+2IS4DYHgpqs9Qbo/VKYiXLl1W2yLxIyF87N4WZ+vTr3ocfe2Ymlgbf9Vj89opdfHiRbENAEYZLFhhVVi//YKdqCLeP/u+eugnU+qtN98ytlO5kydPsU948MEH1dKlS9XMzIz68ssvxbaD0J6cMYNmCr4DkzYReiCfCdTFBIrQvrMvduAvtZ/tq9Enbx/iNvWkST52osM/X7lzlGmvU6a9zTcGIcGSRRqn3ZcsUt+lNsy+dnlOQtrg48rzTkmvvDG5yTm3jj6Zc2/NZ9A4QAjw+802xGUADC9F9RnK7bE6BPHzzz9XU0/PqvuWzaqHfzql9r/4clsIbejtT4/eHWf16XdMrl69KrZZiOSveDrxYsy/UO0WWpTZx06p6rjiMXlxnSy09b9w5hI2P8UWnp3FMPczOECqgrD5GKSFNRassCqs335BSlSdP39ebYwWyvSvvv2N149znRUrVjBTU1PqxhtvVHNzc5l2C5P6hlSHApIetr52tMHSS8HvpHSSARp2XzL6K7Wf7auhV94+hGm8jqHb1L6gn8FzlEmOdMq0t/nG4JgHE2mc8tjD+y5s68U5CWmD500ec/lEVc65dc2xkYwqMRcgCPj9ZtsoxWW2vhL16wHiElCeovoM5fZYHYJIv0PCP4r7gx25Yphy8OXDau2PZrgOlZfaDCUWRWuxFC2u6ngTUCXCoi8mE3ontGHzU2RcVLYTlMTtdz4PJpWct5JgwQqrwvrtFyhRtWP7HiMh5UpUXblyRV24cEEtWrRIffxx/DrgiYkJtXLlyky7pdCDbVdAzsSLWV1bTW0IC9RzyQv8A9s3+uTtQ5jGG2htZrWx4BwFJ6pyxsBz5vMj0jjlvoT3XdjWi3MS0gYfV3jCKaKbRBUfO1lPBPUZiaq+AL/fbBuluIzufyM+SfS7L5qg6Zu+nfqEuASUpag+Q7k9VocgzkWi9tTmGf7eM2Xk16+cVrPT+/irHroQ7pl9gbP2JISbVk/xm56ortRmCPbvPmSRFp7VUYmwCMKbcQSlCZuf4HGRQ7LPh7RtwBgkh4AFK6wK67dfOHb0dbXh/hb/dfb06dNioor+PXbsDXX9+nX+qh8lqubn55nx8XH+CuClS5fE9ouhJUuMwNtCCLxNbbD0Mq8tJ3rixtbfkPaL9iFM403SPtK/VttF5yj5bAYF+hxEBMwj+7zCvt7aVrjvwrZenJOQNviz3Ab1uXyQlZ5T+lebC1efjfVHibkAQcDvN9tGKS5jrbbiE47VehKzeBDiJdYpxCWgC4rqM5TbY3UJ4jNRQELBx5kzZ9RTEzP8w7n0tqftT86q6ed2q7UrWvzDffQjuiffOcllqU55QbQWuyLyoomFtH2xWX8R5MWXtt8Q17Q9+Q1KecLiOiYLuNGHeFzUjlknIukLbxdFv+h4A8pHx6HPRhle8HfKpOdA/ksvHUNecDPJfEvnURynFWzE89fpi3n8kuOrESxYYVVYHX6Bfiyd9J8SVjun9qpTJ09xoooWyvt2v6g2R4ti8hezs7OcpJK46aabxLadkJ5YmmFrbHz/azoY1eEfU2ct0rQq0bmONmT1hNsyFrxRmbHks7cvdnvyZ739VO+C+5BpM4y2rkoL/C7nKJ5/U/Pzx0DEflHqj/vpaWtbib5nt8Wf9X6UPSe+Nmib2Ze0bo4/DVgXcbtRGzdY12a2z3Zb5eYC+IHfb7aNTlyW6IikLdK29rWuxyURjhgjr565PSI5XikdZV+BuATEFNVnKLfH6hbElIWFBdV6drd64Puzavy2WfXctp3qgw/Mr3x0JYgsJJa4ZcgKgi0yLCjGQivkrUCywLmEJf+YZh95ny6CJIDG4tEhlEzR8TrK68ezF/P2Yj/6HL8xK27LJezS9pichbUl/gS1lfaF+2rsj9vqjKfE+GoGC1ZYFVaHX0h599S7vBDeNN7iRNXEmpaafKil5o/P8/5t27ap5cuX81cAdQ4cOMDJKru9fGINMO4fSz+JWDtSOnpmLDAj3dT1RtKTdFunLV3LfH2x2/O3T/vMPmXLELbPMssHkCzUpXrF58ich7FDcRlT8/PG0ME8b0Sq/9Jxs9vKnl9pW9oO7St2TgLboHNgX7vSNoMcf5qSnNuQ+ZX6XHwugA/4/WbbyMRlEawhenzCemPGTHYZIy6xy0ef07fy5tYjMvFSrE8urXPrZI6OjmBcMuoU1Wcot8cGRRBTKGtPSPu6EkRBLLJYgsACaNchEZETT4QuQO1FmS7CGmbZhJBjtssIfckIbyqEJrGgFh2vVD47F8a4xDYJakueR3ImmXkJIhb4jrPQ+u7oq3ldlBhfzWDBCqvC6vALOvT1voMHDqvHf9VS+194SV27dq29r7eJKgD6Texn3EFPecg36e3an0EzgN9vto1MXBaRiU+s+MUbl7hiDF89+pyJlxCXgO4pqs9Qbo+NjCCWSVRxnezFRtiLQX1fRyys9ixEYSl4TLG+lKgSk2VFxyuVz86pOa64DrVh9pXEWj4f5R2CNVZ9Lhx9NUW/zPjqBQtWWBVWh18IBYmqfhIvsiWNQQKkHPxXfe9apCydoMjt98GwA7/fbBuZuCzC0Clej1u+JTAuoc/GutxbLyljxEuIS0D3FNVnKLfHRkYQJQHMECYIHZJFvLYYNMXCas9CFBbvMWPixa6jfleJqrxjdyOYnYCn41yEvyREdOMQ9PEb/XCNDYkqGCxjdfiFUChRdcstt3BiSmfr1q1IVIEBI/Yphj5b/hmAosDvN9tGJi6LyMQn9rrbtXbPYMUYIfWojKHHiEtA9xTVZyi3x0ZOEHMXiZYgGGIhIAiGKRZWexaisPiOSXCZ6Ljpv/q+jPAm4w5JVHmPHVI+f8ycYOO+UDn5WNTf/IRiHuSsqF3rLyOusRnz1f34+g0WrLAqrA6/EMrc3BwnpCSWLFki1gEAgKYAv99sG7m4zIhPQtbhbtoxRki9TLyEuAR0T1F9hnJ7rC5BpFeafvTRRxnRcwkifbWj29egtjPudrIquvFdbwJiEbWFTH9Lky4YnLjS6+eLB7Ut7cs9ptVmRuS5D9nkmekIUgqON1M+/qyXzzzpFfVHF3e9L/JfKKhN2VHExOcwz2Fwu1Eb9pizY7PbKjG+msGCFVaF1eEXAAAA+IHfb7aNUlwmxiccx3TigNy4JCfGyK1HCPES4hLQLUX1GcrtsToEkd4asWV9/Dan3TufVxcvXmwLny2IJJov7N2vNq/dzuXfO/2e2GYRWBiMCygVKlsQOtv08roYpQLBRAJEbduC4hIPs6yO+5guUbOPmfanXcd2BFrZ8PH6y9M+Y1yczNPa0/tO+4yxOLYZ+B1CekypDM+F1h+zTInx1QwWrLAqrA6/AAAAwA/8frNtlOIyOT5J1t3tWMBchxPttXtejJFXz96f9gFxCeiSovoM5fZYXQEJvcXp1SNH+a1OG+5vqZlf71anT59uC+K5c+fUrpl9/IpyejX54YOvqM8++0xsCwwvJK66KNufQT5YsMKqsLr8AgAAgHzg95ttiMvqBXEJ6Iai+gzl9tggBCQn3j6hnnl8h9p4b0ttXtNSE2u3s0g+uWlGvfH6cX5VuVQPNIHOXyLIGchPfgEXWLDCqrBB8AsAAACywO832xCX1Q3iElCeovoM5fbYIAUk9OgpZfBbz+7qyVf8AGg6WLDCqrBB8gsAAAA6wO832xCXATC8FNVnKLfHEJAAMLxgwQqrwgbBL1y4cEFNrp9SJ068I+4HAIBRBH6/2Ya4DIDhpag+Q7k9BkEEYHjBghVWhdXtF57eMqPu/eZetWrpHnXPN/ZxwuqLL74QywIAwCgBv99sQ1wGwPBSVJ+h3B6DIAIwvGDBCqvC6vILr716VK354Q5OUNFvYrz33hn1xIZptWrZXnX/d2bVi8/PifUAAGBUgN9vtiEuA2B4KarPUG6PQRABGF6wYIVVYf32C5988onaND6lVt26S627Y5rfJkRvGEqZPz6vHrlrmvc/8vNp9eHCh2I7ZeEfTNXvodp+PFV6FXUCv956sZpcsLY7SV5hnfta7UFhkH68NmzeqJ94HTioA/j9ZhviMgCGl6L6DOX2GAQRgOEFC1ZYFdZvv0Cvul61dK969O6WkaCymVg/FZe7Z0pspzhJUsJKjByarCu508tElcChsYFMXFHSp/P673gOBv114EhUgbqA32+2IS4DYHgpqs9Qbo9BEAEYXrBghVVh/fYLT2/ZodbdGT8xteaOneql/QeMBNWrR46q9T+Ok1lrbp9V2zZMi+0UphfJn54ygokqGpfdJ2nbgIFEFagL+P1mG+IyAIaXovoM5fYYBBGA4QULVlgV1m+/8NwTO9W+Pb9Rhw8eUQ/cHiesHvtli3+zauNqeopqj1p926zaNbOPy1F5qZ3idL5yJu3PJCM4WWSWN8ok+9v3ovGkVicJRXXaZYyETGiiSm7LrGe2ZRyT0Ppm7htThzJtHOJ/b+Dj29vS7VF5Y/x6OxGUJGvv68zhwuRiq98EHSMnKSechxQei/3VQT52pz90TL0vefOWYsxR1D59zvYbgOqB32+2IS4DYHgpqs9Qbo8NkiC+Of+Wevhn02r9nTPqyCuviWUAAB2wYIVVYf32C2mi6tNPP2Wmn92txpft4ieo6O1/Wx+dVpcvX+Z9vU1UdZIWYtLBfgIpSbZ0ysZJjU7SZUxLrthJsLgs1c9saydW5CQJIySqjLa4b3pyR2jLHk+Endjh+WiXSY+TbVffFtdZrD0FZR3b6Hv8eZL7HZdzJZyk7TE5CUYrKUXoSaU44aTvj9uyz6k+b1wn9zoAoH/A7zfbEJcBMLwU1Wcot8cGQRDPnj2rNq+eVvd8a1ZtWd9SWzfMqPuiIIX+on7i7RNiHQAAFqywaqzffsFOVBHvn31fPfSTKfXWm28Z26ncyZOn1MWLF9WDDz6oli5dqmZmZtSXX34pth2E9iSQkXywEiycPBnTkj2833pySENPkLQTPLlP+2STJG2Mvkht2UkfoS07USX2nxI3/uNk58lMHBkJL+c8UVtaAkuD6ovz4MVOYmnjMeZQI+8cOOqY5xaA/gG/32xDXAbA8FJUn6HcHqtTEC9duqy2ReJHQvjYvS3O1qe/SXL0tWNqYm38mySb105xUCK1UQT+q6gdJAhwueiicv61Vl/olyQ9hkEP2q2GzsI/dA7dCEFOZfTzWPWABSusCuu3X5ASVefPn1cbI79A/+rb33j9ONdZsWIFMzU1pW688UY1NzeXabcwyZMyHY2LNST2BaSDlMxI/03KW3poa3tHfxx6ZCRCcjTLW87eJpSx/Vc6XoF4zCHHIbRkULrNOFZch9rN1pMSWN0kqiw/pfeDxyscL29uHXXoGGX7B0A3wO8320YpLiMy8VBXMUaK5Kfyccc3nRgo/pzTtuZLMuPSqMp3SMcUY9nKcM1NZw7d89wvkvWIJ+amfpY5T0X1GcrtsToE8fPPP1dTT8+q+5bNqod/OqX2v/hyWwht6DXlj94dZ/XpB3evXr0qthlC6M3RvtGli9hYfAci1KntRi3Rf+qrLdDlha+48yhPP49VD1iwwqqwfvsFSlTt2L7HSEi5ElVXrlxRFy5cUIsWLVIff/wx15+YmFArV67MtFsK6wkafjKItJq0kzW7o4HmQiZeiOm6bu536BEfr5MIMeu4yklt2duEMrb+02dHoigm5DiEL1GVksxRROxDqC2rXkI3iSr92MZ8usaLRBUYIuD3m22jE5fFWmvHQr15667kp/IhTbf7ElMuUaVvr8RfCD42MwbuTzcxW1HkuaF+2fPXvz6Vo+w5K6rPUG6P1SGI9IO5/PamH+zIFcOUgy8fVmt/NMN1qLzUZghuETKJy03KQiQuvj2EiEm/KNp/Ejm7vLQtmOLOozz9PFY9YMEKq8L67ReOHX1dbbi/xYve06dPi4kq+vfYsTfU9evX+at+lKian59nxsfH+SuAly5dEtsvhrUoTTTz0OTi9rY4iUI/Jq4tSKmcldAwFzoOPbI0mRNjkr4a5aS27G1CGVv/HYvqDiHHIUITVTHt5B+3JR+f5q78QjbtD/2rnRPXePPmVqwjzQEA/QF+v9k2MnGZ1/90Q3GNdsdlQ5yoinCuKSpBmBuaE/v40rYBo+w5K6rPUG6P1SGIc5GoPbV5hr/3TBn59Sun1ez0Pv5NEl0I98y+wFl7EsJNq6f4leRUV2ozhMwNTDe5dhGlItQux/stwRGEgUVAa0e/sLktbV96fElMOqQ3epG3KnXEwTim1lepL2I/+Bhx23FAZt+odKwc55L0UQ4y/P1MyZvXsDKCYDYMLFhhVVgdfoF+LH37k7OcsNo5tVedOnmKE1XkF/btflFtjnzAmTNn1OzsLCepJG666SaxbSekVZb+xZqia2u8SDV8QarDum7xNq1M4l86+hPrkelT4rZNjRK2ZTRV0jZ7m1CG+5RNppn6G9UbSz+HHIegPls+QfeV0f91f6D7nVI+JhM4ZOF2ozbS46Rkx2u3ZY8v/qzXSf1Ott8AVA/8frNtdOIyv44T9jq/XT71wymG1kt+yo6DBF9ox0OMz0do2OuABGrb5S9cfXKtRagds05E0m9pDNxO6r8C50xvX+q3q8/S3LAvzrRB5XJ8fGbN00Eao722sa8Z8/gB10bUPn2Wxu6jqD5DuT1WlyA+s2UH/5WcAo+nJmb4DU/0WnIKVKaf263WrmjxD/fR255OvnOSy1KdniWqbDGJPsdvITLLZW4IffGd7ncIiatOu559o7WJb6JCb1Vq18mKaV7/7Zub4GNxnbi+Syik7TF5ziesnyHz6i8Tt1tGaIYFLFhhVVgdfiHl3VPvsu5vGm9xompiTUtNPtRS88fnef+2bdvU8uXL+SuAOgcOHOBkld1ePrFmGPePpdUEa42xXdD5CGNxFOkZ1cvqkf4HCJc+Zftl6qmkbfY2dxlus6232rbMsUKOQ1B/rUWn7mvsxbE+l7TPnnNpm0E8P24fFJEcUyoT+44OoXOblqd95rkFoH/A7zfbRikuS32mS0vj/do6X4vVQt6yq7fLuq/FGXFc1fEz9v4O/rbbsN8JT1Tl98k8Du/T+xcYW+rbCr+ZmGNEczxF+px+Nn1sDLUjbY/J8fFC3Eptpcfk/hWMDbmOPpd8DLNMKEX1GcrtsboFMWVhYUG1nt2tHvj+rBq/bVY9t22n+uAD87dJep+oMi90sZx9s2QW31lBytxEep2E+EYyybuJpEW3JA66eDDevshCFX+m/wvji6Bjl7mBg/oZMq9Bcy/MY8PAghVWhdXhF3To630HDxxWj/+qpfa/8JK6du1ae19vE1X9pPl6VBbyh7pvsz8DADrA7zfbRikuY5L4hq5h0z9SfCLHIBLkNzr1LX/Lx9BiIcZsX4rLdOw4SfTljtjE7FtCQJ86ZYS5yMRzyRj0+IpjIvccSnNmxmfxtvbYvX2254Y+y8cvH0fS8fTzoR3fMf+5sWGRcxZAUX2GcntsUAQxhbL2hLSvp4mq9IaMLh77QrRvdE4IpRe4LgzGha9hX/QhYmJg3+iET6SkOhFF+2Lsp2MK44voNlGV28+QeQ0p4zpWg8CCFVaF1eEXQkGiqol0Fp75vhEAAL/fbBuluMyA1/Wa/rvW+RrsL7R7oONfLX+bti2QJjzcvsdOjOT4cjvmSqC2M+UD+pTWpW1ifSmeM9qS+6KXcc6ZtM3bZ7uNKuJI61zp88D9KxgbOuqI5yyAovoM5fbYKAmicWG3iQWILiK3WGkXdeEbIkKvkyD3JUUSC+qnJThGu1KdCO6L1kehL1wm2WbemNRmVuSIahJVST9D5jVo7h3HahBYsMKqsDr8QiiUqLrllls4MaWzdetWJKoAAI0Hfr/ZNkpxWYaQdT6TxG5aHJWNX7TPuW3FuOMyO1FlH0tDj2U0xPIBfSLihyUc9QvFlgXnTNrm7bPdBn3udRwZoY3dGIOrf3mxoaOO8xx7KKrPUG6PjZIg5t3ALATJPrFcepFPasJgXPgatnjYnyPy+iKLRclEVUBfOkJiH8MtMNR/XbTDCehnyLwGzb3jWA0CC1ZYFVaHXwhlbm6OE1ISS5YsEesAAEBTgN9vto1SXJZFSwq51vkErfWt5IKZWLDW/3ltJbjjsmyiimPGTCwVIcZYdt8SAvoUl4nGmf6r7xOOlRtbFp0zaZu3z3Yb9FkuT8cuF0cSabxK/2pjcvUvLzYU60hzEUZRfYZye2yUBNG4gaOL1s6Op/tcNzpvpwtOEwbeZghFVtBc4uAUE/EGSW9KrZxw43nfKCX0heDMdiQmtujJGW+38MQIc9AmrJ8h8+ovU15ohgUsWGFVWB1+AQAAgB/4/WbbyMRllCCw4iBOAGkxShx3mYkI/jF1O7nAsY2+3s+u/7MxQ1Sm/YbbvLhMimmycUvcJzn2obalWCS/T+YYMv0rGluWmLPi85gt3/s4MqYdt1rjzfbPFxvGn/U68XVoz0UYRfUZyu2xugSRXmn60UcfZUTPJYj0GyTdvQbVuoETQWlfRNoF6r7R44vdvAGS8lpb2RsruQlof9KuXScmFZzsjR4f27qphUSV/41S2b4wLoGl7dZ4xW0GeQIT2s+QefWVkeaxWWDBCqvC6vALAAAA/MDvN9tGJy5LYiodIbYw1/mdOChNJjBRPEPlOut9af2vxT8JeszAx8mJ/bIxSLb/ctwTty3HIu4+cX+M+YiPZ4+R6+mxpTiGmLJzFj6PQvmex5EJrrg1gudB7B/hHxPtc5+zfIrqM5TbY3UIIr01Ysv6+LXju3c+ry5evNgWPlsQSTRf2LtfbV67ncu/d/o9sU0g3XgF4Bs++6QVQTerfpPbn0F9YMEKq8Lq8AsAAAD8wO832xCXgaYxSnFkUX2GcnusroCEXjf+6pGj/PrxDfe31Myvd6vTp0+3BfHcuXNq18w+tWm8pSYfaqnDB19Rn332mdgWILpJVCWZZGcWvpPZJnHJy9aD/oIFK6wKq8svAAAAyAd+v9mGuAw0j9GJI4vqM5TbY4MQkJx4+4R65vEdauO9LbV5TUtNrN3OIvnkphn1xuvH1fXr18V6QKdcoooFg24iJJ+GEixYYVXYIPgFAAAAWeD3m22IywAYXorqM5TbY4MUkNCjp5TBbz27C4+SAhAAFqywKmwQ/MKFCxfU5PopdeLEO+J+AAAYReD3m22IywAYXorqM5TbY4MkiACAYmDBCqvC6vYLT2+ZUfd+c69atXSPuucb+zhh9cUXX4hlAQBglIDfb7YhLgNgeCmqz1Buj0EQARhesGCFVWF1+YXXXj2q1vxwByeo6KsG7713Rj2xYVqtWrZX3f+dWfXi83NiPQAAGBXg95ttiMsAGF6K6jOU22MQRACGFyxYYVVYv/3CJ598ojaNT6lVt+5S6+6Y5h9ppR9uTZk/Pq8euWua9z/y82n14cKHYjtFaf9Gn0DpN6h6kI7Zj7ff1DHWNofGMseMx9zl22oHAJrXbP8H6Ydjk5el5L4K3DUOMIjA7zfbEJcBMLwU1Wcot8cgiAAML1iwwqqwfvsFeoPQqqV71aN3t4wElc3E+qm43D1TYjvdUEmgTgkaK0GQSVxwEmexmlzolKmafo2V4PHeMKYO6dsXJtUYH7+ZiSra1kk+xmPsRzKyGyq5JkAlwO832xCXATC8FNVnKLfHIIgADC9YsMKqsH77hae37FDr7oyfmFpzx0710v4DRoKKXpm9/sdxMmvN7bNq24ZpsZ1u6FfyhhM3xhM2nadvOtuqpV9jXZhc7HmSp4GJqoVJtdges7RtwECianiA32+2IS4DYHgpqs9Qbo9BEAEYXrBghVVh/fYLzz2xU+3b8xt1+OAR9cDtccLqsV+2+DerNq6mp6j2qNW3zapdM/u4HJWX2umGvECdk0vt+6vzdBAnYoynheKkE7Vj1olIklO8PZOoyj5RFbfdqa/3Le+4aZk8+jPWkARcJ1Glt5HpGyV60rYJY/4C24gw+hm1QZ/tcuZY9PGGtUHzlD029THnqblkfNJc8fGM8UbwU3j2uen0yzy+nAz0jQMMLvD7zTbEZQAML0X1GcrtsUESxDfn31IP/2xarb9zRh155TWxDACgAxassCqs334hTVR9+umnzPSzu9X4sl38BBW9/W/ro9Pq8uXLvK/fiSo7UcBJgfbTMWYSgPfpSYWAJ6rsz+1tuYkoz3E99GWsnHzJJnpM4jZJs9pJGk7CmEmdhckx7bOdAAtrg8em94/LmPOQP/6QNuK+uBJO0vaYnKQeH8OcR2orPSb3qcC10q7jmQswuMDvN9sQlwEwvBTVZyi3xwZBEM+ePas2r55W93xrVm1Z31JbN8yo+6Ighf6ifuLtE2IdAAAWrLBqrN9+wU5UEe+ffV899JMp9dabbxnbqdzJk6fUxYsX1YMPPqiWLl2qZmZm1Jdffim2HYoe/LcRky2UCNCSIO0y1naCEgB6QiAiTizoWHW4PWsbYScs8o7roS9jFRIsWZIkk5FkyyZWbMz+u9toJ34cc2q04xt/SBt83GwZgpJeeWNyQ33Qk1j+Pplzb81n0DjAIAO/32xDXAbA8FJUn6HcHqtTEC9duqy2ReJHQvjYvS3O1qe/SXL0tWNqYm38mySb105xUCK1URRajBkXj7G4LYt/Ya2T6YNGVQtF6Zjuv+52Q2dRzcfsyfyWJQlgrEDRZpgX6FiwwqqwfvsFKVF1/vx5tTHyC/Svvv2N149znRUrVjBTU1PqxhtvVHNzc5l2iyDqAAf82fuL0PUz1VexvpSoMnQx1sx2XVeCR0gwOI/roS9jdY3DQPKdsj9Nj5vS2R/QhqMvxjz4xh/SBp9LeczlE1XJ2NNrRp9n1xwb10qJuQADDfx+sw1xWU1xmeu4bc3MaVPT3Mx4NKrSWOmY1cR4LlxzM3oxYVF9hnJ7rA5B/Pzzz9XU07PqvmWz6uGfTqn9L77cFkIbek35o3fHWX36wd2rV6+KbfpJLlDrJjk0mX/BhlFMEHW6vSFE9IVsQkYgWHiFv8R2CR2nI47xvPRXLItTyTnoE1iwwqqwfvsFSlTt2L7HSEi5ElVXrlxRFy5cUIsWLVIff/wx15+YmFArV67MtFsEUQdciQAL/opYdN+J9b2JKusrZq5jCokq53E99GWs3F+f/ku+094WL3T1OTP7H9CGY2xGO77xh7TBx5X9ajeJKn1ug/qMRFWjgd9vtiEuM31mOSS/kEOO/pM2xn3MaVPwz0Qluqr5g3Rbp4/JtiD/20vkuaF+jVpMWFSfodweq0MQ6Qdz+e1NP9iRK4YpB18+rNb+aIbrUHmpTS8OEekNBQVRozYR07LcnW1dQnNsHVfcNmBUcg76BBassCqs337h2NHX1Yb7W7zoPX36tJioon+PHXtDXb9+nb/qR4mq+fl5Znx8nL8CeOnSJbH9EEQdCPEbXCZa4Kb/6vuCtNhKVLmOabeVd1wPfR1rrv5LvtPaRu1axzL7H9CGOLaQMhohbfBnuQ3qc3l/S/6a2rWe2HL12TgXJeYCDDTw+802xGW9oKimuWIifXtOm46xiL62W8qsKypHmBuaE/v40rYBo9tzVlSfodweq0MQ5yJRe2rzDH/vmTLy61dOq9npffybJLoQ7pl9gbP2JISbVk/xK8mprtSmn7DETPrX4pR2eRYh7aIzBEEWLxaOdh05kMi7IVz14z7q7cVjo3bMOhFJP3l7JlGVFVV7/Hrf8o6b7s+OheYmxxEl8yqdl2yfI6ygJa+/Qeclap8+Z/s9HGDBCqvC6vAL9GPp25+c5YTVzqm96tTJU5yoIr+wb/eLanPkA86cOaNmZ2c5SSVx0003iW2H4NIB1gtjYRXpylj62dSYjGY5kixGmUQD9WNnj2n7L89xPVD5fow17XdmsRyNeYzbMduMsbbx/Gg+hI+j1wloI/ms9yP1HXq9kPH72ijlBzPnNwu3G7Vhn+dsn/OvldBxgMEFfr/ZhrjMJNWnlHb5HsdlGZ9GGH5NbpOx/VQCtenSVVdf4vHqfYvnidox60Qk/ZX6zu2kOh84V3r7Ur9dfZbmhn1Wpg0q1+yYsKg+Q7k9VpcgPrNlB/+VnAKPpyZm+A1P9FpyClSmn9ut1q5o8Q/30dueTr5zkstSnfKC2LmAXRdgRhyiG2YyuVlC3jqkt2vfUIZgaLhuiPz65vF4n37z0o1rHctuz/7c3uYQx/hz3nHjfS5xcTuiHEclBD7UVnr8ov1t19HnJhP0DBdYsMKqsDr8Qsq7p95l3d803uJE1cSalpp8qKXmj8/z/m3btqnly5fzVwB1Dhw4wMkqu71QdG0xiXVEv79SvcroiUODuF6ilbFumbh001XGf9x8+jXWlOyYU93OarS0LfbNSd2obbP/YW0Y/Yugfdl5MMsQ5rkJaIMW2pb/FbcZ5PjBFN8CPumTq8/F5wIMKvD7zTbEZfb+PsVljpijU0fS0gTW5/BEVX5fzOPwPt2nBsR49raevTk3sM/pZ5e/krbH5PjCIYkJi+ozlNtjdQtiysLCgmo9u1s98P1ZNX7brHpu2071wQfmb5N0K4hMstiji8a8EOmCzvuLp4l+c2Qufj6GeTO52jfbSQip3y4jtOsSMe2G6f2bpmgOhPoRJGblbno6hi5Y2jGD+iudl2wd8RwMCViwwqqwOvyCDn297+CBw+rxX7XU/hdeUteuXWvvqypRBUYN90K6W8in6O3anwHoBvj9ZhvisnSfEN/kYK7ly8RlOTEHf7ba1CkSX4T0pV1GmANXjGcns4T+pEhzZSa6LP/o7bM9N/RZPn7TY8Ki+gzl9tigCGIKZe0JaV9PBDGFL17txjQuZhkWAu2is2/y9ue0bQF7sSreEIH10/6I9b3Z9viGN/ssjF+4keXjUnvy/JUXJavf+riC+iudl2wd8RwMCViwwqqwOvxCKEhU5RHruqQJtu8ZdfivwR6fX57OgjrrewHoDvj9ZhvisvriMmfMwVht6hRJehTpS7RNrF/0YQShjHOupG3ePtttjG5MWFSfodweG1lBJPQL2HWRM8niX1tsmhdy2MUvId4QgfXjhbajvjdRldQvdJPHyMelOcgKI9GNKOljMeYqqL/9EaU6wYIVVoXV4RdCoUTVLbfcwokpna1btyJRBRzEvsDQSctHAjAswO832xCX1RiXaeWk2MAZL3C/A+OLwL50G+N1KDhX0jZvn+026PNoxoRF9RnK7bGRFkTtr55SQqaNcDHn3uR5bVmIN0RI/VQU03/1fdqNnG6j49giZiSqXMe023Ie1y1KdGz9rwTFoHNE7dK/2vGC+htyXqwyQwYWrLAqrA6/EMrc3BwnpCSWLFki1gEAgKYAv99sQ1xWZ1yWHj+NPcz9RtykI8RdRJ0xXpuicyVt8/bZboM+y+WbHhMW1Wcot8dGRhDpgpQSNdqFzje6deHzj/bZFzPf9PYNaV7Y3JYhJFGZ9tuDOphiYW531zePx2X1sTlEySjDY/L1WXMY/Dn/uHKWnOrIYhVjHyMLtxu1YfQ/omh/0896nfgakM/BMIAFK6wKq8MvAAAA8AO/32xDXFZvXJbGBWbZlDjOMGKGJJ6S4hg6phRf5PfF7DuXLRrj6ZSYq+Lzly0/qjFhUX2GcnusLkGkV5p+9NFHGdFzCSL9BkkvXoNqXDiCCPGF3i7TuZnawkVENweVsy9288JOboB2W8VELK++62bM3HxUL7mRzXHFuPrjKuM9LomhPafSNgO/KPmcgKu/IeeF9lEb8jkYfLBghVVhdfgFAAAAfuD3m22Iy8xy5jq/+rgsjTnccUG2364Yxh1fuPvC4y0T41mJG52ycyVta7cT0Rm3UH5EY8Ki+gzl9lgdgkhvjdiyPn7t+O6dz6uLFy+2hc8WRBLNF/buV5vXbufy751+T2wTDAZ0g+vCYH8GvQULVlgVVodfAAAA4Ad+v9mGuAw0hVGMCYvqM5TbY3UFJPS68VePHOXXj2+4v6Vmfr1bnT59ui2I586dU7tm9qlN4y01+VBLHT74ivrss8/EtsAg0cmGkyDlZfhB92DBCqvC6vILAAAA8oHfb7YhLgPNYfRiwqL6DOX22CAEJCfePqGeeXyH2nhvS21e01ITa7ezSD65aUa98fpxdf36dbEeAKMOFqywKmwQ/AIAAIAs8PvNNsRlAAwvRfUZyu2xQQpI6NFTyuC3nt2FR0kBCAALVlgVNgh+4cKFC2py/ZQ6ceIdcT8AAIwi8PvNNsRlAAwvRfUZyu2xQRJEAEAxsGCFVWF1+4Wnt8yoe7+5V61aukfd8419nLD64osvxLIAADBKwO832xCXATC8FNVnKLfHIIgADC9YsMKqsLr8wmuvHlVrfriDE1T0VYP33jujntgwrVYt26vu/86sevH5ObEeAACMCvD7zTbEZQAML0X1GcrtMQgiAMMLFqywKqzffuGTTz5Rm8an1Kpbd6l1d0zzj7TSD7emzB+fV4/cNc37H/n5tPpw4UOxnaLk/rjnobHoXhpTh8RXGifwa5Lj12VzW8K9SHTzquM8pGP29406OXMjkOlve+6TV0Tnvra6BHwOzWPG81Os34MIzWW2/4P0w7Vh51QeB8gDfr/ZhrgMgOGlqD5DuT0GQQRgeMGCFVaF9dsv0BuEVi3dqx69u2UkqGwm1k/F5e6ZEtspTDsZld3XCfTDElX69kqCb+qrFfRnkhHcn34mq0ITPknSwkqcHJrscWJKg+fGPrfR/IxxX5uZqKJtnXMfj7G/icviVHKvNBz4/WYb4jIAhpei+gzl9hgEEYDhBQtWWBXWb7/w9JYdat2d8RNTa+7YqV7af8BIUNErs9f/OE5mrbl9Vm3bMC22U5zOEyju7UOUqIpYmFzc+yeTnAQmfBzzVBX+OWhgoorm2B6ztG3AQKKqOPD7zTbEZQAML0X1GcrtMQgiAMMLFqywKqzffuG5J3aqfXt+ow4fPKIeuD1OWD32yxb/ZtXG1fQU1R61+rZZtWtmH5ej8lI7ZZCSPeaTVr1NVPHx2vdq54kfTq4YTwDFyTJqx6wTkfRX6ruRpOH+ZevFdMalty/129Xn8ISPKyGYYrUjfGWP0Ou7++Q7FhE49irmL2qDPtvl3OMJa4POe/bY1MecBGEyPmmu+HjWtWU/gRhfs51+mceXrw3fOIAf+P1mG+IyAIaXovoM5fbYIAnim/NvqYd/Nq3W3zmjjrzymlgGANABC1ZYFdZvv5Amqj799FNm+tndanzZLn6Cit7+t/XRaXX58mXe1+tElR18E2aQLi3DDzMAABEMSURBVAfcTMFElR38m0/+mMfhfXqiIPCJKn3bwuSY1jc7gRMfj/SivY3nwhxPkT7nkSY15LL57dh9yO0Tn5NsosckbOw9mz/9vHEZc6z5cxzSRtyXTt86UF1pe0xOUo+Pkb0v0mNyn4z9cVt2nzLj9MwF8AO/32xDXAbA8FJUn6HcHhsEQTx79qzavHpa3fOtWbVlfUtt3TCj7ouCFPqL+om3T4h1AABYsMKqsX77BTtRRbx/9n310E+m1FtvvmVsp3InT55SFy9eVA8++KBaunSpmpmZUV9++aXYth87WKfPerIhJ4lSJFElJlCsY7XL2H2IoKBeD/IjOPDXEhxx4J/tT4rZryTRote3Ex7ePufMjQS3F2uUWSenHTth4uuTkGDJ4h573ljKzV/2fBjt+MYT0gYfN1uGoKRX3pjcUB8c94WjT+bcW/MZNA4QAvx+sw1xGQDDS1F9hnJ7rE5BvHTpstoWiR8J4WP3tjhbn/4mydHXjqmJtfFvkmxeO8VBidRGKLQYki4cov+LJP+CWKeOvovH5AV5sji3AiY3YWMttljtLKC5n0ag0G/C5qPY+MLBghVWhfXbL0iJqvPnz6uNkV+gf/Xtb7x+nOusWLGCmZqaUjfeeKOam5vLtBuKoSOZhFCOhhUJvjmIz96rRCcZkPQl2ibWlxJVRltyX/QynXalcVnbvH0O0/cMabtt7Xa1YydLInx94v1hiarcsSd0P3/ZvhjXR8nxGG3wPMljLp+oSsYu3ReuOTbuhxJzAYKA32+2jUpclmJrbL1regIxBihPUX2GcnusDkH8/PPP1dTTs+q+ZbPq4Z9Oqf0vvtwWQht6Tfmjd8dZffrB3atXr4ptFqH+G1peEIdQSd/1BWhC78Q5bKxFxkVlO4FL3L4RyAwgVV1zWLDCqrB++wVKVO3YvsdISLkSVVeuXFEXLlxQixYtUh9//DHXn5iYUCtXrsy0G4wWREv3qvP+5cA8MPh2BfcWzq/IFdbpeLGt7zf7JWmztc3b5/K+LDepkSCOz9cnbtfnEwLGXuH8Ge34xhPSBh83m6QkuklU8bGTay6oz0hU9QX4/Wbb6MRlsUbYGl/l22BDIE1CjAHKUlSfodweq0MQ6Qdz+e1NP9iRK4YpB18+rNb+aIbrUHmpzSLUf0NbC7gCVNJ3bTGabqPjuAOgIoSNNXhctBC2/7IgbRswqrrmsGCFVWH99gvHjr6uNtzf4kXv6dOnxUQV/Xvs2Bvq+vXr/FU/SlTNz88z4+Pj/BXAS5cuie37Sf+CSv9mA377N4PaCNpJiPe7EcQ74DJRMJ/+q+8rqtNCYsDsl6TN1jZvn8v7Mv2v1mI7jsRGyDzyvOT6hICxVzZ/IWU0Qtrgz3Ib1OfyQVZ6P9C/2ly4+mxcoyXmAgQBv99sG5m4zKd9dUB9sn2HtG3AMH0TqJOi+gzl9lgdgjgXidpTm2f4e8+UkV+/clrNTu/j3yTRhXDP7AuctSch3LR6il9JTnWlNouQd0Onf81OkcrxIjgtEwUJUnv5ZeTFmVFHWqAnZVx9d9WPx6S3FwcI1I5ZJyIJeni7GAAV7XtAeWkOOUjolEkX2vJfh+kYOc6OnaG8WBfHaQUo+ddEyfH1CCxYYVVYHX6Bfix9+5OznLDaObVXnTp5ihNV5Bf27X5RbY58wJkzZ9Ts7CwnqSRuuukmse0Q2ve5uCDtaGZ7m0dXpPuddcFoP9KPMTmwz2iTI3GS0a8UOwhINLXTL0m7stuK9NkJ9cXqp+mX7Hb0JFaW/D4Rcf3MuYz6McbHkPptbevJ/MWf9X6k15leL2SOfW3QNrMvad28QDB/ngluN2rDvs6yfbbbKjcXwA/8frNtdOIyv84b2iD4XKNMsr99Txia1dEj1q60jKFhJXVU6FcKH8v20UMUY4DiFNVnKLfH6hLEZ7bs4L+SU+Dx1MQMv+GJXktOgcr0c7vV2hUt/uE+etvTyXdOclmqU2WiKr7x9UAgFlG9LJfRhS2zeA0pkxUerqOJGQuXJaBpOWffnfXN4/E+XTipf9ax7PY6FO27o3ze/NgBQvR5kh1A3JbLGbicXa4ztBwGQW2lfeG+5l4TJcbXQ7BghVVhdfiFlHdPvcu6v2m8xYmqiTUtNflQS80fn+f927ZtU8uXL+evAOocOHCAk1V2e8Eki033fRrf+/p95tIcXUNMYr2Q2sjohkNruF6it1xH1OkYYwEclTP7ldWuvG3tdiI645bKS2Tnzhyr2Q6Pyy4fYfdd3yedi2w7rsSYvK2K+aN9ZjvZMoQ5noA26Po15tSxzSDHN6Yk90XI/Ep9Lj4XwAf8frNtlOKyVGNFDbBjk8xaOtaTVHcKv6U13db2oWZ7OqRT0vaYHB0d8hgDFKeoPkO5PVa3IKYsLCyo1rO71QPfn1Xjt82q57btVB98YP42SaWJKl6MCRlzXWQcZYz2QsrYwsN1TCGLxcrXTkJI/XYZoV3bGUSwEFo3WSzCRfsulfeMS2yToLaydQlydpl5CSJ2Ch0Ho/Xd0VfT8ZQYXw/BghVWhdXhF3To630HDxxWj/+qpfa/8JK6du1ae19liSoA+kLsM9xBT3nIz+jt2p9BM4Dfb7aNXFzG6+b4GjbWydZ6mvVsTItXnLFCjLnujnW3k5RKyKznEWOA7iiqz1Bujw2KIKZQ1p6Q9lWaqDKEQUMXBUcZo72QMrbwcJ3sRU3Yi0x33/31qS5tE+tLiSrxL/VF+y6VD5sfasPsKwm8cI4iyjsRa6z6XDj6ajqKMuPrHViwwqqwOvxCKEhUDSrxglzSIyRLOsRPEMh+rHs6QZHbh4NhB36/2TaKcRmTxhPiE07p+l+LA6i8pXGse9o9YccVmXW4sZ5HjAG6p6g+Q7k9NoqCKN7QIYIRIhBBIhImPBKF+m4RL5Ad9btKVOUduxuR7QQ+naRXKt4m3TgRffwh5xKJKljTrQ6/EAolqm655RZOTOls3boViSowYMT+wdBny9cCUBT4/WbbKMZlbYz1dRK3UCxCa2uOSWJNTZPxnXV1Ei9ocYu531qrp/Dx0jU7YgzQPUX1GcrtsVEURPGGtsSxjSYwchlLRELKBNWRKdR3HS4TiVv6r75PH2MCHScoUeU9dpn5MWk7Ki4nH4v6W/6v9uTgqF3rrymusRnz1f34ugELVlgVVodfCGVubo4TUhJLliwR6wAAQFOA32+2jWJc1iFOOLXX88l6+1AUB6Tb4qTRITMeEBI4ZrzkWIdn1vOIMUB3FNVnKLfHRlEQxWRPst1M2FiCmYiBXoaTKFEZWwxDyuh9yB47KmO8xahTLqzven3zeFxWT0I5BN4o06Zo3+3y8efc+Yn6ozsEvS+xg7LHT23KziXGPo9ZuN2oDXvM2bHJ10Sh8fUQLFhhVVgdfgEAAIAf+P1m28jEZZR0sdbc8XpZj0fiNfcNenKGkzXRNn1tbidwOK4R1uZGkiduW1+bI8YA3VJUn6HcHqtLEOmVph999FFG9FyCSL9B0t1rUDuQMLhuaBYN7cLKCk8qdjHUTrY9XxlbeLJ1CEn03H131+cxCUJo94frJSLKdSxB1cuG991fnvYZ40qdUIrtjIyxOLYZ+J1IekzXnLf7kilTYnw9BAtWWBVWh18AAADgB36/2TY6cVm8NjeuY2Et749hYtKEDRPFL+a6O12r05NYSRmhDcQYoFuK6jOU22N1CCK9NWLL+vi147t3Pq8uXrzYFj5bEEk0X9i7X21eu53Lv3f6PbHN+ogFI1eggsqAUEiQ9bm0P48SWLDCqrCbb75Zff755+I1BwAAoD7g95ttiMuqQEr4yCDGAN2ARFWPrQ5BJOh1468eOcqvH99wf0vN/Hq3On36dFsQz507p3bN7FObxltq8qGWOnzwFfXZZ5+JbdVJ9jHVLCFlQBE6f70gByI/+TUaYMEKq8K+/e1vqw8//FC85gAAANQDrZ2/+tWvwu832BCXVUF4ogoxBugGJKp6bHUJos6Jt0+oZx7foTbe21Kb17TUxNrtLJJPbppRb7x+XF2/fl2s13/Mxy2ZzOOgIWUA6A1IVMGqsLGxMXXy5EnxmgMAAFAP9AcE/q0b+P3GGuKyKiiSqAKgPEhU9dgGQRBT6NFTyuC3nt01JI+SAlAvSFTBqrBnnnlGPfXUU+I1BwAAoB7279+v/uZv/gZ+v8GGuAyA4QWJqh7bIAkiAKAYSFTBqjD6fYrvfve74jUHAACgHu6++271R3/0R/D7DTbEZQAML0hU9dggiAAML0hUwaqy733ve+r8+fPidQcAAKC/XL16VX3ta19Tv/VbvwW/32BDXAbA8IJEVY8tFcT//u//BgAMEf/1X/+FRBWsMqMfTv23f/u3jBMGAADQf/KepiJgzTDEZQAMJ2XiMii3x2699VZ15cqVjEMEAAw+SFTBqrTNmzerHTt2iNceAACA/nD06FH193//96K/T4E1wxCXATC8IFHVY8PbnQAYTmgh80//9E+FBBEGK2L016H/+I//UPPz8+I1CAAAoFroK9hf//rX1W//9m+L/p5YtGhRotqwYTfEZQAMJ2XiMkRsHlu3bh2/RUSacADA4EILGTxRBavavvjiC7Vy5Uq1d+9e8ToEAABQDfQkFSWpfvd3f1f09Smw5hjiMgCGkzJxGdTbY0eOHFH33XefOOEAgMHl8ccfV3/+539eSBBhsDJGT1Y98sgj/JtVZ86cEa9HAAAAveHDDz/k36Sir/vlPUlF/PEf/3Gi1LAmGOIyAIaTMnEZIjaPUQBy8803q2vXromTDgAYTOh3DFx/ZYXBqjD6gfV///d/V9/97nfVU089xX89wlcUAACgO+gPAKSl9JuA9AeBxYsX5/5wug6sWYa4DIDhpExcBgUPsF27dqmNGzeKkw4AGDxoMfvXf/3XohgSMFiVdvHiRfXMM8/wI84AAAC64x//8R/537/8y79Uv//7vy/6dQlYMw1xGQDDRdm4DCoeYJS9//a3v423TAAwBHz22WfqX/7lX9Tv/M7viGJIwGD9Mun6AwAAUC2w5hriMgCGh27iMih5oF26dIm/zoFHTQEYbOiHrf/wD/9QFEKCHjuFwfpp9Bsp0rUIAACgt8DHj4YhLgNgOOgmLkOiqoDRD/jRd+OvXr0qnggAQH3QYoV+YNP1Q30pX/va15I7Ggbrr/3BH/yBeE0CAADoDiSoRs8QlwEwuPQiLkOiqqDRj+VSBp9eiSudFABA/6EfWf3Xf/1X9Sd/8ieiCOrAYINi//AP/wAAAKAkMBjiMgAGj17FZYjaSth//ud/ql/84hecxd+/fz9/91I6SQCA6qBM/aFDh/gV1fQjq7/3e78nCqDOkiVLkrsYBoPBYDAYDDbshrgMgPqpIi5DoqoLoyz+unXr1D//8z+zONJ3MAEA/eGrX/2q+tu//dvgV1QvWrQouXNhMBgMBoPBYE0yxGUA1EcVcRkSVT2yP/uzP+MfCgMA9AdJ9FzQbwPBYDAYDAaDwZpviMsA6C9S/OUiNC5DoqqHRt+Xl04GAKA+/uIv/iK5Q2EwGAwGg8Fgo2CIywAYPIrEZUhUVWB4FTkA9YM3AMFgMBgMBoONtiEuA6B+ysRlSFRVaPQDYXRSpJMFAKiGvNecwmAwGAwGg8FGzxCXAdB/uonLkKiCwWAwGAwGg8FgMBgMBoMNhCFRBYPBYDAYDAaDwWAwGAwGGwhDogoGg8FgMBgMBoPBYDAYDDYQhkQVDAaDwWAwGAwGg8FgMBhsIAyJKhgMBoPBYDAYDAaDwWAw2EAYElUwGAwGg8FgMBgMBoPBYLCBMCSqYDAYDAaDwWAwGAwGg8FgA2BK/X/N0DMuFJykDQAAAABJRU5ErkJggg==;" vertex="1" parent="1">
          <mxGeometry x="290" y="220" width="1194" height="577" as="geometry" />
        </mxCell>
        <mxCell id="IfQArLoxXnqm0S6wMqAk-173" value="" style="endArrow=diamondThin;endFill=0;endSize=24;html=1;rounded=0;entryX=0.385;entryY=0.364;entryDx=0;entryDy=0;entryPerimeter=0;" edge="1" parent="1">
          <mxGeometry width="160" relative="1" as="geometry">
            <mxPoint x="610" y="400" as="sourcePoint" />
            <mxPoint x="749.69" y="400.028" as="targetPoint" />
          </mxGeometry>
        </mxCell>
        <mxCell id="IfQArLoxXnqm0S6wMqAk-177" value="Korzysta z" style="edgeLabel;html=1;align=center;verticalAlign=middle;resizable=0;points=[];" vertex="1" connectable="0" parent="IfQArLoxXnqm0S6wMqAk-173">
          <mxGeometry x="-0.2945" relative="1" as="geometry">
            <mxPoint x="11" y="-10" as="offset" />
          </mxGeometry>
        </mxCell>
        <mxCell id="IfQArLoxXnqm0S6wMqAk-174" value="" style="endArrow=diamondThin;endFill=0;endSize=24;html=1;rounded=0;entryX=0.385;entryY=0.364;entryDx=0;entryDy=0;entryPerimeter=0;" edge="1" parent="1">
          <mxGeometry width="160" relative="1" as="geometry">
            <mxPoint x="610" y="610" as="sourcePoint" />
            <mxPoint x="750" y="610" as="targetPoint" />
          </mxGeometry>
        </mxCell>
        <mxCell id="IfQArLoxXnqm0S6wMqAk-178" value="Korzysta z" style="edgeLabel;html=1;align=center;verticalAlign=middle;resizable=0;points=[];" vertex="1" connectable="0" parent="IfQArLoxXnqm0S6wMqAk-174">
          <mxGeometry x="-0.0793" y="-1" relative="1" as="geometry">
            <mxPoint y="-11" as="offset" />
          </mxGeometry>
        </mxCell>
        <mxCell id="IfQArLoxXnqm0S6wMqAk-175" value="" style="endArrow=diamondThin;endFill=0;endSize=24;html=1;rounded=0;" edge="1" parent="1">
          <mxGeometry width="160" relative="1" as="geometry">
            <mxPoint x="1230" y="370" as="sourcePoint" />
            <mxPoint x="1120" y="370" as="targetPoint" />
          </mxGeometry>
        </mxCell>
        <mxCell id="IfQArLoxXnqm0S6wMqAk-179" value="Korzysta z" style="edgeLabel;html=1;align=center;verticalAlign=middle;resizable=0;points=[];" vertex="1" connectable="0" parent="IfQArLoxXnqm0S6wMqAk-175">
          <mxGeometry x="-0.3285" relative="1" as="geometry">
            <mxPoint x="-3" y="-10" as="offset" />
          </mxGeometry>
        </mxCell>
        <mxCell id="IfQArLoxXnqm0S6wMqAk-176" value="" style="endArrow=diamondThin;endFill=0;endSize=24;html=1;rounded=0;" edge="1" parent="1">
          <mxGeometry width="160" relative="1" as="geometry">
            <mxPoint x="1230" y="610" as="sourcePoint" />
            <mxPoint x="1120" y="610" as="targetPoint" />
          </mxGeometry>
        </mxCell>
        <mxCell id="IfQArLoxXnqm0S6wMqAk-180" value="Korzysta z" style="edgeLabel;html=1;align=center;verticalAlign=middle;resizable=0;points=[];" vertex="1" connectable="0" parent="IfQArLoxXnqm0S6wMqAk-176">
          <mxGeometry x="-0.4288" y="-1" relative="1" as="geometry">
            <mxPoint x="-8" y="-9" as="offset" />
          </mxGeometry>
        </mxCell>
      </root>
    </mxGraphModel>
  </diagram>
</mxfile>
